<svg width="15" height="15" viewBox="0 0 15 15" fill="none" xmlns="http://www.w3.org/2000/svg">
<path d="M10.993 9.6741H10.301L10.055 9.4371C11.0206 8.31219 11.5128 6.85693 11.4282 5.37686C11.3437 3.89679 10.689 2.50702 9.60167 1.49936C8.51429 0.491705 7.0788 -0.055472 5.59658 -0.0272828C4.11436 0.000906395 2.70071 0.602269 1.65244 1.65054C0.604161 2.69882 0.00279848 4.11247 -0.0253907 5.59469C-0.0535799 7.07691 0.493597 8.5124 1.50126 9.59977C2.50892 10.6872 3.89868 11.3418 5.37875 11.4264C6.85883 11.5109 8.31409 11.0187 9.43899 10.0531L9.67599 10.2991V10.9941L13.413 14.7311C13.5867 14.9048 13.8223 15.0024 14.068 15.0024C14.3137 15.0024 14.5493 14.9048 14.723 14.7311C14.8967 14.5574 14.9943 14.3218 14.9943 14.0761C14.9943 13.8304 14.8967 13.5948 14.723 13.4211L10.993 9.6741ZM5.71699 9.6741C4.93437 9.6741 4.16932 9.44202 3.5186 9.00722C2.86787 8.57242 2.36069 7.95442 2.0612 7.23138C1.7617 6.50833 1.68334 5.71271 1.83602 4.94512C1.9887 4.17754 2.36557 3.47247 2.91897 2.91908C3.47236 2.36568 4.17743 1.98881 4.94502 1.83613C5.7126 1.68345 6.50822 1.76181 7.23127 2.06131C7.95431 2.3608 8.57231 2.86798 9.00712 3.51871C9.44192 4.16943 9.67399 4.93448 9.67399 5.7171C9.67465 6.23692 9.57275 6.75177 9.37412 7.23215C9.1755 7.71254 8.88405 8.14901 8.51648 8.51659C8.14891 8.88416 7.71243 9.1756 7.23205 9.37423C6.75166 9.57285 6.23681 9.67476 5.71699 9.6741Z" fill="#00A884"/>
</svg>
