<svg width="917" height="831" viewBox="0 0 917 831" fill="none" xmlns="http://www.w3.org/2000/svg">
<path d="M856.276 579.911H555.757V405.956H856.276V579.911ZM557.591 578.077H854.442V407.79H557.591V578.077Z" fill="#E0E0E0"/>
<path d="M794.269 498.72H595.958V504.534H794.269V498.72Z" fill="#F0F0F0"/>
<path d="M807.932 520.397H595.958V526.743H807.932V520.397Z" fill="#F0F0F0"/>
<path d="M807.932 542.332H595.958V548.678H807.932V542.332Z" fill="#F0F0F0"/>
<path d="M665.265 467.23H595.958V482.324H665.265V467.23Z" fill="#F0F0F0"/>
<path d="M855.359 406.892H556.674V434.585H855.359V406.892Z" fill="#E0E0E0"/>
<path d="M832.379 430.44C831.994 430.073 835.845 425.433 840.981 420.078C846.116 414.723 850.572 410.669 850.958 411.036C851.343 411.403 847.491 416.043 842.356 421.398C837.221 426.754 832.764 430.807 832.379 430.44Z" fill="white"/>
<path d="M850.939 430.44C850.554 430.807 846.098 426.754 840.962 421.398C835.827 416.043 831.976 411.403 832.361 411.036C832.746 410.669 837.203 414.723 842.338 420.078C847.473 425.433 851.324 430.073 850.939 430.44Z" fill="white"/>
<path d="M486.413 62.4478H187.728V234.569H486.413V62.4478Z" fill="#E6E6E6"/>
<path d="M425.341 154.276H227.031V160.09H425.341V154.276Z" fill="#F0F0F0"/>
<path d="M439.004 175.972H227.031V182.318H439.004V175.972Z" fill="#F0F0F0"/>
<path d="M439.004 197.907H227.031V204.253H439.004V197.907Z" fill="#F0F0F0"/>
<path d="M296.338 122.805H227.031V137.899H296.338V122.805Z" fill="#F0F0F0"/>
<path d="M486.413 62.4478H187.728V90.1412H486.413V62.4478Z" fill="#E0E0E0"/>
<path d="M462.425 85.8677C462.04 85.5009 465.891 80.8609 471.026 75.5056C476.161 70.1503 480.618 66.0972 481.003 66.464C481.388 66.8308 477.537 71.4708 472.402 76.8261C467.267 82.1814 462.792 86.2345 462.425 85.8677Z" fill="white"/>
<path d="M480.985 85.8677C480.6 86.2345 476.143 82.1814 471.008 76.8261C465.873 71.4708 462.021 66.8308 462.406 66.464C462.791 66.0972 467.248 70.1503 472.383 75.5056C477.518 80.8609 481.37 85.5192 480.985 85.8677Z" fill="white"/>
<path d="M373.292 382.187H72.7731V208.232H373.292V382.187ZM74.6071 380.353H371.458V210.066H74.6071V380.353Z" fill="#E0E0E0"/>
<path d="M311.303 300.996H112.993V306.81H311.303V300.996Z" fill="#F0F0F0"/>
<path d="M324.966 322.674H112.993V329.019H324.966V322.674Z" fill="#F0F0F0"/>
<path d="M324.966 344.608H112.993V350.954H324.966V344.608Z" fill="#F0F0F0"/>
<path d="M182.3 269.506H112.993V284.6H182.3V269.506Z" fill="#F0F0F0"/>
<path d="M372.375 209.149H73.6901V236.843H372.375V209.149Z" fill="#E0E0E0"/>
<path d="M720.12 422.04H367.442V737.781H720.12V422.04Z" fill="#E6E6E6"/>
<path d="M385.177 322.583H108.903V609.622H385.177V322.583Z" fill="#F0F0F0"/>
<path d="M385.177 322.583H108.903V353.852H385.177V322.583Z" fill="#E0E0E0"/>
<path d="M131.718 337.896C131.718 341.252 129.114 343.967 125.922 343.967C122.713 343.967 120.127 341.252 120.127 337.896C120.127 334.54 122.731 331.826 125.922 331.826C129.114 331.844 131.718 334.558 131.718 337.896Z" fill="white"/>
<path d="M155.248 337.896C155.248 341.252 152.644 343.967 149.453 343.967C146.243 343.967 143.657 341.252 143.657 337.896C143.657 334.54 146.261 331.826 149.453 331.826C152.644 331.844 155.248 334.558 155.248 337.896Z" fill="white"/>
<path d="M178.778 337.896C178.778 341.252 176.174 343.967 172.983 343.967C169.773 343.967 167.187 341.252 167.187 337.896C167.187 334.54 169.792 331.826 172.983 331.826C176.174 331.844 178.778 334.558 178.778 337.896Z" fill="white"/>
<path d="M816.827 125.226H464.149V476.73H816.827V125.226Z" fill="#F0F0F0"/>
<path d="M816.827 125.226H464.149V166.399H816.827V125.226Z" fill="#E0E0E0"/>
<path d="M494.19 145.4C494.19 149.801 490.778 153.378 486.56 153.378C482.342 153.378 478.931 149.801 478.931 145.4C478.931 140.998 482.342 137.422 486.56 137.422C490.76 137.422 494.19 140.998 494.19 145.4Z" fill="white"/>
<path d="M522.928 140.007C526.046 143.125 526.156 148.077 523.167 151.048C520.177 154.038 515.244 153.928 512.126 150.81C509.008 147.692 508.898 142.74 511.888 139.769C514.859 136.78 519.811 136.89 522.928 140.007Z" fill="white"/>
<path d="M556.142 145.4C556.142 149.801 552.731 153.378 548.513 153.378C544.294 153.378 540.883 149.801 540.883 145.4C540.883 140.998 544.294 137.422 548.513 137.422C552.713 137.422 556.142 140.998 556.142 145.4Z" fill="white"/>
<path d="M740.643 831.04C740.643 831.297 613.29 831.517 456.226 831.517C299.107 831.517 171.791 831.297 171.791 831.04C171.791 830.784 299.107 830.563 456.226 830.563C613.29 830.563 740.643 830.784 740.643 831.04Z" fill="#263238"/>
<path d="M616.554 606.522C588.219 586.734 581.8 549.98 582.919 516.968C583.102 511.448 582.497 505.652 585.119 500.811C587.742 495.969 593.868 492.668 598.801 494.997C602.891 496.923 604.688 501.691 606.962 505.616C610.007 510.861 614.555 515.189 619.892 517.959C623.395 519.774 627.742 520.893 631.208 518.986C635.958 516.363 636.526 509.797 636.49 504.314C636.416 494.098 636.361 483.883 636.306 473.649C636.27 468.165 636.251 462.572 637.957 457.363C639.663 452.155 643.422 447.331 648.649 445.864C653.858 444.397 660.313 447.405 661.414 452.778C661.872 455.016 661.414 457.327 661.56 459.601C661.707 461.875 662.771 464.387 664.935 465.029C667.117 465.671 669.318 464.112 670.951 462.517C676.618 456.978 680.451 449.844 684.045 442.765C687.64 435.685 691.125 428.404 696.26 422.37C701.395 416.337 708.493 411.55 716.342 411.11C724.192 410.67 732.555 415.511 734.554 423.214C736.534 430.935 732.041 438.785 727.126 445.039C719.845 454.319 711.225 462.535 701.652 469.321C699.928 470.55 698.057 471.87 697.397 473.906C696.205 477.556 699.671 481.187 703.284 482.397C707.374 483.754 711.812 483.333 716.085 483.846C720.359 484.341 724.999 486.23 726.612 490.283C728.85 495.896 724.173 501.764 719.552 505.616C710.308 513.319 699.763 519.407 688.52 523.534C684.485 525.001 680.249 526.303 676.984 529.146C673.738 531.989 671.776 536.904 673.738 540.773C675.701 544.643 680.744 545.872 684.981 545.083C689.199 544.295 692.995 542.002 697.012 540.48C704.549 537.637 714.27 538.151 719.111 544.662C722.284 548.935 722.559 554.895 720.964 560.012C719.368 565.111 716.104 569.512 712.656 573.565C700.588 587.742 685.127 599.15 667.631 605.202C650.116 611.236 633.922 612.886 616.554 606.522Z" fill="#00A884"/>
<path d="M726.631 415.695C726.649 415.713 726.466 415.878 726.099 416.208C725.696 416.575 725.164 417.052 724.467 417.657C723.036 418.923 720.909 420.793 718.249 423.288C712.913 428.239 705.43 435.704 697.305 445.901C693.234 450.981 688.979 456.74 684.541 462.994C680.121 469.266 675.426 475.997 670.749 483.259C666.091 490.522 661.414 498.298 657.214 506.698C655.105 510.898 653.216 515.281 651.29 519.756C649.383 524.231 647.439 528.761 645.476 533.346C637.682 551.741 630.841 569.512 625.944 586.11C621.011 602.708 618.095 618.077 616.811 631.098C615.49 644.138 615.766 654.775 616.297 662.074C616.591 665.724 616.866 668.567 617.123 670.474C617.233 671.391 617.306 672.106 617.379 672.657C617.435 673.152 617.453 673.409 617.435 673.409C617.416 673.409 617.361 673.17 617.288 672.675C617.196 672.143 617.086 671.428 616.939 670.511C616.609 668.604 616.279 665.779 615.931 662.111C615.27 654.812 614.904 644.138 616.132 631.043C617.324 617.967 620.204 602.506 625.082 585.853C629.942 569.182 636.783 551.356 644.578 532.961C646.54 528.376 648.484 523.828 650.41 519.353C652.336 514.896 654.243 510.476 656.37 506.258C660.589 497.821 665.302 490.027 669.997 482.764C674.692 475.502 679.424 468.771 683.88 462.517C688.355 456.263 692.647 450.523 696.773 445.461C704.99 435.282 712.582 427.891 718.011 423.013C720.707 420.573 722.871 418.739 724.357 417.529C725.072 416.942 725.622 416.502 726.044 416.153C726.429 415.823 726.631 415.677 726.631 415.695Z" fill="#263238"/>
<path d="M656.645 506.184C656.572 506.203 656.389 505.359 656.113 503.837C655.82 502.315 655.49 500.114 655.105 497.381C654.335 491.916 653.509 484.341 652.647 475.997C651.785 467.634 650.868 460.096 650.006 454.667C649.584 451.953 649.218 449.752 648.961 448.248C648.704 446.726 648.594 445.882 648.649 445.864C648.722 445.846 648.961 446.671 649.346 448.157C649.731 449.642 650.208 451.825 650.722 454.539C651.767 459.968 652.794 467.524 653.656 475.887C654.481 484.14 655.233 491.604 655.82 497.289C656.095 499.857 656.334 502.039 656.517 503.782C656.664 505.322 656.719 506.184 656.645 506.184Z" fill="#263238"/>
<path d="M727.144 493.016C727.144 493.089 726.136 493.199 724.338 493.346C722.523 493.511 719.918 493.731 716.69 494.098C710.235 494.795 701.34 496.079 691.601 497.913C681.863 499.765 673.115 501.819 666.842 503.488C663.688 504.295 661.157 505.029 659.415 505.524C657.672 506.019 656.682 506.258 656.664 506.202C656.645 506.129 657.581 505.762 659.305 505.139C661.029 504.534 663.523 503.69 666.659 502.791C672.913 500.939 681.661 498.775 691.436 496.904C701.211 495.07 710.143 493.896 716.635 493.383C719.882 493.108 722.523 492.998 724.338 492.943C726.136 492.924 727.144 492.943 727.144 493.016Z" fill="#263238"/>
<path d="M625.944 584.533C625.907 584.551 625.742 584.257 625.467 583.671C625.137 582.974 624.752 582.148 624.257 581.121C623.212 578.902 621.799 575.656 620.112 571.621C616.719 563.552 612.373 552.236 607.733 539.71C603.093 527.165 598.874 515.831 595.646 507.706C594.069 503.745 592.767 500.499 591.795 498.078C591.373 497.032 591.043 496.17 590.768 495.455C590.548 494.85 590.438 494.52 590.475 494.52C590.511 494.502 590.676 494.795 590.951 495.382C591.282 496.079 591.667 496.904 592.162 497.931C593.207 500.15 594.619 503.396 596.307 507.431C599.7 515.501 604.046 526.817 608.686 539.361C613.308 551.906 617.544 563.221 620.772 571.364C622.35 575.326 623.652 578.572 624.624 580.993C625.045 582.038 625.376 582.919 625.651 583.616C625.871 584.184 625.981 584.514 625.944 584.533Z" fill="#263238"/>
<path d="M719.625 554.327C719.625 554.363 719.313 554.492 718.69 554.712C717.956 554.95 717.057 555.262 715.975 555.629C713.463 556.436 710.07 557.536 705.943 558.875C697.47 561.626 685.824 565.551 672.95 569.916C660.075 574.281 648.374 578.095 639.846 580.681C635.573 581.965 632.125 582.974 629.722 583.616C628.603 583.909 627.687 584.147 626.953 584.349C626.311 584.496 625.981 584.569 625.963 584.533C625.963 584.496 626.274 584.368 626.898 584.147C627.631 583.909 628.53 583.597 629.612 583.23C632.125 582.424 635.518 581.323 639.644 579.984C648.117 577.233 659.763 573.309 672.638 568.944C685.513 564.579 697.213 560.764 705.742 558.196C710.015 556.913 713.463 555.904 715.865 555.262C716.984 554.969 717.901 554.73 718.635 554.528C719.276 554.363 719.607 554.308 719.625 554.327Z" fill="#263238"/>
<path d="M681.404 109.453L671.959 112.828L667.924 100.485C660.478 77.7251 636.691 65.5473 614.922 73.3235C593.152 81.118 581.506 105.969 588.971 128.729L593.006 141.071L583.524 144.464C576.151 147.105 572.153 155.597 574.684 163.318L600.983 243.629C603.551 251.46 611.694 255.641 619.067 253L716.947 217.989C724.43 215.312 728.428 206.784 725.861 198.952L699.561 118.642C697.048 110.92 688.905 106.776 681.404 109.453ZM606.797 122.346C602.707 109.875 609.09 96.2485 621.029 91.9752C632.95 87.702 645.99 94.3961 650.061 106.867L654.096 119.21L610.832 134.689L606.797 122.346ZM661.836 193.616L668.548 214.12C668.823 214.982 668.328 215.88 667.503 216.174L658.113 219.53C657.397 219.787 656.48 219.402 656.187 218.54L649.474 198.035C642.193 197.724 635.444 192.9 632.913 185.197C629.667 175.276 634.747 164.437 644.266 161.025C653.784 157.614 664.146 162.933 667.393 172.855C669.924 180.576 667.411 188.7 661.836 193.616Z" fill="#00A884"/>
<path d="M671.537 112.608C671.629 112.865 654.023 119.449 632.216 127.335C610.41 135.221 592.657 141.402 592.565 141.163C592.474 140.906 610.08 134.322 631.886 126.436C653.711 118.55 671.446 112.369 671.537 112.608Z" fill="#263238"/>
<path d="M692.335 115.982C692.353 115.982 692.427 116.147 692.555 116.459C692.702 116.826 692.867 117.303 693.087 117.89C693.564 119.229 694.206 121.081 695.049 123.447C696.737 128.362 699.139 135.349 702.092 143.951C705.045 152.644 708.529 162.951 712.417 174.395C714.325 180.136 716.434 186.115 718.433 192.424C719.368 195.596 720.139 198.971 719.808 202.492C719.643 204.235 719.166 205.977 718.323 207.572C717.461 209.15 716.25 210.525 714.857 211.662C712.032 213.918 708.731 215.238 705.54 216.412C702.33 217.568 699.176 218.686 696.076 219.805C689.878 222.024 683.899 224.17 678.195 226.206C666.806 230.259 656.554 233.909 647.916 236.99C639.332 240.016 632.363 242.455 627.466 244.179C625.101 244.986 623.23 245.628 621.891 246.086C621.286 246.288 620.809 246.435 620.442 246.563C620.112 246.673 619.947 246.71 619.929 246.692C619.929 246.673 620.075 246.6 620.406 246.472C620.772 246.325 621.249 246.141 621.836 245.903C623.157 245.408 625.009 244.711 627.356 243.831C632.235 242.033 639.167 239.484 647.695 236.348C656.315 233.212 666.549 229.507 677.92 225.381C683.605 223.326 689.584 221.162 695.783 218.925C698.882 217.806 702.037 216.669 705.228 215.514C708.383 214.34 711.61 213.038 714.27 210.91C715.59 209.847 716.709 208.563 717.498 207.114C718.286 205.647 718.726 204.033 718.873 202.4C719.185 199.099 718.451 195.816 717.553 192.699C715.572 186.463 713.481 180.429 711.592 174.689C707.777 163.226 704.348 152.882 701.468 144.171C698.644 135.533 696.333 128.509 694.719 123.575C693.967 121.191 693.362 119.302 692.922 117.963C692.739 117.358 692.592 116.881 692.482 116.496C692.353 116.166 692.317 116.001 692.335 115.982Z" fill="#263238"/>
<path d="M640.689 90.6915C640.634 90.7648 639.717 90.1963 637.92 89.481C636.104 88.7841 633.372 87.9771 629.906 87.8671C626.458 87.7387 622.276 88.2706 618.095 90.1046C613.931 91.9019 609.823 95.1114 606.889 99.4763C603.899 103.823 602.579 108.848 602.579 113.396C602.542 117.981 603.514 122.053 604.45 125.391C605.422 128.747 606.412 131.388 607.054 133.24C607.714 135.093 608.063 136.101 608.008 136.138C607.953 136.156 607.476 135.184 606.705 133.369C605.954 131.553 604.853 128.93 603.808 125.574C602.781 122.218 601.717 118.091 601.699 113.378C601.644 108.683 603.001 103.419 606.1 98.9261C609.145 94.4145 613.418 91.1133 617.746 89.2793C622.093 87.4269 626.421 86.9684 629.942 87.1885C633.5 87.3903 636.27 88.3256 638.067 89.1325C638.947 89.5727 639.626 89.9212 640.066 90.2146C640.488 90.508 640.708 90.6731 640.689 90.6915Z" fill="#263238"/>
<path d="M641.533 162.456C641.515 162.437 641.845 162.272 642.469 161.997C643.092 161.704 644.027 161.337 645.293 160.97C646.54 160.585 648.154 160.291 650.061 160.181C651.95 160.09 654.188 160.291 656.499 161.135C661.175 162.786 665.504 167.572 667.631 173.918C668.658 177.128 668.75 180.851 667.723 184.445C666.622 188.022 664.623 191.47 661.726 194.367L661.854 193.872C664.293 200.548 666.934 207.829 669.703 215.403L669.868 215.862L669.41 216.008C668.09 216.449 666.659 216.925 665.21 217.421C662.129 218.448 659.066 219.475 656.077 220.483L655.618 220.63L655.472 220.172C652.959 212.561 650.208 205.408 648.209 198.549L648.612 198.861C644.853 198.604 641.478 197.027 638.801 194.972C636.105 192.9 634.032 190.332 632.638 187.618C631.263 184.904 630.584 182.024 630.694 179.365C630.768 176.706 631.373 174.303 632.235 172.286C633.94 168.196 636.49 165.628 638.379 164.216C640.286 162.822 641.533 162.456 641.533 162.456C641.57 162.529 640.378 163.006 638.525 164.455C636.728 165.904 634.289 168.471 632.693 172.488C631.098 176.412 630.401 182.043 633.262 187.306C634.637 189.911 636.655 192.368 639.259 194.349C641.863 196.311 645.091 197.778 648.631 197.999L648.943 198.017L649.034 198.31C651.052 205.114 653.821 212.249 656.352 219.897L655.747 219.603C658.736 218.594 661.781 217.586 664.862 216.54C666.292 216.063 667.723 215.587 669.062 215.128L668.768 215.733C666.017 208.159 663.394 200.878 660.974 194.184L660.882 193.909L661.102 193.689C663.853 190.974 665.852 187.618 666.897 184.207C667.906 180.759 667.833 177.219 666.897 174.138C664.898 167.976 660.772 163.299 656.297 161.649C654.096 160.787 651.932 160.548 650.08 160.603C648.227 160.677 646.632 160.897 645.385 161.245C642.835 161.924 641.552 162.547 641.533 162.456Z" fill="#263238"/>
<path d="M584.844 692.005L401.664 691.161C379.638 691.07 361.848 673.115 361.94 651.089L363.884 191.855C363.976 169.81 381.931 152.02 403.975 152.112L587.155 152.956C609.181 153.066 626.971 171.002 626.88 193.029L624.936 652.262C624.844 674.307 606.889 692.097 584.844 692.005Z" fill="#455A64"/>
<path d="M586.898 168.802L551.374 168.637C546.605 168.618 542.736 172.635 542.717 177.605L542.681 184.042C542.662 189.012 538.774 193.047 534.024 193.011L464.791 192.699C460.022 192.68 456.189 188.627 456.207 183.639L456.244 177.201C456.262 172.231 452.429 168.16 447.661 168.142L435.171 168.086L404.085 167.94C388.643 167.866 376.08 180.338 376.007 195.762L374.118 644.009C374.044 659.433 386.497 671.996 401.939 672.07L584.753 672.913C600.195 672.987 612.758 660.534 612.831 645.092L614.72 196.844C614.775 181.438 602.322 168.875 586.898 168.802Z" fill="white"/>
<path d="M562.286 613.143L426.35 612.52C424.938 612.52 423.801 610.979 423.819 609.09L423.966 573.529C423.966 571.64 425.121 570.118 426.533 570.136L562.469 570.759C563.882 570.759 565.019 572.3 565 574.189L564.854 609.75C564.854 611.639 563.698 613.162 562.286 613.143Z" fill="#00A884"/>
<path d="M467.237 584.322C467.204 584.029 467.065 583.802 466.82 583.639C466.574 583.477 466.273 583.395 465.915 583.393C465.654 583.392 465.425 583.433 465.229 583.517C465.034 583.601 464.882 583.716 464.772 583.864C464.664 584.011 464.609 584.179 464.608 584.367C464.608 584.525 464.645 584.66 464.719 584.774C464.796 584.886 464.893 584.98 465.012 585.055C465.131 585.129 465.255 585.19 465.386 585.238C465.516 585.285 465.636 585.323 465.746 585.352L466.345 585.517C466.498 585.558 466.669 585.614 466.857 585.686C467.047 585.758 467.228 585.856 467.401 585.98C467.575 586.102 467.718 586.258 467.831 586.449C467.944 586.64 467.999 586.873 467.998 587.15C467.997 587.469 467.912 587.757 467.744 588.014C467.577 588.27 467.334 588.474 467.015 588.624C466.697 588.775 466.311 588.849 465.858 588.847C465.435 588.845 465.069 588.775 464.76 588.637C464.454 588.499 464.212 588.308 464.037 588.063C463.863 587.818 463.765 587.534 463.743 587.211L464.481 587.215C464.499 587.437 464.574 587.622 464.704 587.769C464.836 587.914 465.002 588.022 465.204 588.094C465.407 588.164 465.626 588.2 465.861 588.201C466.133 588.202 466.379 588.159 466.596 588.072C466.814 587.982 466.986 587.858 467.114 587.699C467.241 587.539 467.305 587.351 467.306 587.135C467.307 586.939 467.253 586.78 467.144 586.656C467.035 586.533 466.891 586.432 466.713 586.354C466.535 586.277 466.342 586.208 466.134 586.15L465.409 585.939C464.948 585.804 464.584 585.613 464.316 585.366C464.048 585.119 463.915 584.796 463.917 584.399C463.918 584.068 464.009 583.78 464.188 583.535C464.37 583.288 464.613 583.097 464.917 582.962C465.223 582.825 465.565 582.757 465.941 582.759C466.322 582.761 466.66 582.831 466.955 582.969C467.25 583.104 467.484 583.29 467.656 583.525C467.83 583.76 467.921 584.027 467.929 584.325L467.237 584.322ZM469.906 582.858L469.881 588.761L469.167 588.758L469.192 582.855L469.906 582.858ZM476.021 582.886L475.996 588.79L475.304 588.786L472.107 584.137L472.049 584.136L472.03 588.771L471.315 588.768L471.34 582.865L472.031 582.868L475.24 587.529L475.298 587.53L475.317 582.883L476.021 582.886ZM481.479 584.756C481.416 584.562 481.333 584.388 481.23 584.234C481.129 584.077 481.007 583.944 480.866 583.834C480.726 583.724 480.567 583.64 480.388 583.581C480.21 583.523 480.014 583.493 479.801 583.492C479.451 583.49 479.133 583.579 478.845 583.758C478.558 583.938 478.33 584.203 478.159 584.554C477.988 584.905 477.902 585.336 477.9 585.847C477.898 586.358 477.981 586.79 478.151 587.142C478.32 587.495 478.551 587.762 478.842 587.944C479.133 588.126 479.462 588.218 479.827 588.219C480.165 588.221 480.463 588.15 480.721 588.007C480.981 587.862 481.184 587.658 481.329 587.393C481.476 587.127 481.551 586.813 481.552 586.452L481.771 586.499L479.996 586.491L479.998 585.856L482.247 585.867L482.244 586.501C482.242 586.987 482.136 587.409 481.927 587.768C481.72 588.126 481.434 588.404 481.07 588.6C480.708 588.794 480.293 588.89 479.824 588.888C479.301 588.886 478.843 588.761 478.448 588.513C478.055 588.265 477.749 587.914 477.53 587.459C477.313 587.005 477.205 586.466 477.208 585.844C477.21 585.377 477.274 584.957 477.401 584.585C477.529 584.211 477.709 583.893 477.941 583.63C478.173 583.368 478.446 583.168 478.762 583.029C479.078 582.89 479.425 582.821 479.804 582.823C480.115 582.825 480.405 582.873 480.673 582.968C480.944 583.062 481.185 583.195 481.395 583.367C481.608 583.537 481.785 583.74 481.926 583.977C482.067 584.212 482.164 584.473 482.217 584.76L481.479 584.756ZM489.64 582.949L490.355 582.953L490.338 586.861C490.337 587.265 490.24 587.625 490.049 587.941C489.859 588.255 489.592 588.503 489.247 588.684C488.902 588.863 488.498 588.951 488.035 588.949C487.572 588.947 487.169 588.855 486.826 588.673C486.483 588.488 486.216 588.238 486.028 587.922C485.841 587.604 485.748 587.244 485.75 586.84L485.766 582.931L486.481 582.935L486.465 586.786C486.464 587.074 486.526 587.331 486.652 587.556C486.778 587.78 486.958 587.956 487.191 588.086C487.427 588.214 487.709 588.279 488.038 588.28C488.367 588.282 488.649 588.22 488.886 588.094C489.123 587.966 489.305 587.791 489.43 587.569C489.558 587.345 489.623 587.089 489.624 586.8L489.64 582.949ZM491.758 588.862L491.783 582.959L493.777 582.968C494.24 582.971 494.618 583.056 494.912 583.224C495.207 583.391 495.425 583.616 495.566 583.899C495.707 584.182 495.777 584.498 495.775 584.846C495.774 585.193 495.702 585.509 495.558 585.793C495.417 586.077 495.199 586.302 494.904 586.47C494.609 586.636 494.232 586.718 493.773 586.716L492.343 586.709L492.346 586.075L493.752 586.081C494.07 586.083 494.324 586.029 494.517 585.921C494.71 585.812 494.85 585.665 494.937 585.479C495.026 585.291 495.071 585.079 495.072 584.842C495.073 584.606 495.03 584.394 494.942 584.208C494.857 584.021 494.717 583.874 494.523 583.767C494.33 583.659 494.072 583.604 493.751 583.603L492.495 583.597L492.472 588.866L491.758 588.862Z" fill="#E8E8E3"/>
<path d="M453.445 300.54L406.274 300.322L406.234 308.979L453.405 309.196L453.445 300.54Z" fill="#00A884"/>
<path opacity="0.1" d="M453.445 300.54L406.274 300.322L406.234 308.979L453.405 309.196L453.445 300.54Z" fill="black"/>
<path d="M591.74 353.65C591.74 353.614 592.125 353.669 592.822 353.393C593.464 353.137 594.491 352.366 594.601 350.918C594.601 348.001 594.583 343.747 594.583 338.281C594.583 335.53 594.583 332.486 594.583 329.148C594.583 328.304 594.583 327.461 594.583 326.599C594.601 325.7 594.601 324.875 594.069 324.196C593.593 323.518 592.767 323.077 591.905 323.077C590.97 323.077 589.998 323.077 589.026 323.077C581.231 323.059 572.336 323.041 562.543 323.022C523.259 322.876 469.027 322.674 409.147 322.454C408.358 322.454 407.588 322.839 407.13 323.481C406.616 324.123 406.635 324.893 406.653 325.883C406.653 327.736 406.635 329.606 406.635 331.44C406.616 335.145 406.598 338.813 406.58 342.463C406.58 344.278 406.561 346.112 406.561 347.91C406.598 348.772 406.469 349.817 406.635 350.496C406.818 351.229 407.368 351.853 408.065 352.146C408.432 352.293 408.762 352.348 409.202 352.348H410.541L413.219 352.366C414.998 352.366 416.777 352.385 418.537 352.385C432.659 352.458 446.286 352.531 459.27 352.605C485.221 352.77 508.587 352.898 528.229 353.027C547.834 353.173 563.717 353.302 574.721 353.393C580.186 353.448 584.441 353.503 587.357 353.54C588.769 353.559 589.869 353.595 590.64 353.595C591.373 353.614 591.74 353.65 591.74 353.65C591.74 353.65 591.355 353.687 590.621 353.687C589.851 353.687 588.751 353.705 587.339 353.724C584.404 353.724 580.149 353.742 574.702 353.76C563.698 353.742 547.816 353.724 528.21 353.705C508.568 353.65 485.203 353.577 459.252 353.485C446.267 353.43 432.641 353.375 418.519 353.32C416.758 353.32 414.979 353.302 413.2 353.302L410.523 353.283H409.184C408.725 353.302 408.157 353.228 407.68 353.008C406.726 352.605 405.956 351.743 405.699 350.734C405.552 350.221 405.589 349.689 405.589 349.267V347.91C405.589 346.094 405.608 344.278 405.608 342.463C405.626 338.813 405.644 335.145 405.644 331.44C405.644 329.588 405.663 327.736 405.663 325.883C405.681 325.407 405.644 324.985 405.718 324.416C405.791 323.884 406.011 323.371 406.323 322.931C406.946 322.05 408.028 321.5 409.11 321.519C468.991 321.849 523.222 322.142 562.506 322.362C572.318 322.436 581.195 322.491 589.008 322.564C589.98 322.564 590.933 322.582 591.887 322.582C592.914 322.601 593.886 323.114 594.454 323.921C595.078 324.71 595.078 325.792 595.041 326.617C595.041 327.479 595.023 328.341 595.023 329.185C594.986 332.523 594.968 335.567 594.95 338.318C594.876 343.783 594.821 348.038 594.803 350.973C594.638 352.495 593.537 353.283 592.877 353.522C592.144 353.742 591.74 353.65 591.74 353.65Z" fill="#E0E0E0"/>
<path d="M505.199 334.009L418.928 333.611L418.89 341.699L505.162 342.097L505.199 334.009Z" fill="#00A884"/>
<path opacity="0.2" d="M505.199 334.009L418.928 333.611L418.89 341.699L505.162 342.097L505.199 334.009Z" fill="white"/>
<path d="M453.115 379.513L405.944 379.295L405.904 387.951L453.075 388.169L453.115 379.513Z" fill="#00A884"/>
<path opacity="0.1" d="M453.115 379.513L405.944 379.295L405.904 387.951L453.075 388.169L453.115 379.513Z" fill="black"/>
<path d="M590.53 432.622C590.53 432.586 590.915 432.622 591.612 432.42C592.272 432.2 593.354 431.65 593.941 430.348C594.253 429.706 594.289 428.918 594.253 428.019C594.253 427.12 594.253 426.148 594.234 425.103C594.234 422.994 594.234 420.554 594.216 417.84C594.216 415.108 594.216 412.063 594.216 408.744C594.216 407.918 594.216 407.056 594.216 406.194C594.253 405.314 594.143 404.507 593.684 403.773C593.244 403.058 592.529 402.49 591.685 402.233C590.86 401.976 589.888 402.123 588.916 402.068C581.14 402.049 572.3 402.031 562.506 402.013C523.35 401.866 469.321 401.664 409.642 401.444C407.992 401.408 406.451 402.765 406.286 404.397C406.231 406.139 406.249 408.065 406.231 409.881C406.213 413.567 406.194 417.235 406.176 420.866C406.176 422.682 406.158 424.498 406.158 426.295C406.194 427.194 406.066 428.129 406.268 428.863C406.47 429.614 406.965 430.293 407.607 430.752C408.285 431.21 409 431.375 409.881 431.338L412.54 431.357C414.319 431.357 416.08 431.375 417.84 431.375C431.907 431.448 445.497 431.522 458.427 431.595C484.286 431.76 507.578 431.889 527.147 432.017C546.679 432.164 562.506 432.292 573.474 432.384C578.921 432.457 583.157 432.494 586.073 432.531C587.485 432.567 588.567 432.586 589.356 432.586C590.163 432.586 590.53 432.622 590.53 432.622C590.53 432.622 590.145 432.659 589.411 432.659C588.641 432.659 587.559 432.677 586.128 432.696C583.212 432.696 578.976 432.714 573.529 432.732C562.561 432.714 546.734 432.696 527.202 432.677C507.633 432.622 484.341 432.549 458.482 432.457C445.552 432.402 431.962 432.347 417.895 432.292C416.135 432.292 414.374 432.274 412.595 432.274L409.936 432.255C409.037 432.31 407.937 432.09 407.13 431.503C406.304 430.935 405.681 430.073 405.406 429.101C405.131 428.074 405.296 427.175 405.259 426.295C405.259 424.498 405.277 422.682 405.277 420.866C405.296 417.235 405.314 413.567 405.314 409.881C405.332 408.01 405.296 406.249 405.369 404.287C405.571 402.178 407.533 400.436 409.679 400.491C469.357 400.821 523.387 401.114 562.543 401.334C572.318 401.408 581.158 401.463 588.934 401.536C589.888 401.591 590.86 401.426 591.85 401.738C592.804 402.031 593.611 402.691 594.106 403.517C594.638 404.324 594.748 405.351 594.693 406.194C594.693 407.056 594.675 407.918 594.675 408.744C594.638 412.063 594.62 415.108 594.601 417.84C594.565 420.573 594.546 422.994 594.528 425.103C594.51 426.148 594.51 427.12 594.491 428.019C594.51 428.899 594.455 429.761 594.106 430.421C593.464 431.779 592.327 432.329 591.63 432.512C590.915 432.677 590.53 432.622 590.53 432.622Z" fill="#E0E0E0"/>
<path d="M452.766 461.896L405.595 461.68L405.556 470.336L452.726 470.553L452.766 461.896Z" fill="#00A884"/>
<path opacity="0.1" d="M452.766 461.896L405.595 461.68L405.556 470.336L452.726 470.553L452.766 461.896Z" fill="black"/>
<path d="M590.181 514.987C590.181 514.951 590.566 514.987 591.263 514.786C591.924 514.565 593.006 514.015 593.593 512.713C593.904 512.071 593.941 511.283 593.904 510.384C593.904 509.485 593.904 508.513 593.886 507.468C593.886 505.359 593.886 502.92 593.868 500.205C593.868 497.473 593.868 494.428 593.868 491.109C593.868 490.283 593.868 489.421 593.868 488.559C593.904 487.679 593.794 486.872 593.336 486.138C592.896 485.423 592.18 484.855 591.337 484.598C590.511 484.341 589.539 484.488 588.567 484.433C580.791 484.414 571.951 484.396 562.176 484.378C523.02 484.231 468.991 484.029 409.312 483.809C407.662 483.773 406.121 485.111 405.956 486.762C405.901 488.504 405.919 490.43 405.901 492.246C405.883 495.932 405.864 499.6 405.846 503.231C405.846 505.047 405.828 506.863 405.828 508.66C405.864 509.559 405.736 510.494 405.938 511.228C406.139 511.979 406.635 512.658 407.276 513.117C407.955 513.575 408.67 513.74 409.551 513.703L412.21 513.722C413.989 513.722 415.75 513.74 417.51 513.74C431.577 513.813 445.167 513.887 458.097 513.96C483.956 514.125 507.248 514.254 526.817 514.382C546.349 514.529 562.176 514.657 573.143 514.749C578.59 514.822 582.827 514.859 585.743 514.896C587.155 514.914 588.256 514.951 589.026 514.951C589.814 514.951 590.181 514.987 590.181 514.987C590.181 514.987 589.796 515.024 589.063 515.024C588.292 515.024 587.21 515.042 585.78 515.061C582.864 515.061 578.627 515.079 573.18 515.097C562.213 515.079 546.385 515.061 526.853 515.042C507.284 514.987 483.993 514.914 458.133 514.822C445.204 514.767 431.614 514.712 417.547 514.657C415.786 514.657 414.026 514.639 412.247 514.639L409.587 514.62C408.689 514.675 407.588 514.455 406.781 513.869C405.956 513.3 405.332 512.438 405.057 511.466C404.782 510.439 404.947 509.54 404.911 508.642C404.911 506.844 404.929 505.029 404.929 503.213C404.947 499.582 404.966 495.914 404.966 492.227C404.984 490.357 404.947 488.596 405.021 486.634C405.222 484.524 407.185 482.782 409.331 482.837C469.009 483.167 523.039 483.461 562.194 483.681C571.97 483.754 580.81 483.809 588.586 483.883C589.539 483.938 590.511 483.773 591.502 484.084C592.455 484.378 593.262 485.038 593.758 485.863C594.289 486.67 594.399 487.697 594.344 488.541C594.344 489.403 594.326 490.265 594.326 491.09C594.289 494.41 594.271 497.454 594.253 500.187C594.216 502.92 594.198 505.34 594.179 507.45C594.161 508.495 594.161 509.467 594.143 510.366C594.161 511.246 594.106 512.108 593.758 512.768C593.116 514.125 591.979 514.675 591.282 514.859C590.585 515.061 590.181 514.987 590.181 514.987Z" fill="#E0E0E0"/>
<path d="M504.869 412.982L418.598 412.584L418.56 420.672L504.832 421.07L504.869 412.982Z" fill="#00A884"/>
<path opacity="0.2" d="M504.869 412.982L418.598 412.584L418.56 420.672L504.832 421.07L504.869 412.982Z" fill="white"/>
<path d="M426.423 500.022C426.405 502.241 424.718 504.038 422.627 504.02C420.536 504.002 418.867 502.204 418.867 499.985C418.886 497.766 420.573 495.969 422.664 495.987C424.754 495.987 426.442 497.803 426.423 500.022Z" fill="#00A884"/>
<path d="M438.106 500.077C438.088 502.296 436.4 504.093 434.31 504.075C432.219 504.075 430.55 502.259 430.55 500.04C430.55 497.821 432.256 496.024 434.346 496.042C436.437 496.042 438.124 497.839 438.106 500.077Z" fill="#00A884"/>
<path d="M449.807 500.132C449.807 502.351 448.101 504.148 446.011 504.13C443.92 504.13 442.251 502.314 442.251 500.095C442.269 497.876 443.956 496.078 446.047 496.097C448.138 496.097 449.807 497.894 449.807 500.132Z" fill="#00A884"/>
<path d="M461.489 500.187C461.489 502.406 459.784 504.203 457.693 504.185C455.602 504.185 453.933 502.369 453.933 500.15C453.933 497.931 455.639 496.134 457.73 496.152C459.821 496.152 461.508 497.949 461.489 500.187Z" fill="#00A884"/>
<path d="M473.172 500.223C473.172 502.443 471.466 504.24 469.376 504.222C467.285 504.222 465.616 502.406 465.616 500.187C465.634 497.968 467.322 496.17 469.412 496.189C471.503 496.207 473.19 498.004 473.172 500.223Z" fill="#00A884"/>
<path d="M484.873 500.279C484.873 502.498 483.167 504.295 481.077 504.277C478.986 504.277 477.317 502.461 477.317 500.242C477.317 498.023 479.022 496.225 481.113 496.244C483.186 496.262 484.873 498.059 484.873 500.279Z" fill="#00A884"/>
<path d="M496.556 500.333C496.537 502.552 494.85 504.35 492.759 504.331C490.668 504.313 489 502.516 489 500.297C489 498.078 490.705 496.28 492.796 496.298C494.887 496.317 496.556 498.114 496.556 500.333Z" fill="#00A884"/>
<path d="M508.238 500.388C508.238 502.608 506.532 504.405 504.442 504.387C502.351 504.368 500.682 502.571 500.682 500.352C500.682 498.133 502.388 496.335 504.478 496.354C506.569 496.354 508.256 498.169 508.238 500.388Z" fill="#00A884"/>
<path d="M519.921 500.444C519.921 502.663 518.215 504.46 516.124 504.442C514.034 504.442 512.365 502.626 512.365 500.407C512.383 498.188 514.07 496.39 516.161 496.409C518.252 496.409 519.939 498.224 519.921 500.444Z" fill="#00A884"/>
<g opacity="0.2">
<path d="M426.423 500.022C426.405 502.241 424.718 504.038 422.627 504.02C420.536 504.002 418.867 502.204 418.867 499.985C418.886 497.766 420.573 495.969 422.664 495.987C424.754 495.987 426.442 497.803 426.423 500.022Z" fill="white"/>
<path d="M438.106 500.077C438.088 502.296 436.4 504.093 434.31 504.075C432.219 504.075 430.55 502.259 430.55 500.04C430.55 497.821 432.256 496.024 434.346 496.042C436.437 496.042 438.124 497.839 438.106 500.077Z" fill="white"/>
<path d="M449.807 500.132C449.807 502.351 448.101 504.148 446.011 504.13C443.92 504.13 442.251 502.314 442.251 500.095C442.269 497.876 443.956 496.078 446.047 496.097C448.138 496.097 449.807 497.894 449.807 500.132Z" fill="white"/>
<path d="M461.489 500.187C461.489 502.406 459.784 504.203 457.693 504.185C455.602 504.185 453.933 502.369 453.933 500.15C453.933 497.931 455.639 496.134 457.73 496.152C459.821 496.152 461.508 497.949 461.489 500.187Z" fill="white"/>
<path d="M473.172 500.223C473.172 502.443 471.466 504.24 469.376 504.222C467.285 504.222 465.616 502.406 465.616 500.187C465.634 497.968 467.322 496.17 469.412 496.189C471.503 496.207 473.19 498.004 473.172 500.223Z" fill="white"/>
<path d="M484.873 500.279C484.873 502.498 483.167 504.295 481.077 504.277C478.986 504.277 477.317 502.461 477.317 500.242C477.317 498.023 479.022 496.225 481.113 496.244C483.186 496.262 484.873 498.059 484.873 500.279Z" fill="white"/>
<path d="M496.556 500.333C496.537 502.552 494.85 504.35 492.759 504.331C490.668 504.313 489 502.516 489 500.297C489 498.078 490.705 496.28 492.796 496.298C494.887 496.317 496.556 498.114 496.556 500.333Z" fill="white"/>
<path d="M508.238 500.388C508.238 502.608 506.532 504.405 504.442 504.387C502.351 504.368 500.682 502.571 500.682 500.352C500.682 498.133 502.388 496.335 504.478 496.354C506.569 496.354 508.256 498.169 508.238 500.388Z" fill="white"/>
<path d="M519.921 500.444C519.921 502.663 518.215 504.46 516.124 504.442C514.034 504.442 512.365 502.626 512.365 500.407C512.383 498.188 514.07 496.39 516.161 496.409C518.252 496.409 519.939 498.224 519.921 500.444Z" fill="white"/>
</g>
<path d="M503.323 235.687C505.799 234.66 507.541 232.111 507.56 229.103C507.578 225.179 504.607 221.969 500.92 221.951C497.234 221.932 494.245 225.105 494.226 229.03C494.208 232.056 495.987 234.624 498.481 235.669C488.211 237.21 488.688 248.379 488.688 248.379L512.951 248.489C512.951 248.489 513.502 237.21 503.323 235.687Z" fill="#00A884"/>
<path opacity="0.1" d="M503.323 235.687C505.799 234.66 507.541 232.111 507.56 229.103C507.578 225.179 504.607 221.969 500.92 221.951C497.234 221.932 494.245 225.105 494.226 229.03C494.208 232.056 495.987 234.624 498.481 235.669C488.211 237.21 488.688 248.379 488.688 248.379L512.951 248.489C512.951 248.489 513.502 237.21 503.323 235.687Z" fill="black"/>
<path d="M542.765 255.807L456.219 255.408L456.171 265.751L542.717 266.151L542.765 255.807Z" fill="#00A884"/>
<path opacity="0.2" d="M542.765 255.807L456.219 255.408L456.171 265.751L542.717 266.151L542.765 255.807Z" fill="white"/>
<path d="M224.61 309.359C224.61 309.377 224.317 309.414 223.766 309.451C223.161 309.488 222.336 309.561 221.272 309.634C220.172 309.653 218.833 309.891 217.256 310.166C216.467 310.331 215.605 310.386 214.706 310.643C213.808 310.9 212.872 311.156 211.864 311.432C207.902 312.679 203.134 314.659 198.347 318.144C193.56 321.592 188.774 326.525 185.032 332.963C183.07 336.117 181.639 339.785 180.374 343.618C179.328 347.525 178.411 351.67 178.338 356.053C178.136 358.235 178.356 360.454 178.448 362.692C178.503 363.811 178.742 364.929 178.888 366.066C179.035 367.204 179.2 368.341 179.53 369.459C180.466 374.026 182.318 378.483 184.665 382.774C189.36 391.376 197.247 398.785 207.004 403.077C211.882 405.222 217.274 406.396 222.758 406.616C228.241 406.965 233.872 406.084 239.209 404.25L240.823 403.663L241.043 403.59L241.244 403.682C249.131 407.68 256.87 411.623 264.371 415.419L263.674 416.006C261.198 408.34 258.814 400.912 256.522 393.778L256.43 393.503L256.632 393.301C262.464 387.469 266.517 380.372 268.773 373.109C271.028 365.828 271.414 358.419 270.533 351.615C269.653 344.81 267.434 338.611 264.463 333.403C261.492 328.176 257.805 323.921 254.027 320.62C250.194 317.337 246.214 315.1 242.657 313.394C239.007 311.872 235.761 310.9 233.065 310.368C231.708 310.129 230.515 309.928 229.47 309.763C228.425 309.689 227.544 309.634 226.811 309.579C226.132 309.524 225.582 309.488 225.178 309.451C224.793 309.396 224.61 309.377 224.61 309.359C224.61 309.341 224.793 309.341 225.16 309.341C225.564 309.359 226.114 309.359 226.792 309.396C227.526 309.433 228.425 309.469 229.47 309.506C230.534 309.671 231.744 309.836 233.101 310.038C235.834 310.515 239.117 311.45 242.822 312.954C246.435 314.641 250.469 316.86 254.376 320.161C258.246 323.481 262.005 327.754 265.05 333.054C268.094 338.318 270.387 344.609 271.304 351.523C272.221 358.419 271.872 365.956 269.598 373.384C267.324 380.775 263.216 388.019 257.273 393.98L257.384 393.503C259.694 400.637 262.097 408.065 264.573 415.713L264.94 416.832L263.894 416.3C256.393 412.503 248.654 408.579 240.749 404.562L241.153 404.58L239.502 405.186C234.055 407.056 228.296 407.955 222.684 407.607C217.072 407.368 211.57 406.176 206.582 403.975C196.623 399.574 188.59 391.999 183.822 383.233C181.438 378.868 179.567 374.301 178.632 369.661C178.301 368.524 178.136 367.369 177.99 366.213C177.843 365.058 177.605 363.921 177.55 362.784C177.458 360.491 177.256 358.235 177.458 356.034C177.55 351.596 178.503 347.378 179.585 343.417C180.906 339.528 182.373 335.824 184.372 332.633C188.205 326.122 193.083 321.17 197.962 317.722C202.84 314.256 207.682 312.294 211.699 311.101C212.707 310.845 213.679 310.588 214.578 310.35C215.477 310.093 216.357 310.056 217.146 309.909C218.741 309.653 220.098 309.451 221.199 309.469C222.262 309.433 223.106 309.414 223.711 309.378C224.317 309.341 224.61 309.341 224.61 309.359Z" fill="#00A884"/>
<path d="M235.064 352.183H231.671L224.28 341.876V335.109C224.28 335.109 219.035 334.778 219.658 343.637C220.282 352.495 219.603 350.239 219.603 350.239C219.603 350.239 208.471 350.276 207.554 351.248C206.875 351.945 206.582 363.004 206.453 369.001C206.398 372.027 208.251 374.815 211.057 375.53C211.46 375.64 211.864 375.695 212.249 375.695C215.018 375.695 229.195 373.439 229.195 373.439H235.045V352.183H235.064Z" fill="#00A884"/>
<path d="M244.766 350.312L242.675 373.494H236.879V350.789L244.766 350.312Z" fill="#00A884"/>
<path d="M313.889 822.255V806.556L285.774 806.373L285.535 830.068L287.278 830.197C295.036 830.692 326.745 831.425 331.936 829.812C337.749 828.033 313.889 822.255 313.889 822.255Z" fill="#00A884"/>
<path d="M332.614 828.363C332.614 828.619 322.105 828.839 309.121 828.839C296.154 828.839 285.627 828.619 285.627 828.363C285.627 828.106 296.136 827.886 309.121 827.886C322.087 827.886 332.614 828.106 332.614 828.363Z" fill="#263238"/>
<path d="M314.384 825.465C314.146 825.337 314.348 824.511 314.953 823.704C315.558 822.879 316.292 822.457 316.475 822.641C316.658 822.824 316.273 823.521 315.723 824.273C315.173 825.006 314.623 825.593 314.384 825.465Z" fill="#263238"/>
<path d="M316.182 826.492C315.943 826.4 316.072 825.465 316.622 824.493C317.172 823.503 317.906 822.916 318.107 823.081C318.309 823.246 317.961 824.053 317.447 824.952C316.933 825.869 316.42 826.584 316.182 826.492Z" fill="#263238"/>
<path d="M294.1 828.29C293.99 828.363 293.568 827.959 292.963 827.263C292.358 826.584 291.551 825.612 290.505 824.787C289.46 823.98 288.305 823.558 287.461 823.466C286.599 823.356 286.049 823.484 285.994 823.338C285.939 823.228 286.471 822.843 287.479 822.788C288.47 822.714 289.882 823.099 291.074 824.035C292.266 824.952 293.018 826.07 293.495 826.859C293.99 827.684 294.21 828.216 294.1 828.29Z" fill="#263238"/>
<path d="M314.476 822.512C314.623 822.732 314.127 823.283 313.32 823.576C312.513 823.87 311.798 823.778 311.762 823.503C311.725 823.246 312.293 822.934 312.99 822.677C313.687 822.421 314.329 822.292 314.476 822.512Z" fill="#263238"/>
<path d="M314.036 820.99C314.054 821.247 313.321 821.485 312.367 821.485C311.413 821.504 310.661 821.302 310.68 821.027C310.698 820.77 311.45 820.532 312.348 820.532C313.247 820.532 313.999 820.733 314.036 820.99Z" fill="#263238"/>
<path d="M383.123 822.255V806.556L355.007 806.373L354.769 829.83L356.511 829.958C364.269 830.453 395.979 831.426 401.169 829.83C406.983 828.033 383.123 822.255 383.123 822.255Z" fill="#00A884"/>
<path d="M401.848 828.399C401.848 828.656 391.339 828.876 378.354 828.876C365.388 828.876 354.861 828.656 354.861 828.399C354.861 828.142 365.369 827.922 378.354 827.922C391.339 827.922 401.848 828.142 401.848 828.399Z" fill="#263238"/>
<path d="M383.618 825.465C383.379 825.337 383.581 824.511 384.186 823.704C384.791 822.879 385.525 822.457 385.709 822.641C385.892 822.824 385.507 823.521 384.957 824.273C384.406 825.006 383.856 825.593 383.618 825.465Z" fill="#263238"/>
<path d="M385.415 826.492C385.177 826.4 385.305 825.465 385.855 824.493C386.405 823.503 387.139 822.916 387.341 823.081C387.543 823.246 387.194 824.053 386.681 824.952C386.167 825.869 385.672 826.584 385.415 826.492Z" fill="#263238"/>
<path d="M363.334 828.29C363.224 828.363 362.802 827.959 362.197 827.263C361.591 826.584 360.784 825.612 359.739 824.787C358.694 823.98 357.538 823.558 356.695 823.466C355.833 823.356 355.282 823.484 355.227 823.338C355.172 823.228 355.704 822.843 356.713 822.788C357.703 822.714 359.115 823.099 360.308 824.035C361.5 824.952 362.252 826.07 362.728 826.859C363.224 827.684 363.444 828.216 363.334 828.29Z" fill="#263238"/>
<path d="M383.709 822.512C383.838 822.732 383.361 823.283 382.554 823.576C381.747 823.87 381.032 823.778 380.995 823.503C380.958 823.246 381.527 822.934 382.224 822.677C382.939 822.421 383.563 822.292 383.709 822.512Z" fill="#263238"/>
<path d="M383.269 820.99C383.288 821.247 382.554 821.485 381.6 821.485C380.647 821.504 379.895 821.302 379.913 821.027C379.931 820.77 380.683 820.532 381.582 820.532C382.481 820.532 383.233 820.733 383.269 820.99Z" fill="#263238"/>
<path d="M486.707 356.603C485.973 355.851 484.176 356.2 484.176 356.2C484.176 356.2 484.488 354.054 484.158 353.027C483.828 351.981 481.517 352.183 481.517 352.183C481.517 352.183 481.37 351.193 481.572 349.579C481.627 349.175 481.407 348.882 481.04 348.662C479.939 348.002 477.592 348.038 477.592 348.038C476.18 347.03 481.902 339.015 484.029 336.448C486.12 333.917 485.772 331.881 483.883 331.881C482.599 331.881 475.905 339.584 473.869 342.17C471.833 344.756 466.349 351.945 466.166 346.204C465.983 340.464 463.672 336.117 462.241 335.384C460.792 334.65 459.252 336.374 460.041 337.97C460.682 339.254 461.086 341.748 461.324 343.618C461.508 345.159 461.453 346.736 461.104 348.258C460.151 352.55 459.124 355.356 458.628 356.548L458.482 356.475C458.482 356.475 418.445 394.86 415.566 397.593C412.962 400.051 360.95 394.677 350.532 393.577C347.69 393.265 343.472 392.678 339.804 392.843C335.292 393.045 334.485 393.687 329.955 393.742C316.108 393.925 304.554 395.282 295.971 396.731C285.59 398.492 277.062 405.883 273.853 415.915C263.344 448.743 239.539 526.45 235.302 570.099C231.964 576.371 228.223 583.707 226.719 587.834C223.766 595.867 224.482 596.124 225.472 596.307C228.131 596.802 231.194 582.387 232.331 585.872C233.468 589.356 226.554 603.056 229.36 603.46C233.028 603.991 235.944 588.843 236.274 587.577C236.604 586.348 238.457 586.77 238.09 587.889C237.558 589.503 232.404 606.614 235.981 607.164C237.98 607.476 238.182 603.845 238.182 603.845C238.182 603.845 241.831 587.485 243.519 587.797C245.224 588.109 243.408 597.792 242.565 601.02C241.721 604.211 242.913 605.899 244.619 605.092C245.793 604.542 248.599 594.748 249.369 591.539C250.121 588.329 252.065 579.507 254.651 584.624C257.237 589.741 261.162 592.712 262.776 592.786C264.389 592.841 265.068 590.622 263.674 589.503C262.537 588.604 261.125 586.532 260.135 584.918C259.309 583.597 258.704 582.148 258.374 580.626C257.09 574.757 257.09 571.346 257.09 571.346L256.797 569.457C260.905 549.118 272.734 489.421 289.754 451.293L296.76 465.708L299.804 476.382L281.134 522.488L360.748 521.443L348.882 475.703L363.297 428.019C378.904 428.368 418.996 428.954 425.726 425.947C434.126 422.187 477.592 367.405 477.592 367.405C480.526 365.076 483.516 362.545 485.717 360.363C485.698 360.345 488.302 358.254 486.707 356.603Z" fill="#FFBE9D"/>
<path d="M277.649 488.559C279.96 480.673 291.826 441.682 291.826 441.682C291.826 441.682 297.658 473.466 296.118 477.299C294.357 481.719 291.111 486.762 291.111 486.762C277.649 507.266 279.41 517.518 279.41 517.518L360.729 515.042C360.931 503.671 354.2 477.225 352.788 473.007C351.376 468.789 356.053 454.96 356.053 454.96C356.053 454.96 365.241 445.625 364.893 440.82C364.177 431.137 363.297 428.019 363.297 428.019L412.778 429.835L411.219 396.254L340.097 389.138C337.639 396.144 315.228 392.715 315.228 392.715C291.037 393.503 289.589 397.96 279.502 405.773C269.415 413.585 252.817 480.636 252.817 480.636L277.649 488.559Z" fill="#00A884"/>
<path d="M325.737 480.618C325.737 480.747 324.104 480.857 321.445 480.838C318.804 480.82 315.136 480.655 311.12 480.251C307.103 479.848 303.472 479.279 300.886 478.766C298.282 478.252 296.704 477.831 296.723 477.702C296.741 477.574 298.373 477.757 300.996 478.106C303.619 478.436 307.213 478.894 311.211 479.298C315.21 479.701 318.841 479.976 321.463 480.16C324.123 480.361 325.755 480.49 325.737 480.618Z" fill="#263238"/>
<path d="M331.312 473.704C331.349 473.814 329.661 474.456 326.874 475.226C324.086 475.978 320.161 476.822 315.76 477.354C311.358 477.867 307.342 477.977 304.462 477.904C301.565 477.831 299.786 477.592 299.786 477.464C299.786 477.317 301.583 477.317 304.462 477.225C307.342 477.134 311.303 476.932 315.65 476.4C319.996 475.887 323.903 475.153 326.727 474.566C329.533 473.979 331.275 473.576 331.312 473.704Z" fill="#263238"/>
<path d="M358.675 442.856C358.804 442.874 358.602 444.47 358.125 447.001C357.648 449.532 356.915 453.016 355.979 456.85C355.044 460.683 354.09 464.112 353.338 466.57C352.586 469.046 352.036 470.549 351.908 470.513C351.78 470.476 352.091 468.917 352.678 466.405C353.375 463.544 354.164 460.261 355.044 456.629C355.943 452.998 356.75 449.734 357.465 446.873C358.088 444.36 358.529 442.838 358.675 442.856Z" fill="#263238"/>
<path d="M278.511 483.882C278.438 484.139 272.826 482.837 265.985 480.966C259.126 479.096 253.642 477.372 253.716 477.115C253.789 476.858 259.401 478.179 266.242 480.031C273.083 481.902 278.585 483.626 278.511 483.882Z" fill="#263238"/>
<path d="M364.177 427.597C364.177 427.634 363.425 427.725 362.068 427.579C360.729 427.432 358.749 427.12 356.475 426.24C354.2 425.378 351.596 423.966 349.175 421.802C346.754 419.656 344.59 416.685 343.215 413.2C341.821 409.716 341.344 406.084 341.564 402.856C341.784 399.629 342.628 396.713 344.077 394.677C345.507 392.604 347.396 391.614 348.717 391.266C349.377 391.082 349.927 391.045 350.276 391.064C350.642 391.082 350.826 391.119 350.826 391.137C350.826 391.229 350.074 391.192 348.827 391.614C347.616 392.054 345.892 393.081 344.627 395.062C342.133 398.987 341.436 406.158 344.095 412.852C345.434 416.208 347.47 419.051 349.762 421.141C352.055 423.251 354.53 424.699 356.713 425.616C361.151 427.45 364.214 427.377 364.177 427.597Z" fill="#263238"/>
<path d="M406.928 429.175C406.671 429.175 406.469 421.6 406.488 412.284C406.506 402.948 406.726 395.374 407.001 395.374C407.258 395.374 407.46 402.948 407.441 412.284C407.423 421.6 407.203 429.175 406.928 429.175Z" fill="#263238"/>
<path d="M339.657 391.192C339.858 387.102 340.28 382.481 340.28 382.481C340.28 382.481 350.404 381.362 351.009 370.908C351.614 360.454 351.009 336.337 351.009 336.337L332.577 326.947L312.312 342.958L315.393 395.227L334.045 396.419C336.979 396.603 339.51 394.255 339.657 391.192Z" fill="#FFBE9D"/>
<path d="M341.472 362.637C341.509 362.637 341.509 362.838 341.307 363.095C341.124 363.333 340.72 363.627 340.152 363.609C338.978 363.554 337.841 362.251 337.438 360.674C337.236 359.867 337.236 359.06 337.383 358.345C337.511 357.648 337.914 356.951 338.483 356.768C338.758 356.658 339.051 356.676 339.253 356.786C339.473 356.896 339.602 357.061 339.675 357.208C339.803 357.52 339.712 357.703 339.675 357.685C339.638 357.685 339.638 357.52 339.492 357.318C339.345 357.116 338.996 356.933 338.63 357.135C338.245 357.318 337.969 357.813 337.878 358.437C337.768 359.06 337.768 359.794 337.969 360.509C338.336 361.921 339.327 363.095 340.189 363.205C340.629 363.26 340.977 363.095 341.179 362.93C341.362 362.765 341.436 362.618 341.472 362.637Z" fill="#EB996E"/>
<path d="M357.3 330.707C355.888 325.902 350.771 323.499 346.112 322.179C339.015 320.161 331.33 319.281 324.416 321.83C317.484 324.38 309.157 328.873 309.157 336.521C305.068 336.191 302.738 339.767 301.106 344.205C300.152 346.828 299.51 349.744 299.364 352.642L299.29 352.623C298.759 362.637 295.971 376.447 289.478 383.856C285.884 387.946 280.73 390.77 278.64 395.869C276.824 400.307 277.759 405.534 276.054 410.009C274.531 413.952 271.175 416.758 268.773 420.188C263.527 427.67 263.179 438.234 267.03 446.579C270.882 454.924 278.511 461.031 286.984 463.837C295.457 466.643 304.701 466.331 313.32 464.075C319.684 462.425 325.883 459.674 330.964 455.327C336.044 450.999 339.932 444.965 341.087 438.234C342.371 430.733 340.28 423.141 338.74 415.694C333.861 392.146 335.255 390.935 341.417 369.093C341.564 368.707 341.637 368.304 341.747 367.919C341.821 367.625 341.913 367.35 341.986 367.057H341.968C342.133 366.195 342.261 365.333 342.261 364.452C340.482 365.149 338.318 364.691 336.961 363.297C335.585 361.922 335.09 359.684 335.714 357.813C336.429 355.649 338.41 354.219 340.445 353.357C342.481 352.495 344.664 352.073 346.663 351.119C350.899 349.102 353.834 344.92 355.833 340.537C357.208 337.456 358.254 333.953 357.3 330.707Z" fill="#263238"/>
<path d="M342.206 363.077C342.261 363.059 342.628 363.737 343.178 364.893C343.728 366.048 344.462 367.68 345.269 369.569L345.416 369.918L345.03 369.955C344.425 370.01 343.802 370.065 343.16 370.12C341.876 370.211 340.812 370.358 339.565 370.34C339.363 370.303 339.143 370.12 339.088 369.918C339.015 369.716 339.033 369.551 339.052 369.404C339.107 369.111 339.162 368.909 339.217 368.652L339.547 367.35C339.95 365.773 340.244 364.801 340.317 364.819C340.39 364.838 340.244 365.846 339.932 367.442L339.675 368.762C339.583 369.203 339.418 369.863 339.657 369.826C340.574 369.789 341.876 369.643 343.086 369.551C343.728 369.496 344.333 369.459 344.957 369.404L344.719 369.789C343.93 367.9 343.27 366.231 342.811 365.039C342.371 363.847 342.133 363.114 342.206 363.077Z" fill="#00A884"/>
<path d="M279.41 517.5L360.729 515.024L396.089 653.197L389.578 811.692H346.534L351.871 656.572L320.418 560.379L325.26 817.836L281.812 818.478L277.227 576.481C277.044 569.75 274.825 554.583 275.65 547.908L279.41 517.5Z" fill="#263238"/>
<path d="M331.257 562.341C331.239 562.469 329.716 562.396 327.277 562.102C324.838 561.809 321.463 561.296 317.777 560.562C314.091 559.81 310.79 558.985 308.424 558.306C306.058 557.628 304.627 557.114 304.646 556.986C304.719 556.729 310.625 558.159 317.961 559.627C325.297 561.094 331.294 562.066 331.257 562.341Z" fill="#455A64"/>
<path d="M389.193 802.998C389.193 803.255 379.455 803.475 367.424 803.475C355.392 803.475 345.654 803.255 345.654 802.998C345.654 802.742 355.392 802.521 367.424 802.521C379.455 802.521 389.193 802.723 389.193 802.998Z" fill="#455A64"/>
<path d="M324.893 811.141C324.893 811.398 315.448 811.618 303.784 811.618C292.12 811.618 282.674 811.398 282.674 811.141C282.674 810.885 292.12 810.665 303.784 810.665C315.43 810.665 324.893 810.885 324.893 811.141Z" fill="#455A64"/>
<path d="M319.281 810.481C319.024 810.481 317.869 754.232 316.732 684.852C315.595 615.454 314.879 559.187 315.136 559.187C315.393 559.187 316.548 615.435 317.685 684.834C318.841 754.214 319.556 810.481 319.281 810.481Z" fill="#455A64"/>
<path d="M383.416 802.999C383.398 802.999 383.398 802.742 383.398 802.247C383.416 801.715 383.416 800.981 383.434 800.046C383.489 798.065 383.581 795.223 383.673 791.61C383.929 784.219 384.296 773.636 384.755 760.56C385.763 734.297 387.139 698.112 388.68 658.131C388.698 657.764 388.716 657.398 388.716 657.049L388.735 657.177C379.088 618.59 370.376 583.707 364.067 558.417C360.968 545.817 358.455 535.62 356.713 528.504C355.869 525.001 355.227 522.268 354.769 520.361C354.567 519.462 354.402 518.765 354.292 518.234C354.182 517.757 354.145 517.5 354.164 517.5C354.182 517.5 354.255 517.738 354.384 518.215C354.53 518.729 354.714 519.426 354.952 520.306C355.447 522.213 356.163 524.928 357.08 528.412C358.895 535.51 361.518 545.689 364.728 558.251C371.11 583.524 379.913 618.388 389.67 656.957L389.688 657.031V657.104C389.67 657.434 389.652 657.819 389.652 658.186C388.019 698.149 386.534 734.352 385.452 760.597C384.865 773.655 384.406 784.255 384.076 791.628C383.893 795.259 383.746 798.084 383.654 800.064C383.599 801 383.544 801.715 383.526 802.265C383.471 802.742 383.434 802.999 383.416 802.999Z" fill="#455A64"/>
<path d="M369.386 653.821C369.423 654.078 365.168 655.031 359.886 655.93C355.924 656.609 352.513 657.067 351.028 657.159V656.792C351.523 656.92 351.798 657.03 351.779 657.104C351.761 657.177 351.486 657.195 350.973 657.177L349.854 657.122L350.954 656.792C352.385 656.37 355.759 655.673 359.721 654.995C365.021 654.078 369.349 653.564 369.386 653.821Z" fill="#455A64"/>
<path d="M368.579 659.085C368.542 659.341 364.728 659.048 360.014 658.7C355.301 658.333 351.486 658.021 351.486 657.764C351.486 657.507 355.337 657.379 360.088 657.746C364.819 658.113 368.597 658.828 368.579 659.085Z" fill="#455A64"/>
<path opacity="0.2" d="M279.061 520.416C281.024 523.185 283.83 524.157 287.094 524.689C290.359 525.221 293.678 524.872 296.961 524.506C317.961 522.176 340.189 520.031 360.748 515.024C334.136 516.509 306.04 516.014 279.428 517.5C279.428 517.5 279.208 519.334 279.153 519.774" fill="black"/>
<g opacity="0.2">
<path d="M306.48 557.921L321.482 616.133L320.436 560.379L306.48 557.921Z" fill="black"/>
</g>
</svg>
