<svg width="69" height="68" viewBox="0 0 69 68" fill="none" xmlns="http://www.w3.org/2000/svg">
<path d="M34.5 0.25C27.8249 0.25 21.2997 2.2294 15.7495 5.9379C10.1994 9.6464 5.87354 14.9174 3.31908 21.0844C0.764623 27.2514 0.0962607 34.0374 1.39851 40.5843C2.70076 47.1312 5.91514 53.1448 10.6352 57.8649C15.3552 62.5849 21.3689 65.7992 27.9157 67.1015C34.4626 68.4038 41.2486 67.7354 47.4156 65.1809C53.5826 62.6265 58.8536 58.3007 62.5621 52.7505C66.2706 47.2003 68.25 40.6751 68.25 34C68.2401 25.052 64.6811 16.4733 58.3539 10.1461C52.0267 3.81891 43.448 0.259926 34.5 0.25ZM34.5 60.25C29.3083 60.25 24.2331 58.7105 19.9163 55.8261C15.5995 52.9417 12.235 48.842 10.2482 44.0454C8.26138 39.2489 7.74154 33.9709 8.7544 28.8789C9.76726 23.7869 12.2673 19.1096 15.9385 15.4384C19.6096 11.7673 24.2869 9.26725 29.3789 8.25439C34.4709 7.24152 39.7489 7.76136 44.5455 9.74816C49.342 11.735 53.4417 15.0995 56.3261 19.4163C59.2105 23.7331 60.75 28.8082 60.75 34C60.7426 40.9596 57.9746 47.6321 53.0533 52.5533C48.1321 57.4745 41.4597 60.2426 34.5 60.25ZM30.75 35.25V19C30.75 18.0054 31.1451 17.0516 31.8484 16.3483C32.5516 15.6451 33.5055 15.25 34.5 15.25C35.4946 15.25 36.4484 15.6451 37.1517 16.3483C37.8549 17.0516 38.25 18.0054 38.25 19V35.25C38.25 36.2446 37.8549 37.1984 37.1517 37.9016C36.4484 38.6049 35.4946 39 34.5 39C33.5055 39 32.5516 38.6049 31.8484 37.9016C31.1451 37.1984 30.75 36.2446 30.75 35.25ZM39.5 47.75C39.5 48.7389 39.2068 49.7056 38.6574 50.5279C38.108 51.3501 37.3271 51.991 36.4134 52.3694C35.4998 52.7478 34.4945 52.8469 33.5246 52.6539C32.5547 52.461 31.6637 51.9848 30.9645 51.2855C30.2652 50.5863 29.789 49.6954 29.5961 48.7255C29.4032 47.7555 29.5022 46.7502 29.8806 45.8366C30.2591 44.923 30.8999 44.1421 31.7222 43.5927C32.5444 43.0432 33.5111 42.75 34.5 42.75C35.8261 42.75 37.0979 43.2768 38.0355 44.2145C38.9732 45.1521 39.5 46.4239 39.5 47.75Z" fill="#DFB853"/>
</svg>
