<svg width="214" height="214" viewBox="0 0 214 214" fill="none" xmlns="http://www.w3.org/2000/svg">
<path d="M39.6926 188.888C27.5908 178.941 17.8441 166.436 11.1537 152.271C4.46335 138.107 0.995614 122.635 1 106.97L41.1783 106.982C41.1755 116.709 43.3289 126.316 47.4833 135.112C51.6378 143.907 57.6901 151.673 65.2048 157.849L39.6926 188.888Z" fill="#0ACADC"/>
<path d="M1.00066 107.7C0.884037 90.0215 5.19076 72.5948 13.5288 57.006L48.9575 75.9559C43.7799 85.6359 41.1056 96.4572 41.1781 107.435L1.00066 107.7Z" fill="#9267B4"/>
<path d="M13.3665 57.3107C23.0207 39.1189 37.7653 24.1334 55.7983 14.1858C73.8313 4.23809 94.3716 -0.240965 114.909 1.296L111.911 41.3622C99.1577 40.4078 86.4029 43.1892 75.2052 49.3663C64.0074 55.5434 54.8516 64.8487 48.8567 76.1451L13.3665 57.3107Z" fill="#FF7597"/>
<path d="M113.949 1.22856C127.84 2.14139 141.414 5.78114 153.897 11.94C166.381 18.0989 177.529 26.6563 186.706 37.1236L156.493 63.6097C150.795 57.1099 143.873 51.7962 136.121 47.9717C128.369 44.1473 119.94 41.8872 111.315 41.3203L113.949 1.22856Z" fill="#FABB87"/>
<path d="M186.239 36.5954C195.485 47.0015 202.591 59.1268 207.15 72.2789C211.71 85.4311 213.635 99.3525 212.814 113.248L172.706 110.88C173.215 102.251 172.02 93.6067 169.189 85.4398C166.357 77.2728 161.945 69.7435 156.204 63.2818L186.239 36.5954Z" fill="#3ADEB2"/>
<path d="M212.996 106.301C213.088 120.221 210.437 134.023 205.195 146.918C199.953 159.813 192.222 171.55 182.444 181.458L153.847 153.235C159.919 147.083 164.719 139.795 167.975 131.788C171.23 123.78 172.876 115.21 172.819 106.566L212.996 106.301Z" fill="#04899D"/>
<path d="M182.445 181.458C172.667 191.365 161.033 199.25 148.208 204.662C135.383 210.074 121.617 212.906 107.697 212.998L107.432 172.821C116.076 172.764 124.624 171.005 132.588 167.644C140.552 164.284 147.776 159.388 153.847 153.235L182.445 181.458Z" fill="#505E83"/>
<path d="M107.698 212.998C82.2917 213.166 57.6707 204.203 38.3185 187.741L64.3509 157.137C76.3679 167.359 91.6565 172.925 107.433 172.821L107.698 212.998Z" fill="#343D56"/>
</svg>
