<svg width="729" height="775" viewBox="0 0 729 775" fill="none" xmlns="http://www.w3.org/2000/svg">
<path d="M696.783 338.326C696.765 338.308 696.765 338.185 696.748 337.92C696.748 337.621 696.73 337.233 696.713 336.757C696.695 335.682 696.677 334.202 696.642 332.298C696.607 328.386 696.554 322.746 696.501 315.661L696.765 315.925C677.185 315.961 646.044 316.031 611.025 316.102C611.218 315.908 610.584 316.542 611.465 315.661V315.679V315.732V315.82V315.996V316.366V317.089V318.551C611.465 319.521 611.465 320.49 611.465 321.442C611.465 323.363 611.465 325.266 611.465 327.17C611.465 330.959 611.465 334.677 611.465 338.326L611.042 337.903C635.451 337.973 656.829 338.044 672.145 338.096C679.776 338.149 685.909 338.185 690.174 338.22C692.254 338.237 693.893 338.255 695.056 338.273C695.585 338.29 696.008 338.29 696.325 338.308C696.624 338.308 696.783 338.308 696.783 338.326C696.801 338.343 696.66 338.343 696.378 338.361C696.061 338.361 695.655 338.378 695.162 338.396C694.016 338.414 692.412 338.431 690.386 338.449C686.138 338.484 680.04 338.519 672.444 338.572C657.041 338.625 635.575 338.696 611.042 338.766H610.619V338.343C610.619 334.695 610.619 330.976 610.619 327.187C610.619 325.301 610.619 323.38 610.619 321.459C610.619 320.49 610.619 319.538 610.619 318.569V317.106V316.384V316.014V315.837V315.749V315.696V315.661V315.643C611.5 314.762 610.866 315.397 611.06 315.203C646.079 315.273 677.22 315.326 696.801 315.379H697.065V315.643C696.995 322.816 696.959 328.491 696.924 332.439C696.889 334.325 696.871 335.788 696.854 336.845C696.836 337.303 696.836 337.673 696.818 337.955C696.801 338.202 696.801 338.326 696.783 338.326Z" fill="#E0E0E0"/>
<path d="M380.82 695.67L361.398 704.006L362.702 589.01C363.319 575.245 356.975 569.376 353.538 565.464C322.343 529.987 275.781 555.718 275.375 591.706L274.212 694.472L255.337 694.26L257.223 586.718C257.364 574.611 266.775 553.585 276.274 546.06C328.794 504.467 382.529 547.452 382.018 592.905L380.82 695.67Z" fill="#F5F5F5"/>
<path d="M380.82 695.67C380.82 695.67 380.802 694.965 380.802 693.608C380.802 692.251 380.82 690.26 380.837 687.634C380.873 682.382 380.943 674.68 381.014 664.775C381.102 654.871 381.207 642.745 381.331 628.681C381.401 621.649 381.472 614.142 381.542 606.158C381.472 598.209 382.265 589.715 380.626 581.008C379.11 572.32 375.462 563.578 369.805 555.788C369.082 554.819 368.395 553.832 367.637 552.88C366.826 551.982 366.015 551.065 365.205 550.149C363.654 548.245 361.698 546.694 359.9 544.95C358.983 544.086 357.926 543.399 356.939 542.606C355.917 541.865 354.983 541.002 353.873 540.367C351.705 539.046 349.59 537.565 347.211 536.508C342.646 534.04 337.553 532.507 332.371 531.185C331.049 530.974 329.728 530.745 328.388 530.533L326.397 530.198C325.727 530.128 325.04 530.11 324.37 530.057C323.013 529.969 321.656 529.899 320.281 529.811C318.906 529.793 317.532 529.899 316.157 529.934C305.124 530.322 293.951 534.093 284.293 540.544C279.464 543.804 275.128 547.875 271.251 552.387C267.444 556.987 264.343 562.204 261.858 567.773C259.478 573.395 257.998 579.422 257.24 585.573C256.711 591.759 256.852 598.104 256.729 604.484C256.447 629.986 256.147 656.386 255.848 683.439C255.812 687.052 255.76 690.647 255.724 694.225L255.284 693.784C261.699 693.855 268.026 693.925 274.159 693.996L273.718 694.437C273.948 673.993 274.177 654.007 274.406 634.568C274.512 624.857 274.635 615.269 274.741 605.858C274.794 601.153 274.846 596.482 274.899 591.847C275.023 587.177 275.763 582.577 277.173 578.206C280.134 569.518 285.668 561.922 292.788 556.722C293.687 556.106 294.532 555.365 295.484 554.837L298.304 553.162C300.26 552.228 302.181 551.189 304.243 550.554C306.252 549.743 308.35 549.303 310.412 548.792C311.452 548.58 312.509 548.474 313.566 548.316L315.135 548.087L316.721 548.016C320.933 547.681 325.093 548.245 329.093 549.056C333.094 549.99 336.883 551.506 340.408 553.374C347.352 557.304 353.168 562.838 356.974 569.359C359.019 572.531 360.341 576.038 361.504 579.475C362.438 583 363.16 586.525 363.249 590.067C363.284 590.948 363.319 591.83 363.354 592.693C363.337 593.557 363.337 594.42 363.319 595.284C363.301 596.993 363.284 598.703 363.249 600.395C363.213 603.761 363.16 607.074 363.125 610.317C362.967 623.288 362.808 635.202 362.667 645.953C362.367 667.437 362.138 684.25 361.98 695.424L361.856 695.3C368.271 695.406 372.977 695.476 376.096 695.529C377.647 695.565 378.793 695.582 379.586 695.6C380.432 695.653 380.82 695.67 380.82 695.67C380.82 695.67 380.467 695.688 379.709 695.688C378.934 695.688 377.788 695.688 376.255 695.67C373.118 695.653 368.395 695.617 361.944 695.582H361.821V695.459C361.927 684.285 362.068 667.472 362.262 645.988C362.367 635.237 362.491 623.324 362.614 610.352C362.649 607.11 362.685 603.796 362.72 600.43C362.737 598.738 362.755 597.046 362.773 595.319C362.79 594.455 362.79 593.592 362.79 592.728C362.755 591.865 362.72 591.001 362.685 590.138C362.596 586.666 361.874 583.176 360.957 579.704C359.794 576.32 358.49 572.866 356.463 569.747C352.709 563.349 346.964 557.903 340.126 554.044C336.654 552.211 332.935 550.73 328.987 549.814C325.04 549.021 320.951 548.474 316.809 548.809L315.258 548.88L313.707 549.091C312.685 549.25 311.645 549.356 310.623 549.567C308.596 550.078 306.534 550.501 304.561 551.294C302.534 551.929 300.648 552.933 298.727 553.85L295.96 555.489C295.008 556.017 294.198 556.722 293.316 557.339C286.337 562.468 280.909 569.923 278.001 578.453C276.626 582.736 275.886 587.265 275.781 591.847C275.728 596.482 275.675 601.153 275.622 605.858C275.516 615.269 275.41 624.857 275.305 634.568C275.093 654.007 274.864 673.993 274.635 694.437V694.877H274.194C268.061 694.807 261.734 694.736 255.319 694.666H254.878V694.225C254.914 690.647 254.967 687.052 255.002 683.439C255.319 656.386 255.619 629.986 255.901 604.484C256.024 598.104 255.883 591.812 256.429 585.502C257.205 579.246 258.703 573.148 261.117 567.455C263.638 561.816 266.792 556.529 270.652 551.876C274.6 547.311 278.988 543.187 283.888 539.892C293.687 533.353 305.001 529.546 316.175 529.176C317.567 529.141 318.959 529.035 320.352 529.053L325.092 529.352C325.956 529.458 326.837 529.546 327.701 529.652L331.666 530.304C332.283 530.427 332.882 530.568 333.499 530.692C338.434 531.978 343.245 533.494 347.598 535.856C349.995 536.931 352.128 538.429 354.331 539.768C355.459 540.403 356.393 541.284 357.433 542.042C358.42 542.835 359.495 543.54 360.411 544.403C362.226 546.166 364.2 547.734 365.769 549.673C366.597 550.607 367.408 551.523 368.218 552.44C368.976 553.409 369.664 554.414 370.404 555.383C376.096 563.261 379.78 572.108 381.278 580.885C382.899 589.697 382.089 598.227 382.124 606.193C382.018 614.194 381.912 621.738 381.824 628.787C381.63 642.869 381.454 655.012 381.313 664.934C381.172 674.821 381.049 682.505 380.978 687.739C380.925 690.33 380.908 692.304 380.873 693.643C380.855 695.001 380.82 695.67 380.82 695.67Z" fill="#E0E0E0"/>
<path d="M403.643 773.709L232.161 771.771L233.8 627.13L404.665 629.069C408.313 629.104 411.239 632.1 411.186 635.749L409.688 767.788C409.67 771.083 406.956 773.745 403.643 773.709Z" fill="#E0E0E0"/>
<path d="M379.956 773.427L231.474 771.736C227.385 771.683 224.107 768.334 224.16 764.245L225.64 634.18C225.693 630.232 228.936 627.06 232.884 627.095L383.199 628.805C387.147 628.858 390.319 632.101 390.284 636.048L388.821 764.756C388.768 769.621 384.803 773.498 379.956 773.427Z" fill="#EBEBEB"/>
<path d="M330.239 687.792C330.362 676.425 321.092 667.155 309.654 667.366C298.974 667.56 290.056 676.478 289.845 687.158C289.668 696.463 295.819 704.306 304.314 706.844L290.814 734.549L325.621 735.589L315.329 706.967C323.824 704.659 330.133 697.027 330.239 687.792Z" fill="#E0E0E0"/>
<path d="M388.98 759.945C388.733 759.945 388.927 734.76 389.42 703.689C389.914 672.618 390.495 647.433 390.742 647.451C390.989 647.451 390.795 672.636 390.302 703.707C389.808 734.778 389.226 759.963 388.98 759.945Z" fill="#FAFAFA"/>
<path d="M352.251 632.841C352.251 633.087 330.08 633.334 302.745 633.387C275.393 633.44 253.24 633.281 253.24 633.035C253.24 632.788 275.393 632.541 302.745 632.488C330.098 632.453 352.251 632.612 352.251 632.841Z" fill="white"/>
<path d="M289.087 698.208C289.034 698.226 288.716 697.803 288.258 696.939C287.8 696.076 287.236 694.789 286.743 693.097C285.756 689.766 285.333 684.726 287.06 679.597C288.805 674.468 292.224 670.732 295.026 668.688C296.436 667.648 297.669 666.961 298.551 666.573C299.432 666.168 299.961 666.027 299.978 666.062C300.049 666.203 298.057 667.031 295.414 669.181C292.788 671.296 289.58 674.962 287.906 679.879C286.249 684.796 286.549 689.66 287.342 692.938C288.135 696.269 289.228 698.138 289.087 698.208Z" fill="white"/>
<path d="M296.947 707.866C296.824 708.078 295.625 707.566 294.303 706.738C292.964 705.91 291.995 705.064 292.118 704.852C292.241 704.641 293.44 705.152 294.762 705.98C296.101 706.826 297.088 707.655 296.947 707.866Z" fill="white"/>
<path d="M313.796 534.499C313.796 534.569 312.58 534.657 310.394 534.939C308.209 535.204 305.054 535.768 301.3 536.896C293.81 539.063 283.729 544.086 275.763 553.11C267.815 562.151 264.078 572.778 262.862 580.48C262.228 584.357 262.069 587.547 262.069 589.75C262.069 591.953 262.14 593.169 262.052 593.187C262.016 593.187 261.981 592.887 261.911 592.305C261.858 591.724 261.734 590.878 261.717 589.768C261.611 587.547 261.664 584.322 262.245 580.392C263.32 572.584 267.004 561.728 275.093 552.528C283.2 543.346 293.51 538.341 301.124 536.296C304.948 535.239 308.156 534.781 310.359 534.604C311.469 534.481 312.333 534.499 312.914 534.481C313.478 534.463 313.796 534.481 313.796 534.499Z" fill="white"/>
<path d="M261.135 608.784C260.888 608.784 260.747 606.422 260.8 603.532C260.853 600.624 261.117 598.28 261.346 598.298C261.593 598.298 261.734 600.659 261.681 603.567C261.628 606.44 261.382 608.784 261.135 608.784Z" fill="white"/>
<path d="M369.752 117.867H284.011V140.549H369.752V117.867Z" fill="#F5F5F5"/>
<path d="M333.499 164.447C333.482 164.429 333.482 164.306 333.464 164.042C333.464 163.742 333.446 163.354 333.429 162.879C333.411 161.803 333.394 160.323 333.358 158.42C333.323 154.507 333.27 148.867 333.217 141.783L333.482 142.047C313.901 142.082 282.76 142.153 247.741 142.223C247.935 142.029 247.3 142.664 248.181 141.783V141.8V141.818V141.871V141.959V142.135V142.505V143.228V144.691C248.181 145.66 248.181 146.629 248.181 147.581C248.181 149.502 248.181 151.405 248.181 153.309C248.181 157.098 248.181 160.817 248.181 164.465L247.758 164.042C272.168 164.112 293.546 164.183 308.861 164.236C316.492 164.288 322.625 164.324 326.89 164.359C328.97 164.377 330.609 164.394 331.772 164.412C332.301 164.429 332.724 164.429 333.041 164.447C333.341 164.429 333.499 164.429 333.499 164.447C333.517 164.465 333.376 164.465 333.094 164.482C332.777 164.482 332.371 164.5 331.878 164.518C330.732 164.535 329.129 164.553 327.102 164.57C322.854 164.606 316.756 164.641 309.161 164.694C293.757 164.747 272.291 164.817 247.758 164.888H247.335V164.465C247.335 160.817 247.335 157.098 247.335 153.309C247.335 151.423 247.335 149.502 247.335 147.581C247.335 146.612 247.335 145.66 247.335 144.691V143.228V142.505V142.135V141.959V141.871V141.818V141.8V141.783C248.217 140.901 247.582 141.536 247.776 141.342C282.795 141.413 313.937 141.465 333.517 141.518H333.781V141.783C333.711 148.956 333.676 154.631 333.64 158.578C333.605 160.464 333.587 161.927 333.57 162.984C333.552 163.443 333.552 163.813 333.535 164.095C333.517 164.341 333.517 164.447 333.499 164.447Z" fill="#E0E0E0"/>
<path d="M678.067 509.578H592.326V532.26H678.067V509.578Z" fill="#F5F5F5"/>
<path d="M641.814 556.158C641.796 556.141 641.796 556.017 641.779 555.753C641.779 555.454 641.761 555.066 641.743 554.59C641.726 553.515 641.708 552.034 641.673 550.131C641.638 546.219 641.585 540.579 641.532 533.494L641.796 533.758C622.216 533.794 591.074 533.864 556.055 533.935C556.249 533.741 555.615 534.375 556.478 533.494V533.512V533.529V533.582V533.67V533.846V534.199V534.922V536.384C556.478 537.354 556.478 538.323 556.478 539.275C556.478 541.196 556.478 543.099 556.478 545.002C556.478 548.792 556.478 552.51 556.478 556.158L556.055 555.735C580.465 555.806 601.843 555.876 617.158 555.929C624.789 555.982 630.922 556.017 635.187 556.053C637.267 556.07 638.906 556.088 640.069 556.106C640.598 556.123 641.021 556.123 641.338 556.141C641.655 556.141 641.796 556.141 641.814 556.158C641.831 556.176 641.69 556.176 641.409 556.194C641.091 556.194 640.686 556.211 640.192 556.229C639.047 556.247 637.443 556.264 635.416 556.282C631.169 556.317 625.071 556.352 617.475 556.405C602.072 556.458 580.606 556.529 556.073 556.599H555.65V556.176C555.65 552.528 555.65 548.809 555.65 545.02C555.65 543.134 555.65 541.213 555.65 539.292C555.65 538.323 555.65 537.371 555.65 536.402V534.939V534.199V533.829V533.653V533.564V533.512V533.494V533.476C556.531 532.595 555.897 533.23 556.091 533.036C591.11 533.106 622.251 533.159 641.831 533.212H642.096V533.476C642.025 540.649 641.99 546.324 641.955 550.272C641.92 552.158 641.902 553.621 641.884 554.678C641.867 555.136 641.867 555.506 641.849 555.788C641.831 556.035 641.814 556.158 641.814 556.158Z" fill="#E0E0E0"/>
<path d="M115.948 82.3367C115.931 82.3191 115.931 82.1957 115.913 81.9314C115.913 81.6318 115.896 81.2441 115.878 80.7682C115.86 79.6931 115.843 78.2127 115.807 76.3093C115.772 72.3968 115.719 66.7571 115.667 59.6723L115.931 59.9366C96.3506 59.9719 65.2089 60.0424 30.19 60.1129C30.3839 59.919 29.7494 60.5535 30.613 59.6723V59.6899V59.7075V59.7604V59.8485V60.0247V60.3948V61.1174V62.5802C30.613 63.5495 30.613 64.5189 30.613 65.4706C30.613 67.3916 30.613 69.295 30.613 71.1984C30.613 74.9875 30.613 78.7062 30.613 82.3544L30.19 81.9314C54.5993 82.0019 75.9772 82.0724 91.2925 82.1253C98.9237 82.1781 105.057 82.2134 109.322 82.2486C111.401 82.2662 113.041 82.2839 114.204 82.3015C114.732 82.3191 115.155 82.3191 115.473 82.3367C115.79 82.3191 115.931 82.3367 115.948 82.3367C115.966 82.3544 115.825 82.3544 115.543 82.372C115.226 82.372 114.821 82.3896 114.327 82.4072C113.182 82.4249 111.578 82.4425 109.551 82.4601C105.304 82.4954 99.2057 82.5306 91.6097 82.5835C76.2063 82.6364 54.7403 82.7068 30.2076 82.7773H29.7847V82.3544C29.7847 78.7062 29.7847 74.9875 29.7847 71.1984C29.7847 69.3126 29.7847 67.3916 29.7847 65.4706C29.7847 64.5012 29.7847 63.5495 29.7847 62.5802V61.1174V60.3948V60.0247V59.8485V59.7604V59.7075V59.6899V59.6723C30.6659 58.7911 30.0314 59.4255 30.2253 59.2317C65.2442 59.3022 96.3858 59.355 115.966 59.4079H116.23V59.6723C116.16 66.8452 116.125 72.5202 116.089 76.4679C116.054 78.3537 116.037 79.8165 116.019 80.8739C116.001 81.3322 116.001 81.7023 115.984 81.9843C115.966 82.231 115.948 82.3544 115.948 82.3367Z" fill="#E0E0E0"/>
<path d="M627.221 49.7677C627.204 49.75 627.204 49.6267 627.186 49.3623C627.186 49.0627 627.168 48.675 627.151 48.1991C627.133 47.1241 627.115 45.6436 627.08 43.7402C627.045 39.8277 626.992 34.188 626.939 27.1032L627.204 27.3675C607.623 27.4028 576.482 27.4733 541.463 27.5438C541.657 27.3499 541.022 27.9844 541.886 27.1032V27.1208V27.1384V27.1913V27.2794V27.4556V27.8257V28.5483V30.0111C541.886 30.9804 541.886 31.9498 541.886 32.9015C541.886 34.8225 541.886 36.7259 541.886 38.6293C541.886 42.4184 541.886 46.1371 541.886 49.7853L541.463 49.3623C565.872 49.4328 587.25 49.5033 602.565 49.5562C610.196 49.609 616.33 49.6443 620.595 49.6795C622.674 49.6972 624.313 49.7148 625.476 49.7324C626.005 49.75 626.428 49.75 626.745 49.7677C627.063 49.75 627.221 49.75 627.221 49.7677C627.239 49.7853 627.098 49.7853 626.816 49.8029C626.499 49.8029 626.093 49.8205 625.6 49.8381C624.454 49.8558 622.85 49.8734 620.824 49.891C616.576 49.9263 610.478 49.9615 602.882 50.0144C587.479 50.0673 566.013 50.1378 541.48 50.2083H541.057V49.7853C541.057 46.1371 541.057 42.4184 541.057 38.6293C541.057 36.7435 541.057 34.8225 541.057 32.9015C541.057 31.9321 541.057 30.9804 541.057 30.0111V28.5483V27.8257V27.4556V27.2794V27.1913V27.1384V27.1208V27.1032C541.939 26.222 541.304 26.8564 541.498 26.6626C576.517 26.7331 607.659 26.7859 627.239 26.8388H627.503V27.1032C627.433 34.2761 627.397 39.9511 627.362 43.8989C627.327 45.7846 627.309 47.2474 627.292 48.3049C627.274 48.7631 627.274 49.1332 627.256 49.4152C627.239 49.6443 627.239 49.7677 627.221 49.7677Z" fill="#E0E0E0"/>
<path d="M638.853 27.0855C638.835 27.0679 638.835 26.9269 638.818 26.6449C638.8 26.3277 638.8 25.9223 638.782 25.4465C638.765 24.3362 638.73 22.8205 638.712 20.8995C638.677 16.9165 638.606 11.312 638.536 4.40341L638.853 4.72065C625.512 4.75589 607.341 4.79114 587.338 4.84401C586.95 5.23174 587.867 4.31529 587.779 4.40341V4.42104V4.43866V4.49153V4.57966V4.77352V5.14362V5.88383V7.36425C587.779 8.35119 587.779 9.33814 587.779 10.3075C587.779 12.2637 587.779 14.1847 587.779 16.0881C587.779 19.8773 587.761 23.5607 587.761 27.0855L587.338 26.6625C602.213 26.7507 615.008 26.8035 624.19 26.8564C628.719 26.9093 632.35 26.9445 634.923 26.9798C636.121 26.9974 637.091 27.015 637.813 27.0326C638.483 27.0503 638.835 27.0679 638.853 27.0855C638.871 27.1031 638.553 27.1208 637.919 27.1384C637.214 27.156 636.28 27.1736 635.117 27.1913C632.561 27.2265 628.966 27.2618 624.472 27.3146C615.219 27.3675 602.318 27.438 587.338 27.5085H586.915V27.0855C586.915 23.5607 586.897 19.8773 586.897 16.0881C586.897 14.1847 586.897 12.2637 586.897 10.3075C586.897 9.33814 586.897 8.35119 586.897 7.36425V5.88383V5.14362V4.77352V4.57966V4.49153V4.43866V4.42104V4.40341C586.809 4.49153 587.726 3.57508 587.338 3.96281C607.341 4.01568 625.512 4.05093 638.853 4.08618H639.17V4.40341C639.1 11.3825 639.047 17.0751 638.994 21.0934C638.959 22.9791 638.941 24.4772 638.923 25.5699C638.888 26.5744 638.871 27.1031 638.853 27.0855Z" fill="#E0E0E0"/>
<path d="M86.1638 590.631C86.1638 590.614 86.1462 590.49 86.1462 590.226C86.1462 589.926 86.1286 589.538 86.111 589.063C86.0933 587.988 86.0757 586.507 86.0405 584.604C86.0052 580.691 85.9523 575.052 85.8995 567.967L86.1638 568.231C66.5835 568.266 35.4419 568.337 0.422973 568.407C0.616837 568.213 -0.0176248 568.848 0.845952 567.967V567.984V568.002V568.055V568.143V568.319V568.689V569.412V570.875C0.845952 571.844 0.845952 572.813 0.845952 573.765C0.845952 575.686 0.845952 577.589 0.845952 579.493C0.845952 583.282 0.845952 587.001 0.845952 590.649L0.422973 590.226C24.8322 590.296 46.2102 590.367 61.5254 590.42C69.1566 590.473 75.2898 590.508 79.5548 590.543C81.6345 590.561 83.2735 590.578 84.4367 590.596C84.9654 590.614 85.3884 590.614 85.7056 590.631C86.0052 590.614 86.1638 590.631 86.1638 590.631C86.1814 590.649 86.0405 590.649 85.7585 590.666C85.4412 590.666 85.0359 590.684 84.5424 590.702C83.3969 590.719 81.7931 590.737 79.7663 590.755C75.5189 590.79 69.421 590.825 61.8251 590.878C46.4217 590.931 24.9556 591.001 0.422973 591.072H0V590.649C0 587.001 0 583.282 0 579.493C0 577.607 0 575.686 0 573.765C0 572.796 0 571.844 0 570.875V569.412V568.689V568.319V568.143V568.055V568.002V567.984V567.967C0.881201 567.085 0.246736 567.72 0.4406 567.526C35.4595 567.597 66.6012 567.649 86.1814 567.702H86.4458V567.967C86.3753 575.14 86.3401 580.815 86.3048 584.762C86.2696 586.648 86.2519 588.111 86.2343 589.168C86.2167 589.627 86.2167 589.997 86.1991 590.279C86.1814 590.525 86.1814 590.649 86.1638 590.631Z" fill="#E0E0E0"/>
<path d="M97.7957 567.949C97.7781 567.931 97.7781 567.79 97.7605 567.526C97.7428 567.209 97.7428 566.804 97.7252 566.328C97.7076 565.217 97.6723 563.702 97.6547 561.781C97.6195 557.798 97.549 552.193 97.4785 545.285L97.7957 545.602C84.4543 545.637 66.284 545.672 46.2807 545.725C45.893 546.113 46.8094 545.196 46.7213 545.285V545.302V545.32V545.373V545.461V545.655V546.025V546.765V548.245C46.7213 549.232 46.7213 550.219 46.7213 551.189C46.7213 553.145 46.7213 555.066 46.7213 556.969C46.7213 560.758 46.7037 564.442 46.7037 567.967L46.2807 567.544C61.1554 567.632 73.9504 567.685 83.1325 567.738C87.6619 567.79 91.2925 567.826 93.8656 567.861C95.064 567.879 96.0333 567.896 96.7559 567.914C97.4256 567.914 97.7781 567.931 97.7957 567.949C97.8133 567.967 97.4961 567.984 96.8616 568.002C96.1567 568.02 95.2226 568.037 94.0594 568.055C91.5039 568.09 87.9086 568.125 83.4145 568.178C74.1619 568.231 61.2611 568.302 46.2807 568.372H45.8577V567.949C45.8577 564.424 45.8401 560.741 45.8401 556.952C45.8401 555.048 45.8401 553.127 45.8401 551.171C45.8401 550.202 45.8401 549.215 45.8401 548.228V546.747V546.007V545.637V545.443V545.355V545.302V545.285V545.267C45.752 545.355 46.6684 544.439 46.2807 544.826C66.284 544.879 84.4543 544.914 97.7957 544.95H98.1129V545.267C98.0424 552.246 97.9896 557.939 97.9367 561.957C97.9015 563.843 97.8838 565.341 97.8662 566.433C97.831 567.456 97.8133 567.984 97.7957 567.949Z" fill="#E0E0E0"/>
<path d="M356.164 404.116C356.146 404.099 356.146 403.975 356.146 403.711C356.146 403.411 356.129 403.024 356.111 402.548C356.093 401.473 356.076 399.992 356.04 398.089C356.005 394.176 355.952 388.537 355.899 381.452L356.164 381.716C336.584 381.751 305.442 381.822 270.423 381.892C270.617 381.699 269.982 382.333 270.864 381.452V381.469V381.487V381.54V381.628V381.804V382.174V382.897V384.36C270.864 385.329 270.864 386.298 270.864 387.25C270.864 389.171 270.864 391.074 270.864 392.978C270.864 396.767 270.864 400.486 270.864 404.134L270.441 403.711C294.85 403.781 316.228 403.852 331.543 403.905C339.174 403.958 345.307 403.993 349.572 404.028C351.652 404.046 353.291 404.063 354.454 404.081C354.983 404.099 355.406 404.099 355.723 404.116C356.005 404.099 356.146 404.116 356.164 404.116C356.181 404.134 356.04 404.134 355.758 404.152C355.441 404.152 355.036 404.169 354.542 404.187C353.397 404.204 351.793 404.222 349.766 404.24C345.519 404.275 339.421 404.31 331.825 404.363C316.422 404.416 294.956 404.486 270.423 404.557H270V404.134C270 400.486 270 396.767 270 392.978C270 391.092 270 389.171 270 387.25C270 386.281 270 385.329 270 384.36V382.897V382.174V381.804V381.628V381.54V381.487V381.469V381.452C270.881 380.571 270.247 381.205 270.441 381.011C305.46 381.082 336.601 381.135 356.181 381.187H356.446V381.452C356.375 388.625 356.34 394.3 356.305 398.247C356.27 400.133 356.252 401.596 356.234 402.653C356.217 403.112 356.217 403.482 356.199 403.764C356.181 404.011 356.164 404.134 356.164 404.116Z" fill="#E0E0E0"/>
<path d="M367.796 381.434C367.778 381.416 367.778 381.275 367.76 381.011C367.743 380.694 367.743 380.288 367.725 379.813C367.707 378.702 367.672 377.187 367.655 375.266C367.619 371.283 367.549 365.678 367.478 358.77L367.796 359.087C354.454 359.122 336.284 359.157 316.281 359.21C315.893 359.598 316.809 358.681 316.721 358.77V358.787V358.805V358.858V358.946V359.14V359.51V360.25V361.73C316.721 362.717 316.721 363.704 316.721 364.674C316.721 366.63 316.721 368.551 316.721 370.454C316.721 374.243 316.704 377.927 316.704 381.452L316.281 381.029C331.155 381.117 343.95 381.17 353.132 381.223C357.662 381.275 361.292 381.311 363.865 381.346C365.064 381.364 366.033 381.381 366.756 381.399C367.408 381.399 367.778 381.416 367.796 381.434C367.813 381.452 367.496 381.469 366.862 381.487C366.157 381.505 365.222 381.522 364.059 381.54C361.504 381.575 357.909 381.61 353.414 381.663C344.162 381.716 331.261 381.787 316.281 381.857H315.858V381.434C315.858 377.909 315.84 374.226 315.84 370.437C315.84 368.533 315.84 366.612 315.84 364.656C315.84 363.687 315.84 362.7 315.84 361.713V360.232V359.492V359.122V358.928V358.84V358.787V358.77V358.752C315.752 358.84 316.668 357.924 316.281 358.311C336.284 358.364 354.454 358.399 367.796 358.435H368.113V358.752C368.042 365.731 367.989 371.424 367.937 375.442C367.901 377.328 367.884 378.826 367.866 379.918C367.831 380.941 367.813 381.452 367.796 381.434Z" fill="#E0E0E0"/>
<path d="M653.833 773.692C653.833 773.938 515.027 774.15 343.827 774.15C172.574 774.15 33.7853 773.938 33.7853 773.692C33.7853 773.445 172.574 773.234 343.827 773.234C515.009 773.234 653.833 773.445 653.833 773.692Z" fill="#263238"/>
<path d="M38.6849 676.249L7.01453 719.269L60.3448 758.958C63.8167 753.636 43.8487 722.864 43.8487 722.864L65.2795 696.128L38.6849 676.249Z" fill="#455A64"/>
<path d="M29.0621 708.289C27.8284 707.796 26.2423 708.43 25.7135 709.646C25.1848 710.862 25.8017 712.484 27.0353 712.977C28.269 713.488 30.19 712.783 30.5778 711.514C30.9655 710.245 30.1372 708.395 28.8154 708.201" fill="white"/>
<path d="M6.94397 719.357L10.3102 714.739L60.1332 754.852C60.1332 754.852 61.7194 757.654 60.2037 759.117L6.94397 719.357Z" fill="#263238"/>
<path d="M44.9061 723.252C44.7122 723.499 43.3199 722.653 41.4165 722.547C39.5131 722.388 38.0151 723.023 37.8565 722.741C37.6626 722.512 39.1959 721.243 41.5046 721.419C43.7958 721.56 45.1352 723.04 44.9061 723.252Z" fill="#263238"/>
<path d="M48.7834 729.72C48.6601 730.019 47.1973 729.614 45.4877 730.072C43.7782 730.46 42.6679 731.482 42.4035 731.288C42.1215 731.147 43.0909 729.491 45.2058 728.98C47.3383 728.433 48.9597 729.473 48.7834 729.72Z" fill="#263238"/>
<path d="M46.9681 738.779C46.6862 738.655 47.303 737.087 49.0301 736.153C50.7573 735.219 52.3963 735.571 52.3435 735.871C52.3258 736.188 50.9688 736.364 49.5589 737.157C48.1489 737.897 47.2501 738.937 46.9681 738.779Z" fill="#263238"/>
<path d="M49.1182 716.608C48.8362 716.766 47.9022 715.515 46.3513 714.528C44.818 713.506 43.3199 713.136 43.3376 712.818C43.3199 712.519 45.1705 712.378 46.9681 713.576C48.7834 714.757 49.4002 716.502 49.1182 716.608Z" fill="#263238"/>
<path d="M167.622 496.237C168.591 501.63 170.089 547.505 171.059 571.703C172.028 595.901 169.614 607.815 166.847 613.225C164.08 618.636 59.7279 695.547 51.7795 713.964L25.4139 692.657C25.4139 692.657 64.1163 623.042 80.7181 610.405C97.3199 597.769 129.043 586.137 129.043 586.137L120.02 453.622L163.357 451.26L167.622 496.237Z" fill="#263238"/>
<path d="M70.6372 718.775L70.179 772.211L136.657 773.128C136.357 766.766 102.149 753.548 102.149 753.548L103.841 719.322L70.6372 718.775Z" fill="#455A64"/>
<path d="M81.617 750.375C80.3304 750.71 79.414 752.138 79.696 753.442C79.978 754.746 81.4231 755.68 82.7273 755.363C84.0315 755.046 85.1594 753.371 84.7364 752.102C84.3135 750.833 82.5511 749.829 81.3703 750.446" fill="white"/>
<path d="M70.1614 772.317L70.179 766.589L134.066 769.903C134.066 769.903 136.992 771.242 136.622 773.322L70.1614 772.317Z" fill="#263238"/>
<path d="M103.206 753.213C103.189 753.53 101.567 753.653 99.946 754.676C98.3069 755.663 97.461 757.055 97.1614 756.914C96.8618 756.843 97.3728 754.905 99.3467 753.706C101.321 752.508 103.295 752.913 103.206 753.213Z" fill="#263238"/>
<path d="M110.15 756.191C110.221 756.508 108.811 757.037 107.683 758.394C106.52 759.716 106.22 761.196 105.903 761.179C105.603 761.232 105.392 759.328 106.819 757.654C108.229 755.997 110.133 755.891 110.15 756.191Z" fill="#263238"/>
<path d="M113.992 764.598C113.693 764.668 113.27 763.029 114.133 761.267C114.979 759.487 116.513 758.817 116.654 759.082C116.83 759.346 115.843 760.298 115.155 761.76C114.415 763.206 114.31 764.563 113.992 764.598Z" fill="#263238"/>
<path d="M102.73 745.37C102.589 745.67 101.109 745.194 99.2761 745.3C97.4432 745.37 95.998 745.952 95.8394 745.67C95.6632 745.44 97.0731 744.242 99.2232 744.172C101.391 744.066 102.889 745.123 102.73 745.37Z" fill="#263238"/>
<path d="M172.416 445.779C172.416 448.916 177.474 527.872 151.655 584.956C151.655 584.956 142.719 602.827 141.151 610.634C139.582 618.459 106.114 747.925 106.114 747.925L67.5178 746.515C67.5178 746.515 61.3317 681.641 67.5883 644.102C73.8448 606.563 85.2651 610.934 85.2651 586.701C85.2651 562.468 79.5021 512.169 79.5021 512.169C79.5021 512.169 71.0778 498.422 68.2051 471.81C65.8787 450.185 76.0478 427.01 76.0478 427.01L86.1287 409.192L171.27 404.733L172.416 445.779Z" fill="#263238"/>
<path d="M172.416 445.779C172.416 445.779 172.434 444.863 172.398 443.1C172.363 441.303 172.31 438.659 172.222 435.205C172.046 428.243 171.799 417.986 171.464 404.733V404.521L171.253 404.539C150.333 405.597 121.271 407.077 86.1111 408.875L85.9172 408.892L85.8291 409.051C82.692 414.585 79.273 420.63 75.7306 426.869L75.7129 426.886V426.904C73.1751 433.037 71.1307 439.576 69.6503 446.431C68.1346 453.287 67.2886 460.513 67.5178 467.915C67.9936 475.317 69.192 482.772 70.9897 490.28C72.8578 497.77 75.2371 505.313 79.1496 512.433L79.0967 512.257C80.5595 525.405 81.899 539.028 83.0621 553.057C83.6261 560.071 84.1372 567.191 84.4721 574.399C84.6483 577.995 84.7717 581.625 84.8069 585.273C84.8774 587.106 84.7364 588.904 84.7012 590.737C84.5073 592.552 84.4192 594.385 84.0315 596.165C83.397 599.76 82.0928 603.232 80.3833 606.51C78.6738 609.806 76.7527 613.066 75.149 616.503C71.8709 623.377 69.756 630.796 68.2227 638.357C65.1561 653.514 64.5217 669.269 64.3631 685.131C64.2926 706.104 65.35 726.671 67.0772 746.586L67.1124 746.991L67.5178 747.009C80.6653 747.485 93.5484 747.961 106.114 748.401L106.484 748.419L106.573 748.066C117.746 704.694 128.197 664.158 137.379 627.712C138.507 623.147 139.618 618.653 140.728 614.23C141.292 611.991 141.662 609.771 142.349 607.656C143.019 605.523 143.812 603.444 144.623 601.399C146.279 597.311 148.06 593.345 149.875 589.486C150.333 588.516 150.791 587.564 151.249 586.613C151.725 585.679 152.184 584.709 152.554 583.722C153.347 581.766 154.14 579.845 154.915 577.924C160.996 562.538 164.591 547.611 167.111 533.988C172.046 506.653 172.698 484.411 172.927 469.254C173.033 454.027 172.416 445.779 172.416 445.779C172.416 445.779 172.398 446.29 172.434 447.313C172.451 448.335 172.504 449.85 172.557 451.807C172.663 455.772 172.733 461.641 172.627 469.219C172.31 484.376 171.552 506.6 166.547 533.864C163.992 547.452 160.379 562.345 154.281 577.66C153.505 579.563 152.712 581.484 151.919 583.423C151.549 584.41 151.108 585.344 150.615 586.296C150.157 587.247 149.699 588.217 149.223 589.168C147.39 593.046 145.592 597.011 143.918 601.117C143.09 603.179 142.296 605.277 141.609 607.427C140.904 609.594 140.516 611.85 139.952 614.036C138.842 618.459 137.732 622.954 136.586 627.518C127.228 663.929 116.812 704.465 105.656 747.837L106.114 747.502C93.5484 747.044 80.6653 746.568 67.5178 746.093L67.9584 746.516C66.2488 726.653 65.1914 706.086 65.2619 685.166C65.4381 669.34 66.055 653.619 69.1039 638.568C70.6196 631.061 72.7345 623.711 75.9597 616.926C77.5458 613.525 79.4492 610.299 81.1764 606.951C82.9212 603.62 84.2606 600.042 84.9127 596.341C85.318 594.508 85.4061 592.64 85.6 590.807C85.6353 588.957 85.7762 587.106 85.7057 585.273C85.6705 581.608 85.5471 577.977 85.3709 574.364C85.0184 567.138 84.5073 560.018 83.9433 553.004C82.7802 538.975 81.4231 525.334 79.9427 512.169L79.9251 512.081L79.8722 511.993C76.0654 505.066 73.6509 497.506 71.7828 490.104C70.0027 482.666 68.7867 475.194 68.3108 467.897C68.0817 460.583 68.8924 453.41 70.3905 446.608C71.8533 439.787 73.88 433.266 76.3826 427.204L76.365 427.239C79.8898 421 83.2913 414.937 86.4107 409.403L86.1287 409.58C121.289 407.676 150.351 406.108 171.253 404.98L171.041 404.786C171.447 418.021 171.764 428.279 171.993 435.24C172.116 438.694 172.204 441.338 172.257 443.136C172.345 444.863 172.416 445.779 172.416 445.779Z" fill="#455A64"/>
<path d="M144.729 284.061C144.729 284.061 121.729 280.008 123.95 309.493C125.272 327.152 130.471 357.36 133.343 376.658C134.33 383.337 136.516 395.286 145.345 402.301L208.616 446.097L228.584 422.216L172.081 368.392L163.199 315.168L144.729 284.061Z" fill="#455A64"/>
<path d="M147.425 177.788C154.721 183.534 158.898 193.051 158.176 202.321C157.823 206.815 156.59 211.961 159.515 215.398C162.406 218.8 168.116 218.694 170.883 222.201C174.161 226.325 171.411 232.458 172.592 237.587C173.685 242.398 178.778 245.958 183.678 245.324C177.932 250.012 170.865 253.078 163.516 254.065C161.63 251.651 159.762 249.236 157.876 246.822C160.009 249.36 159.445 253.395 157.383 255.986C155.321 258.577 152.113 259.987 148.958 260.991C133.855 265.785 116.548 262.965 103.753 253.642" fill="#263238"/>
<path d="M62.7768 217.566C63.9047 214.112 65.7905 210.922 66.5484 207.362C68.1874 199.73 64.4687 191.147 68.1698 184.274C70.8134 179.392 76.4178 176.995 81.7226 175.356C87.0275 173.717 92.72 172.343 96.6854 168.448C99.5934 165.593 101.232 161.663 104.14 158.79C108.264 154.701 114.345 153.326 120.143 152.956C126.1 152.586 132.251 153.168 137.591 155.794C142.948 158.42 147.39 163.354 148.341 169.241C148.8 172.114 148.447 175.11 149.364 177.877C150.351 180.908 152.747 183.27 154.21 186.107C157.312 192.099 155.638 200.171 150.386 204.436L109.533 257.202C100.95 260.445 80.1541 256.515 73.5275 250.188C66.9008 243.843 59.9393 226.29 62.7768 217.566Z" fill="#263238"/>
<path d="M149.328 197.739C147.637 185.755 138.525 171.602 126.629 173.788L89.9002 186.142C86.2873 186.812 88.878 192.698 89.2305 196.364L97.2142 279.197C97.1613 279.215 92.2618 282.74 90.4818 282.052C90.0236 281.876 89.6182 282.387 89.8826 282.792C94.2886 289.19 115.12 317.195 136.569 308.647C141.362 306.743 136.075 291.64 136.621 286.035L135.987 271.742C135.511 264.446 135.282 261.45 135.3 261.52C135.3 261.52 150.492 257.784 152.131 237.481C152.959 227.365 151.197 211.045 149.328 197.739Z" fill="#FFBF9D"/>
<path d="M146.773 216.174C146.932 217.531 145.909 218.782 144.499 218.958C143.09 219.134 141.821 218.2 141.662 216.843C141.503 215.486 142.526 214.235 143.935 214.059C145.345 213.865 146.614 214.817 146.773 216.174Z" fill="#263238"/>
<path d="M121.747 217.742C121.906 219.099 120.883 220.35 119.473 220.527C118.064 220.703 116.795 219.769 116.636 218.412C116.477 217.055 117.5 215.803 118.909 215.627C120.337 215.433 121.606 216.385 121.747 217.742Z" fill="#263238"/>
<path d="M147.689 207.679C147.407 208.155 145.01 206.639 142.014 207.08C139.018 207.467 137.097 209.565 136.709 209.194C136.516 209.036 136.745 208.207 137.591 207.273C138.401 206.339 139.899 205.317 141.768 205.053C143.636 204.806 145.328 205.37 146.367 206.057C147.39 206.745 147.83 207.467 147.689 207.679Z" fill="#263238"/>
<path d="M120.76 209.899C120.407 210.34 118.046 208.631 114.821 208.754C111.595 208.842 109.304 210.71 108.934 210.305C108.758 210.129 109.093 209.353 110.097 208.507C111.067 207.661 112.776 206.815 114.785 206.745C116.795 206.674 118.522 207.397 119.526 208.172C120.566 208.965 120.936 209.706 120.76 209.899Z" fill="#263238"/>
<path d="M130.876 228.898C130.859 228.74 132.55 228.317 135.317 227.735C136.022 227.612 136.674 227.418 136.763 226.924C136.886 226.396 136.534 225.655 136.128 224.862C135.335 223.206 134.507 221.461 133.626 219.646C130.136 212.208 127.545 206.057 127.845 205.916C128.144 205.775 131.229 211.697 134.718 219.134C135.564 220.967 136.375 222.73 137.133 224.404C137.468 225.179 137.996 226.061 137.714 227.153C137.573 227.7 137.08 228.123 136.639 228.281C136.199 228.458 135.793 228.493 135.458 228.546C132.639 228.898 130.894 229.039 130.876 228.898Z" fill="#263238"/>
<path d="M135.3 261.52C135.3 261.52 121.87 263.424 107.877 256.409C107.877 256.409 115.719 269.98 135.652 266.561L135.3 261.52Z" fill="#FF9A6C"/>
<path d="M122.434 236.97C122.804 236.336 123.21 235.648 123.862 235.278C124.567 234.873 125.448 234.89 126.259 235.031C127.439 235.243 128.585 235.754 129.396 236.635C130.206 237.516 130.594 238.82 130.189 239.948C129.872 241.112 128.144 241.746 126.964 241.94C125.783 242.151 124.549 241.799 123.509 241.217C122.628 240.724 121.782 239.931 121.747 238.926C121.712 238.239 122.064 237.587 122.434 236.97Z" fill="#FF9A6C"/>
<path d="M122.998 233.075C123.439 233.022 123.685 236.018 126.417 237.957C129.149 239.896 132.321 239.314 132.392 239.737C132.444 239.931 131.722 240.371 130.365 240.512C129.043 240.653 127.069 240.389 125.395 239.191C123.721 238.01 122.91 236.3 122.716 235.084C122.505 233.85 122.787 233.075 122.998 233.075Z" fill="#263238"/>
<path d="M120.531 199.078C120.319 199.854 117.517 199.713 114.309 200.347C111.084 200.929 108.529 202.074 108.053 201.44C107.841 201.14 108.247 200.382 109.234 199.572C110.221 198.761 111.842 197.95 113.781 197.58C115.719 197.21 117.517 197.386 118.751 197.774C119.967 198.162 120.619 198.708 120.531 199.078Z" fill="#263238"/>
<path d="M145.98 197.545C145.469 198.215 143.248 197.739 140.622 197.897C137.996 197.986 135.811 198.691 135.247 198.074C135 197.774 135.3 197.122 136.216 196.452C137.133 195.783 138.684 195.183 140.499 195.095C142.296 195.007 143.9 195.465 144.87 196.029C145.856 196.593 146.209 197.228 145.98 197.545Z" fill="#263238"/>
<path d="M81.7756 189.015C83.6261 186.16 86.9571 184.697 90.1294 183.463C103.806 178.176 118.134 174.528 132.674 172.625C134.489 175.603 132.815 179.674 130.083 181.842C127.351 184.01 123.844 184.873 120.566 186.089C117.288 187.305 113.939 189.191 112.6 192.416C111.172 195.835 112.371 199.907 111.12 203.396C108.952 209.406 100.563 211.345 98.4303 217.372C96.8265 221.937 99.4525 226.783 100.122 231.559C100.862 236.988 98.8533 242.715 94.8879 246.487C91.7508 249.465 87.4682 251.122 83.1679 251.21C82.181 233.956 81.1764 216.72 80.1895 199.466C79.9604 195.906 79.8194 192.029 81.7756 189.015Z" fill="#263238"/>
<path d="M47.0211 232.599C49.7528 230.149 53.1542 228.052 54.2469 224.545C55.8331 219.452 51.7443 213.477 54.3703 208.842C56.7671 204.612 63.8344 204.824 66.0726 200.506C67.8174 197.14 65.8083 194.144 66.478 191.183C67.1477 188.222 71.3422 185.631 74.3559 185.984L97.9192 220.121C100.105 231.577 102.308 237.675 99.8402 244.372C98.4832 248.055 96.7384 251.633 96.2097 255.51C95.681 259.388 96.6679 263.776 99.8402 266.085C85.7586 267.195 72.5583 259.811 60.3624 252.691C56.0622 250.17 51.7619 247.668 47.444 245.147C46.1046 244.354 44.6947 243.526 43.9016 242.187C42.0158 239.067 44.307 235.031 47.0211 232.599Z" fill="#263238"/>
<path d="M60.0099 249.236C60.0099 249.236 60.5034 249.43 61.5079 249.518C62.5125 249.624 64.0282 249.659 65.8963 249.201C67.7468 248.743 70.0027 247.809 72.0119 245.905C74.021 244.037 75.6424 241.129 76.0478 237.675C76.2416 235.948 76.1182 234.097 75.5895 232.264C75.0432 230.431 74.021 228.722 72.9812 227.03C71.9413 225.338 70.8134 223.593 70.2847 221.602C69.7736 219.646 69.756 217.319 71.0425 215.627C72.3291 213.918 74.7083 213.495 76.9113 212.596C78.0216 212.155 79.1672 211.468 79.9074 210.375C80.6476 209.283 80.8944 207.943 80.8767 206.674C80.8415 204.101 79.7488 201.739 79.2729 199.343C79.0262 198.144 78.9381 196.893 79.2553 195.747C79.5549 194.602 80.2775 193.58 81.2821 192.892C83.3088 191.447 85.9172 191.2 88.4022 190.989C90.9224 190.813 93.5484 190.249 95.6633 188.856C97.8134 187.535 99.5229 185.631 100.633 183.463C101.726 181.278 102.114 178.934 102.466 176.713C102.801 174.493 103.118 172.325 103.841 170.386C104.581 168.448 105.762 166.756 107.154 165.399C109.992 162.702 113.587 161.257 116.9 160.993C120.231 160.711 123.262 161.592 125.624 162.808C128.003 164.024 129.783 165.557 131.052 166.932C133.59 169.752 134.295 171.796 134.401 171.743C134.419 171.743 134.366 171.62 134.26 171.373C134.154 171.144 134.013 170.774 133.766 170.333C133.308 169.435 132.533 168.166 131.264 166.721C130.012 165.275 128.232 163.689 125.818 162.403C123.421 161.116 120.319 160.164 116.83 160.411C113.393 160.658 109.657 162.103 106.661 164.905C105.198 166.333 103.929 168.095 103.153 170.14C102.36 172.184 102.043 174.405 101.708 176.608C101.356 178.811 100.95 181.084 99.9283 183.129C98.8885 185.155 97.2671 186.935 95.2403 188.187C93.2312 189.491 90.8343 190.002 88.3317 190.196C85.8643 190.425 83.0797 190.636 80.8062 192.24C79.6783 193.016 78.7971 194.214 78.4622 195.553C78.1098 196.893 78.2155 198.25 78.4799 199.519C78.991 202.057 80.066 204.348 80.0837 206.709C80.1013 207.873 79.8722 209.036 79.2553 209.935C78.6385 210.851 77.6692 211.45 76.6117 211.891C75.5543 212.332 74.4263 212.631 73.3337 213.107C72.241 213.548 71.1659 214.2 70.4433 215.187C68.9629 217.178 69.0334 219.734 69.5974 221.796C70.179 223.946 71.3774 225.708 72.4172 227.4C73.4746 229.092 74.4792 230.731 75.0079 232.458C75.5367 234.185 75.66 235.965 75.5014 237.622C75.1665 240.953 73.6333 243.755 71.7299 245.588C69.8265 247.439 67.6587 248.408 65.8434 248.901C62.1424 249.853 60.0099 249.095 60.0099 249.236Z" fill="#455A64"/>
<path d="M41.2227 224.968C41.2227 224.968 40.9407 225.32 40.7645 226.114C40.5883 226.907 40.6059 228.211 41.3637 229.603C41.7514 230.273 42.333 230.978 43.1614 231.489C43.9897 232 45.0295 232.317 46.1751 232.282C48.4133 232.3 51.0569 230.96 52.3435 228.369C52.9956 227.101 53.348 225.62 53.348 224.069C53.348 222.518 52.9427 220.932 52.3611 219.416C51.2508 216.367 49.2064 213.407 49.1712 209.829C49.1359 208.102 49.5413 206.234 50.8102 204.982C52.0615 203.713 54.0001 203.396 55.9211 203.379C57.8598 203.308 59.9571 203.555 62.0191 202.744C63.0236 202.339 63.9401 201.581 64.5217 200.629C65.1209 199.678 65.4205 198.602 65.5439 197.527C65.8082 195.324 65.2971 193.245 65.0328 191.271C64.7155 189.279 64.8389 187.323 65.35 185.473C66.3898 181.772 68.8748 178.652 71.9061 176.872C74.9551 175.039 78.4975 174.828 81.6698 174.634C84.8774 174.458 87.9616 174.264 90.5876 173.224C93.2136 172.255 95.3108 170.774 96.897 169.258C98.5008 167.743 99.5935 166.157 100.351 164.817C101.849 162.086 102.026 160.341 102.026 160.341C101.92 160.305 101.62 162.015 100.069 164.659C99.2762 165.963 98.1835 167.478 96.5798 168.924C94.9936 170.369 92.9316 171.779 90.3761 172.678C87.8382 173.647 84.8422 173.805 81.617 173.946C78.4446 174.105 74.7789 174.264 71.5008 176.202C68.2756 178.07 65.6672 181.331 64.5569 185.243C64.0106 187.182 63.8696 189.332 64.2044 191.377C64.4688 193.421 64.9447 195.448 64.7155 197.439C64.5217 199.431 63.4819 201.317 61.6842 202.004C59.9042 202.726 57.8598 202.533 55.8859 202.586C53.9296 202.603 51.709 202.92 50.2286 204.436C48.7482 205.916 48.3428 208.014 48.3957 209.847C48.4309 211.732 48.9949 213.512 49.6823 215.099C50.3696 216.702 51.1274 218.183 51.709 219.663C52.2906 221.144 52.6783 222.624 52.696 224.069C52.7136 225.514 52.3964 226.907 51.8148 228.087C50.6516 230.502 48.2547 231.789 46.1575 231.806C45.1 231.841 44.1307 231.577 43.3552 231.136C42.5798 230.678 42.0158 230.044 41.6281 229.409C40.8702 228.123 40.7821 226.871 40.9055 226.114C41.0465 225.356 41.2756 224.986 41.2227 224.968Z" fill="#263238"/>
<path d="M189.67 233.375C189.546 233.357 190.428 234.732 189.617 237.058C189.212 238.151 188.295 239.49 186.691 240.019C185.123 240.548 182.955 240.142 181.527 238.609C180.805 237.851 180.382 236.811 180.311 235.666C180.241 234.52 180.47 233.304 180.858 232.106C181.598 229.726 183.131 227.118 182.902 224.016C182.726 221.003 181.21 217.918 178.619 215.874C177.333 214.852 175.835 214.059 174.231 213.565C172.61 213.036 170.883 212.931 169.208 212.843C167.534 212.754 165.877 212.719 164.344 212.331C162.811 211.961 161.436 211.186 160.555 209.97C159.674 208.771 159.286 207.273 159.18 205.811C159.074 204.33 159.251 202.885 159.55 201.475C160.132 198.655 160.978 195.924 160.819 193.227C160.678 190.548 159.656 188.169 158.299 186.389C156.942 184.556 155.18 183.446 153.717 182.512C152.236 181.578 150.967 180.785 150.051 179.974C148.165 178.388 147.848 176.942 147.742 177.013C147.725 177.013 147.742 177.101 147.795 177.26C147.848 177.418 147.918 177.665 148.077 177.947C148.359 178.546 148.905 179.375 149.822 180.221C150.738 181.084 151.99 181.948 153.452 182.899C154.898 183.869 156.572 184.979 157.823 186.741C159.092 188.469 160.026 190.742 160.132 193.262C160.255 195.8 159.427 198.444 158.81 201.316C158.51 202.744 158.299 204.295 158.405 205.863C158.51 207.432 158.916 209.071 159.903 210.446C160.907 211.838 162.494 212.719 164.15 213.125C165.807 213.53 167.499 213.565 169.173 213.653C170.847 213.741 172.469 213.847 173.984 214.341C175.5 214.799 176.91 215.539 178.108 216.491C180.523 218.394 181.968 221.249 182.144 224.051C182.391 226.889 180.981 229.392 180.206 231.894C179.818 233.163 179.589 234.45 179.677 235.719C179.765 236.97 180.276 238.186 181.104 239.014C182.743 240.706 185.123 241.094 186.85 240.459C188.612 239.807 189.546 238.345 189.934 237.164C190.339 235.948 190.234 234.925 190.075 234.291C189.881 233.657 189.67 233.375 189.67 233.375Z" fill="#263238"/>
<path d="M172.821 371.424V351.914C175.007 340.987 173.967 328.016 168.891 318.005C165.93 312.172 159.127 302.884 156.66 299.412L137.238 274.245C126.558 282.017 109.851 276.395 95.5046 271.178C95.5046 271.178 81.3349 279.021 74.7435 286.388C67.8172 294.142 91.5039 391.162 91.5039 391.162C80.7709 412.628 66.936 431.645 64.8212 451.26L176.91 455.578L172.151 404.187L172.821 371.424Z" fill="#455A64"/>
<path d="M171.27 404.733C171.2 404.733 171.182 403.94 171.182 402.53C171.2 400.926 171.218 398.935 171.253 396.555C171.341 391.321 171.447 384.448 171.57 376.852C171.711 369.15 171.923 362.189 172.169 357.148C172.293 354.628 172.416 352.583 172.522 351.174C172.645 349.764 172.733 348.988 172.786 348.988C172.857 348.988 172.874 349.781 172.874 351.191C172.857 352.795 172.839 354.786 172.804 357.166C172.716 362.4 172.61 369.273 172.487 376.869C172.346 384.571 172.134 391.533 171.887 396.573C171.764 399.093 171.641 401.138 171.535 402.548C171.429 403.957 171.341 404.733 171.27 404.733Z" fill="#263238"/>
<path d="M222.468 422.463C222.468 422.463 233.377 423.062 240.163 427.292C246.93 431.539 257.804 438.113 262.281 446.273C264.343 450.027 258.474 450.82 255.566 448.634C252.676 446.449 248.234 442.36 246.031 441.849C243.828 441.338 243.828 441.338 243.828 441.338C243.828 441.338 248.252 451.19 250.543 454.644C252.834 458.098 254.808 464.02 247.97 464.302C247.97 464.302 243.353 470.294 238.7 465.853C238.7 465.853 235.069 471.281 229.218 463.756C229.218 463.756 225.817 468.074 224.389 466.417C222.962 464.778 218.309 462.152 216.952 456.759C215.595 451.366 209.885 438.272 209.885 438.272L222.468 422.463Z" fill="#FFBF9D"/>
<path d="M467.107 271.002C468.323 271.02 518.375 265.75 518.375 265.75C518.375 265.75 522.605 245.394 522.394 240.107C522.165 234.82 518.605 199.836 518.605 199.836L537.339 190.971C537.339 190.971 562.383 275.426 556.902 282.458C551.42 289.49 541.163 295.746 540.282 295.781C539.401 295.817 491.798 316.913 458.683 305.95C425.55 295.006 467.107 271.002 467.107 271.002Z" fill="#FFBF9D"/>
<path d="M423.259 316.595C430.626 323.909 443.315 329.972 464.481 324.702C506.374 314.251 537.744 305.386 550.24 298.619C562.717 291.834 557.853 261.996 558.911 260.639C562.083 256.55 558.611 247.774 554.099 246.399C541.287 242.522 518.992 244.055 517.864 245.218C511.291 252.127 517.283 260.516 517.283 260.516L462.067 267.742C462.067 267.742 452.462 267.089 441.782 269.046" fill="#455A64"/>
<path d="M441.782 269.046C441.782 269.046 442.222 268.922 443.103 268.764C443.985 268.587 445.289 268.376 447.016 268.165C450.453 267.742 455.546 267.266 462.084 267.53H462.049C475.232 265.768 494.283 263.212 517.248 260.128L516.983 260.745C515.274 258.136 514.199 254.982 514.445 251.668C514.569 250.029 515.15 248.39 516.032 246.98C516.437 246.24 517.019 245.623 517.547 244.971C517.723 244.83 518.041 244.654 518.27 244.584L518.904 244.425C519.327 244.319 519.733 244.284 520.156 244.196C526.782 243.35 533.656 243.315 540.74 243.755C544.283 244.002 547.878 244.425 551.456 245.236C552.355 245.447 553.236 245.694 554.135 245.923C555.069 246.223 555.95 246.734 556.655 247.403C558.1 248.708 559.069 250.417 559.774 252.197C560.444 253.995 560.761 255.969 560.497 257.943C560.303 258.912 560.021 259.916 559.387 260.745C559.228 260.921 559.246 261.397 559.228 261.855L559.246 263.265C559.387 267.054 559.545 270.914 559.457 274.809C559.299 280.343 558.805 285.93 556.831 291.058C555.844 293.596 554.399 296.063 552.231 297.808C551.174 298.725 549.923 299.289 548.759 299.888C547.579 300.505 546.362 300.998 545.164 301.544C540.353 303.606 535.488 305.298 530.73 306.867C525.954 308.453 521.248 309.881 516.648 311.22C498.231 316.578 481.471 320.79 467.407 324.297C463.9 325.196 460.498 325.936 457.255 326.412C453.995 326.8 450.911 327.064 448.003 326.905C442.205 326.747 437.287 325.407 433.569 323.768C429.832 322.112 427.277 320.208 425.638 318.834C423.999 317.459 423.276 316.595 423.276 316.595C423.329 316.542 424.087 317.371 425.761 318.693C427.418 320.014 430.009 321.847 433.71 323.451C437.411 325.02 442.275 326.289 448.003 326.394C450.876 326.535 453.924 326.236 457.15 325.83C460.375 325.337 463.706 324.597 467.231 323.663C481.277 320.085 498.002 315.802 516.384 310.409C520.984 309.052 525.672 307.607 530.43 306.021C535.189 304.435 540.018 302.743 544.794 300.698C545.975 300.152 547.191 299.676 548.336 299.059C549.517 298.46 550.698 297.931 551.65 297.086C553.641 295.482 555.016 293.155 555.968 290.706C557.871 285.753 558.364 280.237 558.523 274.756C558.629 270.896 558.453 267.072 558.312 263.265L558.294 261.82C558.294 261.573 558.312 261.326 558.329 261.062C558.364 260.921 558.347 260.815 558.4 260.621C558.435 260.516 558.488 260.41 558.541 260.322L558.629 260.181C559.158 259.494 559.404 258.63 559.581 257.766C559.81 256.004 559.528 254.171 558.893 252.479C558.241 250.805 557.325 249.219 556.02 248.038C555.386 247.439 554.646 247.016 553.835 246.751C552.954 246.522 552.09 246.275 551.227 246.064C547.72 245.271 544.159 244.848 540.652 244.584C533.638 244.125 526.747 244.143 520.244 244.971C519.856 245.042 519.433 245.077 519.063 245.183L518.499 245.324C518.34 245.394 518.27 245.394 518.129 245.482C517.635 246.099 517.071 246.663 516.701 247.351C515.873 248.672 515.344 250.153 515.221 251.686C514.974 254.735 516.014 257.784 517.582 260.234L517.935 260.762L517.318 260.833C494.336 263.776 475.267 266.208 462.067 267.9H462.049H462.032C455.564 267.565 450.453 267.971 447.016 268.323C445.289 268.499 443.985 268.676 443.103 268.817C442.24 269.01 441.782 269.046 441.782 269.046Z" fill="#263238"/>
<path d="M723.907 57.5047L725.828 60.9766C731.503 71.1633 727.837 84.0112 717.65 89.6685L292.277 326.465L269.824 286.123L695.215 49.3271C705.401 43.6698 718.249 47.3356 723.907 57.5047Z" fill="#00A884"/>
<path d="M627.68 2.02423L679.776 95.6077L648.987 112.756L596.891 19.1724C595.833 17.269 596.52 14.8721 598.424 13.8147L622.322 0.508559C624.225 -0.566506 626.622 0.120832 627.68 2.02423Z" fill="#00A884"/>
<path d="M577.292 52.0411L615.255 120.228C616.788 122.995 615.801 126.467 613.034 128.001L592.238 139.58C589.471 141.113 585.999 140.126 584.465 137.359L546.503 69.1717C544.97 66.4047 545.957 62.9328 548.724 61.3995L569.52 49.8205C572.287 48.2872 575.759 49.2918 577.292 52.0411Z" fill="#00A884"/>
<path d="M580.001 65.1545L603.506 107.381L651.338 80.7554L627.833 38.5289L580.001 65.1545Z" fill="#00A884"/>
<path d="M688.958 52.8166C689.082 53.0458 605.596 99.7494 502.531 157.116C399.413 214.517 315.752 260.851 315.629 260.621C315.505 260.392 398.973 213.706 502.073 156.305C605.156 98.9387 688.835 52.5875 688.958 52.8166Z" fill="#263238"/>
<path d="M120.002 404.504C151.355 460.83 217.498 483.83 267.744 455.878C317.99 427.926 333.288 359.58 301.935 303.236C270.582 246.892 204.439 223.911 154.193 251.862C103.964 279.832 88.649 348.178 120.002 404.504ZM274.723 318.393C296.701 357.871 285.967 405.755 250.772 425.353C215.56 444.951 169.208 428.825 147.249 389.365C125.272 349.887 136.005 302.003 171.2 282.405C206.395 262.789 252.746 278.915 274.723 318.393Z" fill="#00A884"/>
<path d="M363.337 233.463L386.548 275.161C389.632 280.713 387.64 287.692 382.106 290.776L380.221 291.834C374.669 294.918 367.69 292.926 364.606 287.392L341.395 245.694C338.311 240.142 340.302 233.163 345.836 230.079L347.722 229.022C353.273 225.937 360.253 227.929 363.337 233.463Z" fill="#00A884"/>
<path d="M407.926 208.648L431.136 250.347C434.221 255.898 432.229 262.877 426.695 265.962L424.809 267.019C419.258 270.103 412.279 268.112 409.194 262.578L385.984 220.879C382.899 215.328 384.891 208.349 390.425 205.264L392.311 204.207C397.845 201.105 404.841 203.097 407.926 208.648Z" fill="#00A884"/>
<path d="M362.861 232.74C363.09 232.617 368.465 242.081 374.898 253.871C381.331 265.662 386.354 275.32 386.125 275.443C385.895 275.567 380.52 266.102 374.087 254.312C367.672 242.522 362.632 232.864 362.861 232.74Z" fill="#263238"/>
<path d="M342.4 247.368C342.629 247.245 347.881 256.268 354.137 267.53C360.411 278.792 365.311 288.009 365.082 288.133C364.853 288.256 359.601 279.232 353.327 267.971C347.088 256.727 342.188 247.492 342.4 247.368Z" fill="#263238"/>
<path d="M407.714 208.278C407.943 208.155 413.407 217.584 419.945 229.321C426.484 241.059 431.595 250.681 431.383 250.805C431.154 250.928 425.691 241.517 419.152 229.762C412.614 218.006 407.503 208.401 407.714 208.278Z" fill="#263238"/>
<path d="M386.195 221.267C386.424 221.144 391.782 230.502 398.179 242.169C404.577 253.836 409.582 263.388 409.353 263.512C409.124 263.635 403.766 254.277 397.369 242.61C390.971 230.943 385.966 221.39 386.195 221.267Z" fill="#263238"/>
<path d="M514.022 157.697C518.076 158.173 522.235 155.195 523.116 151.212C523.997 147.228 521.46 142.787 517.582 141.501C520.103 138.928 520.755 134.68 519.098 131.473C517.441 128.265 513.617 126.326 510.057 126.873C509.916 123.313 507.801 119.894 504.664 118.184C501.527 116.475 497.509 116.545 494.442 118.343C490.512 114.959 484.167 114.818 480.078 118.025C476.624 117.373 472.835 119.224 471.214 122.343C469.574 125.463 470.227 129.622 472.747 132.089" fill="#263238"/>
<path d="M478.263 126.256H480.096C498.513 126.309 513.811 140.496 515.221 158.86C516.543 175.938 517.794 194.831 517.653 203.978C517.353 222.941 498.39 225.832 498.39 225.832L499.923 248.619L453.889 247.051L450.065 164.394C448.426 144.726 458.524 127.349 478.263 126.256Z" fill="#FFBF9D"/>
<path d="M498.548 225.832C498.548 225.832 486.441 226.519 473.716 218.482C473.716 218.482 479.814 232.846 498.742 231.189L498.548 225.832Z" fill="#FF9A6C"/>
<path d="M504.823 176.696C504.876 178.123 503.695 179.339 502.197 179.428C500.699 179.498 499.465 178.405 499.412 176.978C499.359 175.55 500.54 174.334 502.02 174.246C503.519 174.158 504.77 175.251 504.823 176.696Z" fill="#263238"/>
<path d="M511.132 168.13C510.797 168.483 508.753 166.95 505.827 166.95C502.919 166.914 500.769 168.395 500.452 168.042C500.293 167.884 500.646 167.249 501.58 166.58C502.496 165.91 504.065 165.258 505.88 165.275C507.695 165.293 509.228 165.963 510.092 166.65C510.991 167.337 511.29 167.989 511.132 168.13Z" fill="#263238"/>
<path d="M478.527 175.427C478.58 176.854 477.399 178.07 475.901 178.159C474.403 178.229 473.17 177.136 473.117 175.709C473.064 174.281 474.245 173.065 475.743 172.977C477.223 172.907 478.474 173.999 478.527 175.427Z" fill="#263238"/>
<path d="M482.475 168.589C482.14 168.941 480.096 167.408 477.17 167.408C474.262 167.373 472.112 168.853 471.795 168.501C471.636 168.342 471.989 167.708 472.923 167.038C473.839 166.368 475.408 165.716 477.223 165.734C479.039 165.751 480.572 166.421 481.435 167.108C482.334 167.796 482.634 168.43 482.475 168.589Z" fill="#263238"/>
<path d="M492.979 190.249C492.962 190.09 494.777 189.773 497.72 189.403C498.46 189.332 499.165 189.191 499.289 188.68C499.465 188.151 499.165 187.341 498.795 186.477C498.108 184.679 497.368 182.776 496.61 180.802C493.578 172.73 491.393 166.086 491.71 165.963C492.045 165.839 494.759 172.29 497.791 180.379C498.513 182.371 499.218 184.274 499.888 186.089C500.17 186.935 500.646 187.905 500.258 189.015C500.064 189.579 499.5 189.967 499.024 190.108C498.548 190.249 498.125 190.266 497.755 190.284C494.83 190.407 492.997 190.407 492.979 190.249Z" fill="#263238"/>
<path d="M485.031 157.38C484.643 158.12 482.141 157.309 479.074 157.204C476.008 157.027 473.417 157.591 473.135 156.834C473.011 156.463 473.558 155.811 474.668 155.212C475.761 154.631 477.435 154.172 479.286 154.26C481.136 154.349 482.722 154.948 483.727 155.635C484.749 156.322 485.207 157.045 485.031 157.38Z" fill="#263238"/>
<path d="M511.308 156.128C510.691 156.781 508.294 156.093 505.404 156.058C502.514 155.935 500.064 156.481 499.5 155.794C499.253 155.459 499.641 154.789 500.716 154.172C501.774 153.555 503.536 153.044 505.527 153.097C507.519 153.15 509.229 153.767 510.233 154.437C511.238 155.124 511.572 155.794 511.308 156.128Z" fill="#263238"/>
<path d="M513.441 150.172C513.441 150.172 508.471 138.275 502.76 135.491C495.834 132.107 492.821 139.721 486.229 137.852C479.62 135.984 473.011 132.741 466.243 137.835C458.841 143.404 462.278 147.334 461.802 155.758C459.846 189.879 453.589 199.501 451.862 183.428C451.668 181.666 446.787 180.256 446.082 172.818C445.165 163.161 444.83 151.458 447.016 144.62C448.849 138.857 452.144 134.874 458.066 130.503C467.407 123.595 480.184 123.489 488.873 124.388C497.544 125.251 514.269 135.297 513.441 150.172Z" fill="#263238"/>
<path d="M453.061 182.899C452.955 179.974 450.435 177.647 447.509 177.929C443.967 178.247 440.037 180.256 440.248 187.57C440.618 200.541 453.572 197.492 453.572 197.122C453.59 196.84 453.272 188.328 453.061 182.899Z" fill="#FFBF9D"/>
<path d="M450.611 192.293C450.558 192.258 450.382 192.452 450.012 192.646C449.642 192.822 449.007 192.963 448.32 192.734C446.928 192.275 445.712 190.125 445.588 187.799C445.518 186.618 445.729 185.49 446.135 184.539C446.505 183.587 447.104 182.899 447.791 182.758C448.479 182.582 448.972 182.97 449.148 183.34C449.325 183.693 449.254 183.957 449.325 183.975C449.36 184.01 449.589 183.745 449.483 183.217C449.43 182.952 449.254 182.653 448.955 182.424C448.637 182.177 448.179 182.071 447.703 182.124C446.699 182.23 445.835 183.164 445.395 184.204C444.901 185.243 444.637 186.512 444.707 187.834C444.866 190.443 446.276 192.857 448.162 193.333C449.078 193.544 449.836 193.245 450.224 192.928C450.611 192.61 450.664 192.311 450.611 192.293Z" fill="#FF9A6C"/>
<path d="M453.396 157.768C455.07 158.913 456.85 160.112 458.877 160.323C460.904 160.535 463.23 159.371 463.582 157.362C463.741 156.463 463.53 155.406 464.111 154.719C464.816 153.89 466.12 154.155 467.213 154.278C470.985 154.683 475.39 150.542 476.377 146.876C477.329 148.321 479.444 148.762 480.889 147.828C482.352 146.894 482.881 146.365 484.026 145.061C485.172 143.757 486.776 142.593 488.485 142.84C489.437 142.981 490.336 143.545 491.305 143.475C493.014 143.334 493.843 141.342 494.107 139.65C494.372 137.958 494.583 135.984 496.028 135.068C497.368 134.222 499.095 134.715 500.663 134.962C502.232 135.191 504.259 134.839 504.664 133.306C504.875 132.495 504.541 131.649 504.082 130.944C502.073 127.754 497.667 126.326 494.178 127.736C492.926 123.454 488.926 120.105 484.484 119.612C480.043 119.136 475.426 121.533 473.276 125.463C470.544 122.96 466.561 121.92 462.948 122.731C459.335 123.542 456.198 126.203 454.788 129.622C451.633 128.776 448.038 129.992 446.029 132.565C444.02 135.138 443.72 138.928 445.306 141.783C442.98 143.104 440.971 145.413 440.918 148.11C440.865 150.789 443.473 153.467 446.064 152.78C445.007 154.86 445.853 157.697 447.879 158.878C449.906 160.059 452.779 159.371 454.083 157.433" fill="#263238"/>
<path d="M495.129 131.543C495.147 131.543 495.147 131.631 495.129 131.772C495.112 131.931 495.094 132.16 495.041 132.46C494.918 133.059 494.671 133.94 494.089 134.962C493.508 135.967 492.591 137.112 491.199 138.011C489.842 138.928 487.974 139.633 485.877 139.509L486.106 139.227C486.511 140.338 486.388 141.659 485.841 142.805C485.313 143.968 484.484 144.99 483.621 145.995C483.18 146.471 482.775 147.035 482.158 147.475C481.559 147.898 480.836 148.145 480.096 148.233C478.633 148.409 476.977 147.951 475.919 146.717L476.413 146.576C476.078 149.15 474.597 151.723 472.271 153.291C471.037 154.172 469.504 154.719 468.006 154.666C466.508 154.648 465.116 154.208 463.811 153.732L464.164 153.573C463.459 155.177 462.384 156.552 461.08 157.574C459.793 158.578 458.101 159.178 456.55 158.79C453.484 158.138 451.475 155.582 451.069 153.185L451.369 153.326C449.853 154.155 448.214 154.225 446.91 153.961C445.588 153.714 444.548 153.133 443.808 152.569C443.068 151.987 442.627 151.388 442.363 150.982C442.116 150.559 442.028 150.313 442.028 150.313C442.099 150.26 442.451 151.3 443.931 152.392C444.672 152.921 445.676 153.45 446.963 153.661C448.214 153.873 449.765 153.767 451.175 152.992L451.422 152.851L451.475 153.133C451.88 155.371 453.819 157.75 456.656 158.332C458.048 158.667 459.546 158.138 460.762 157.186C461.978 156.234 463.001 154.913 463.653 153.397L463.758 153.15L464.005 153.238C465.292 153.697 466.631 154.12 468.024 154.12C469.416 154.155 470.773 153.679 471.954 152.833C474.157 151.353 475.549 148.938 475.866 146.506L475.954 145.889L476.36 146.365C477.259 147.422 478.721 147.863 480.043 147.704C480.695 147.634 481.347 147.405 481.858 147.052C482.369 146.7 482.775 146.153 483.233 145.66C484.114 144.673 484.907 143.686 485.418 142.611C485.947 141.554 486.053 140.373 485.718 139.368L485.595 139.069L485.912 139.086C487.886 139.227 489.683 138.593 491.005 137.729C492.362 136.883 493.261 135.791 493.878 134.839C495.076 132.883 495.041 131.508 495.129 131.543Z" fill="#455A64"/>
<path d="M492.944 199.924C492.855 199.448 489.683 200.224 486.775 198.074C483.85 195.924 483.374 192.469 482.915 192.557C482.704 192.557 482.492 193.456 482.81 194.901C483.109 196.311 484.061 198.232 485.841 199.554C487.621 200.858 489.648 201.123 490.97 200.894C492.309 200.682 493.014 200.136 492.944 199.924Z" fill="#263238"/>
<path d="M590.687 693.027L603.2 735.659C603.2 735.659 650.75 737.245 653.834 744.912L572.023 772.158L549.782 706.527L590.687 693.027Z" fill="#455A64"/>
<path d="M576.729 740.541C575.283 741.493 574.79 743.643 575.689 745.123C576.588 746.604 578.773 747.132 580.218 746.198C581.681 745.264 582.351 742.709 581.293 741.334C580.236 739.959 577.645 739.484 576.447 740.735" fill="#E0E0E0"/>
<path d="M649.216 741.828C649.216 741.828 653.393 742.198 653.834 744.894L572.023 772.141L570.049 765.444L649.216 741.828Z" fill="#263238"/>
<path d="M604.381 734.796C604.504 735.201 602.566 736.047 601.032 737.986C599.446 739.889 599.005 741.951 598.582 741.916C598.195 741.969 597.983 739.378 599.887 737.051C601.772 734.725 604.346 734.408 604.381 734.796Z" fill="white"/>
<path d="M614.144 735.483C614.356 735.835 612.858 737.087 612.065 739.237C611.201 741.352 611.483 743.29 611.078 743.414C610.725 743.608 609.668 741.352 610.708 738.708C611.712 736.064 614.021 735.113 614.144 735.483Z" fill="white"/>
<path d="M622.446 744.136C622.111 744.348 620.895 742.533 621.194 739.995C621.476 737.457 623.063 735.976 623.345 736.241C623.679 736.488 622.851 738.074 622.64 740.153C622.375 742.251 622.833 743.96 622.446 744.136Z" fill="white"/>
<path d="M600.451 725.402C600.398 725.825 598.389 725.878 596.186 726.794C593.965 727.658 592.45 728.997 592.132 728.715C591.797 728.504 593.031 726.459 595.64 725.42C598.248 724.38 600.557 725.014 600.451 725.402Z" fill="white"/>
<path d="M399.748 693.397L381.93 734.108C381.93 734.108 417.337 765.884 414.781 773.727L334.592 742.021L359.742 677.447L399.748 693.397Z" fill="#455A64"/>
<path d="M358.508 720.837C356.781 720.644 355.018 721.965 354.772 723.675C354.507 725.384 355.847 727.182 357.556 727.411C359.266 727.623 361.433 726.107 361.504 724.38C361.574 722.653 359.9 720.626 358.173 720.82" fill="#E0E0E0"/>
<path d="M413.213 768.405C413.213 768.405 416.174 771.365 414.764 773.727L334.574 742.021L337.359 735.606L413.213 768.405Z" fill="#263238"/>
<path d="M383.393 734.214C383.217 734.602 381.19 734.003 378.776 734.496C376.344 734.937 374.669 736.241 374.37 735.941C374.035 735.73 375.55 733.615 378.494 733.068C381.437 732.487 383.622 733.879 383.393 734.214Z" fill="white"/>
<path d="M390.425 741.017C390.372 741.44 388.399 741.422 386.425 742.55C384.415 743.625 383.358 745.282 382.988 745.106C382.6 745.017 383.235 742.621 385.72 741.263C388.205 739.889 390.566 740.647 390.425 741.017Z" fill="white"/>
<path d="M391.236 752.966C390.848 752.913 391.077 750.745 392.928 748.983C394.76 747.22 396.946 747.115 396.981 747.502C397.069 747.908 395.43 748.595 393.932 750.058C392.399 751.486 391.641 753.089 391.236 752.966Z" fill="white"/>
<path d="M386.424 724.486C386.125 724.785 384.539 723.534 382.265 722.811C380.009 722.036 378 722.106 377.912 721.683C377.789 721.313 380.045 720.52 382.723 721.419C385.402 722.283 386.742 724.257 386.424 724.486Z" fill="white"/>
<path d="M429.762 469.748L401.669 583.705C401.669 583.705 351 669.005 342.417 711.691L388.768 729.914C388.768 729.914 422.483 647.698 432.37 632.612C437.816 624.311 443.561 617.896 447.632 613.807C451.316 610.106 453.995 605.523 455.317 600.483L476.589 519.183L429.762 469.748Z" fill="#263238"/>
<path d="M417.795 451.525C417.795 451.525 421.707 482.032 451.069 495.567L512.965 596.376C512.965 596.376 517.829 629.157 527.17 656.774C536.44 684.197 555.121 737.598 555.121 737.598L606.037 718.564L573.591 607.638L568.286 569.165L517.776 440.598L474.386 414.585L417.795 451.525Z" fill="#263238"/>
<path d="M417.795 451.525C417.795 451.525 418.095 451.296 418.729 450.89C419.381 450.467 420.315 449.833 421.531 449.022C424.034 447.365 427.735 444.933 432.529 441.761C442.204 435.416 456.321 426.129 474.227 414.373L474.368 414.285L474.509 414.373C487.163 421.934 501.738 430.658 517.935 440.333L518.023 440.386L518.058 440.492C532.193 476.392 549.446 520.206 568.674 569.024L568.692 569.077V569.13C570.366 581.29 572.181 594.297 574.014 607.603L573.997 607.533C582.773 637.511 592.149 669.551 601.807 702.596C603.358 707.919 604.909 713.206 606.443 718.476L606.566 718.881L606.161 719.022C588.819 725.508 571.811 731.852 555.245 738.038L554.804 738.197L554.646 737.756C545.816 712.184 537.321 687.563 529.249 664.211C527.223 658.378 525.231 652.597 523.574 646.816C521.9 641.036 520.42 635.29 519.08 629.633C516.401 618.283 514.251 607.198 512.559 596.447L512.612 596.588C487.287 555.242 466.208 520.822 450.84 495.708L450.946 495.796C442.539 491.866 436.106 486.438 431.507 481.027C426.871 475.599 423.963 470.224 422.007 465.783C420.051 461.306 419.046 457.711 418.465 455.279C418.165 454.063 418.007 453.128 417.901 452.512C417.83 451.86 417.795 451.525 417.795 451.525C417.795 451.525 417.866 451.842 417.989 452.459C418.112 453.076 418.289 454.01 418.623 455.208C419.24 457.623 420.28 461.2 422.272 465.642C424.263 470.065 427.189 475.388 431.824 480.763C436.441 486.121 442.839 491.478 451.193 495.356L451.263 495.391L451.298 495.444C466.737 520.523 487.903 554.89 513.317 596.165L513.352 596.236L513.37 596.324C515.062 607.039 517.247 618.107 519.926 629.439C521.283 635.097 522.764 640.824 524.438 646.587C526.095 652.35 528.086 658.096 530.113 663.947C538.202 687.299 546.715 711.92 555.562 737.474L554.98 737.192C571.547 731.006 588.554 724.644 605.896 718.159L605.614 718.722C604.081 713.471 602.53 708.166 600.979 702.843C591.321 669.798 581.945 637.758 573.186 607.779L573.168 607.744V607.709C571.335 594.42 569.555 581.396 567.881 569.236L567.899 569.341C548.742 520.488 531.558 476.657 517.476 440.739L517.618 440.897C501.456 431.169 486.899 422.41 474.262 414.814H474.527C456.603 426.446 442.451 435.628 432.775 441.92C427.929 445.057 424.21 447.454 421.672 449.093C420.421 449.903 419.469 450.503 418.8 450.926C418.148 451.331 417.795 451.525 417.795 451.525Z" fill="#455A64"/>
<path d="M444.989 233.745C444.989 233.745 430.15 245.165 422.941 257.925C414.306 273.187 413.371 295.852 413.107 331.029C412.86 363.581 417.725 372.604 415.839 384.871C412.173 408.822 409.424 489.223 409.424 489.223C409.424 489.223 456.956 470.946 466.244 462.875C475.531 454.803 475.531 454.803 475.531 454.803L535.083 474.489L523.063 401.314L514.815 310.11L504.259 261.732L502.408 242.751L451.386 222.113L444.989 233.745Z" fill="#455A64"/>
<path d="M500.628 241.693C501.245 241.799 499.165 245.976 495.482 252.109L495.341 252.356L495.059 252.25C489.877 250.241 483.057 247.721 475.584 245.007C467.16 241.94 459.547 239.085 454.101 236.864C451.369 235.754 449.184 234.82 447.686 234.133C446.188 233.445 445.377 233.04 445.394 232.987C445.412 232.934 446.276 233.216 447.827 233.798C449.518 234.432 451.721 235.261 454.347 236.247C460.022 238.327 467.565 241.076 475.919 244.143C483.392 246.875 490.212 249.465 495.341 251.598L494.918 251.739C498.707 245.694 500.981 241.729 500.628 241.693Z" fill="#263238"/>
<path d="M562.171 203.643C562.171 203.643 558.399 197.774 554.839 192.364C551.262 186.953 545.886 184.309 545.04 181.472C544.177 178.634 539.436 166.104 538.678 162.984C537.62 158.614 537.762 153.785 537.762 153.785C537.762 153.785 541.656 152.11 543.525 157.697C544.652 161.046 548.23 172.413 549.006 172.977C549.781 173.541 550.856 172.713 550.856 172.713C550.856 172.713 546.873 161.786 546.697 159.706C546.521 157.644 547.243 143.986 547.243 143.986C547.243 143.986 550.081 143.122 551.931 146.612C553.782 150.084 553.852 158.966 553.852 158.966L556.654 168.8L555.685 159.072L557.095 141.201C557.095 141.201 561.536 141.606 562.735 146.435C563.916 151.264 562.347 157.997 563.158 159.442C563.951 160.887 564.814 169.505 564.814 169.505C564.814 169.505 565.784 148.515 568.022 147.916C570.26 147.317 572.111 149.555 571.793 153.785C571.476 158.014 571.388 166.95 572.551 170.915C573.714 174.863 585.646 190.231 584.659 197.052C583.672 203.89 583.566 209.353 583.566 209.353H563.052L562.171 203.643Z" fill="#FFBF9D"/>
<path d="M490.459 256.462C491.605 256.903 540.441 268.975 540.441 268.975C540.441 268.975 551.35 251.281 552.936 246.24C554.522 241.2 563.088 207.08 563.088 207.08L583.725 205.123C583.725 205.123 578.509 293.067 570.965 297.79C563.422 302.531 551.65 304.928 550.804 304.664C549.958 304.399 498.037 308.012 470.614 286.423C443.209 264.869 490.459 256.462 490.459 256.462Z" fill="#FFBF9D"/>
<g opacity="0.3">
<path d="M455.457 303.007C455.457 303.007 462.472 311.89 475.426 314.745C488.379 317.6 515.961 322.64 515.961 322.64L514.621 309.105L454.612 302.69" fill="black"/>
</g>
<path d="M433.709 284.396C438.151 293.772 448.02 303.818 469.715 306.056C512.665 310.497 545.181 312.859 559.228 310.744C573.274 308.629 578.861 278.898 580.306 277.981C584.677 275.214 584.395 265.785 580.623 262.965C569.908 254.964 548.407 248.796 546.961 249.518C538.431 253.766 541.216 263.706 541.216 263.706L486.828 251.704C486.828 251.704 478.016 247.826 467.318 246.011" fill="#455A64"/>
<path d="M467.318 246.011C467.318 246.011 467.777 246.046 468.658 246.187C469.539 246.328 470.843 246.575 472.535 246.945C475.919 247.721 480.871 249.007 486.916 251.475L486.881 251.457C499.888 254.294 518.657 258.366 541.304 263.3L540.846 263.794C540.141 260.762 540.176 257.431 541.551 254.4C542.22 252.884 543.313 251.563 544.635 250.523C545.269 249.959 546.027 249.589 546.75 249.148C546.961 249.06 547.331 249.025 547.561 249.025L548.213 249.095C548.653 249.131 549.041 249.236 549.464 249.307C555.967 250.77 562.47 253.078 568.974 255.916C572.217 257.361 575.442 258.982 578.544 260.956C579.319 261.45 580.059 261.996 580.817 262.525C581.593 263.124 582.262 263.899 582.685 264.763C583.584 266.49 583.937 268.411 583.972 270.332C583.989 272.253 583.619 274.21 582.703 275.972C582.192 276.818 581.575 277.664 580.711 278.228C580.5 278.334 580.359 278.792 580.183 279.215L579.724 280.537C578.561 284.15 577.416 287.833 575.988 291.446C573.944 296.592 571.6 301.668 567.987 305.827C566.189 307.871 564.004 309.704 561.378 310.603C560.074 311.097 558.699 311.22 557.395 311.361C556.073 311.555 554.769 311.572 553.465 311.696C548.23 311.995 543.102 311.925 538.079 311.784C533.056 311.643 528.139 311.396 523.363 311.097C504.223 309.863 487.04 308.118 472.606 306.62C469.01 306.285 465.556 305.809 462.348 305.14C459.158 304.382 456.162 303.589 453.484 302.461C448.091 300.328 443.931 297.403 440.988 294.601C438.045 291.763 436.283 289.102 435.207 287.251C434.132 285.401 433.745 284.343 433.745 284.343C433.798 284.308 434.238 285.348 435.366 287.163C436.476 288.961 438.292 291.569 441.235 294.336C444.178 297.068 448.32 299.923 453.677 301.985C456.321 303.078 459.299 303.853 462.472 304.576C465.662 305.21 469.063 305.651 472.676 305.968C487.11 307.378 504.294 309.07 523.416 310.251C528.192 310.533 533.091 310.779 538.114 310.92C543.119 311.044 548.248 311.114 553.429 310.797C554.716 310.674 556.02 310.638 557.324 310.462C558.628 310.304 559.933 310.198 561.113 309.74C563.528 308.911 565.608 307.202 567.335 305.21C570.807 301.192 573.151 296.187 575.177 291.093C576.587 287.498 577.715 283.85 578.896 280.219L579.372 278.862C579.46 278.633 579.548 278.404 579.654 278.175C579.724 278.052 579.76 277.946 579.883 277.787C579.954 277.699 580.042 277.611 580.112 277.54L580.236 277.435C580.958 276.959 581.487 276.236 581.945 275.496C582.773 273.928 583.126 272.095 583.108 270.297C583.073 268.499 582.738 266.684 581.927 265.151C581.522 264.375 580.976 263.723 580.306 263.212C579.566 262.701 578.826 262.172 578.085 261.679C575.054 259.74 571.864 258.119 568.639 256.691C562.206 253.871 555.703 251.545 549.323 250.1C548.935 250.029 548.53 249.924 548.142 249.888L547.561 249.818C547.384 249.836 547.331 249.818 547.155 249.853C546.485 250.259 545.763 250.611 545.181 251.122C543.965 252.074 542.943 253.29 542.326 254.682C541.057 257.467 540.987 260.692 541.639 263.529L541.78 264.146L541.181 264.005C518.569 258.947 499.817 254.735 486.828 251.827H486.811L486.793 251.809C480.818 249.289 475.884 247.932 472.535 247.086C470.861 246.663 469.557 246.399 468.675 246.205C467.759 246.117 467.318 246.011 467.318 246.011Z" fill="#263238"/>
<path d="M559.228 280.713C559.175 280.819 557.8 280.325 555.721 279.18C553.641 278.034 550.909 276.166 548.301 273.646C545.692 271.108 543.736 268.446 542.52 266.42C541.304 264.393 540.758 263.018 540.863 262.965C541.128 262.807 543.807 268.041 548.953 272.993C554.029 277.981 559.369 280.448 559.228 280.713Z" fill="#263238"/>
<path d="M175.799 425.864C175.799 425.864 186.709 426.463 193.494 430.693C200.262 434.941 211.136 441.514 215.612 449.674C217.674 453.428 211.805 454.221 208.897 452.036C206.007 449.851 201.566 445.762 199.363 445.251C197.16 444.74 197.16 444.74 197.16 444.74C197.16 444.74 201.583 454.591 203.875 458.063C206.166 461.518 208.14 467.439 201.301 467.721C201.301 467.721 196.684 473.713 192.031 469.272C192.031 469.272 188.401 474.7 182.549 467.175C182.549 467.175 179.148 471.493 177.721 469.836C176.293 468.197 171.64 465.571 170.283 460.178C168.926 454.785 163.216 441.691 163.216 441.691L175.799 425.864Z" fill="#FFBF9D"/>
<path d="M82.8153 282.14C82.8153 282.14 74.2853 284.449 69.0862 292.45C64.8917 298.901 63.6051 310.163 64.8036 318.393C67.3414 335.911 75.3956 365.52 79.9074 384.518C81.4583 391.074 84.6658 402.812 94.0594 409.033L160.819 449.075L178.672 422.569L117.799 372.957L105.762 304.963L82.8153 282.14Z" fill="#455A64"/>
<path d="M71.2716 349.006C71.2892 349.006 71.3597 349.235 71.4831 349.693C71.6241 350.204 71.8003 350.874 72.0294 351.755C72.5053 353.623 73.1926 356.302 74.0738 359.739C75.8186 366.736 78.3388 376.781 81.4583 389.259C83.0444 395.428 86.7102 401.772 92.4557 406.672C95.2755 409.192 98.7474 411.025 102.219 413.157C105.691 415.255 109.287 417.422 112.952 419.625C127.668 428.508 143.9 438.324 161.048 448.67L160.431 448.811C162.476 445.779 164.661 442.537 166.847 439.276C170.724 433.513 174.548 427.838 178.285 422.322L178.373 422.921C155.444 404.046 134.648 386.933 118.028 373.239L117.94 373.168L117.905 373.063C113.922 356.285 111.031 342.573 109.216 333.021C108.3 328.245 107.665 324.526 107.26 321.988C107.084 320.755 106.943 319.785 106.837 319.098C106.749 318.446 106.731 318.111 106.731 318.111C106.731 318.111 106.819 318.446 106.943 319.08C107.066 319.768 107.242 320.719 107.471 321.953C107.947 324.473 108.635 328.192 109.604 332.95C111.542 342.467 114.539 356.161 118.592 372.904L118.469 372.71C135.123 386.351 155.973 403.411 178.937 422.234L179.254 422.498L179.025 422.851C175.306 428.367 171.482 434.042 167.604 439.822C165.401 443.083 163.216 446.326 161.172 449.357L160.925 449.727L160.555 449.498C143.424 439.117 127.193 429.283 112.494 420.366C108.828 418.145 105.251 415.96 101.779 413.862C98.3421 411.73 94.8173 409.844 91.9446 407.253C86.111 402.23 82.41 395.727 80.8238 389.435C77.8277 376.94 75.3956 366.841 73.7213 359.845C72.9106 356.39 72.2762 353.694 71.8356 351.826C71.6417 350.945 71.4831 350.24 71.3773 349.746C71.3068 349.253 71.254 349.006 71.2716 349.006Z" fill="#263238"/>
<path d="M72.3644 291.569C72.3467 291.516 72.8226 291.287 73.7214 291.005C74.6202 290.706 75.942 290.371 77.6339 290.124C80.9473 289.666 85.882 289.595 90.6581 291.886C95.3461 294.283 98.5537 297.932 100.387 300.751C101.303 302.179 101.885 303.448 102.167 304.347C102.466 305.245 102.519 305.774 102.484 305.792C102.325 305.845 101.796 303.8 99.8578 301.121C97.9544 298.46 94.7292 294.988 90.2527 292.715C85.7234 290.547 80.9649 290.494 77.7044 290.776C74.4087 291.076 72.4172 291.728 72.3644 291.569Z" fill="#263238"/>
</svg>
