<svg width="29" height="29" viewBox="0 0 29 29" fill="none" xmlns="http://www.w3.org/2000/svg">
<path d="M14.8438 19.6687V15.0269H19.4119C19.6696 15.0269 19.9166 14.9245 20.0988 14.7424C20.281 14.5602 20.3833 14.3131 20.3833 14.0555C20.3833 13.7979 20.281 13.5508 20.0988 13.3687C19.9166 13.1865 19.6696 13.0841 19.4119 13.0841H14.8438V9.12761C14.8438 8.86999 14.7415 8.62292 14.5593 8.44076C14.3771 8.25859 14.1301 8.15625 13.8724 8.15625C13.6148 8.15625 13.3678 8.25859 13.1856 8.44076C13.0034 8.62292 12.9011 8.86999 12.9011 9.12761V13.0841H8.87088C8.61326 13.0841 8.36619 13.1865 8.18403 13.3687C8.00186 13.5508 7.89952 13.7979 7.89952 14.0555C7.89952 14.3131 8.00186 14.5602 8.18403 14.7424C8.36619 14.9245 8.61326 15.0269 8.87088 15.0269H12.9011V19.6687C12.9011 19.9263 13.0034 20.1734 13.1856 20.3555C13.3678 20.5377 13.6148 20.64 13.8724 20.64C14.1301 20.64 14.3771 20.5377 14.5593 20.3555C14.7415 20.1734 14.8438 19.9263 14.8438 19.6687Z" fill="#00A884"/>
<circle cx="14.1421" cy="14.1421" r="9" transform="rotate(45 14.1421 14.1421)" stroke="#00A884" stroke-width="2"/>
</svg>
