<svg width="343" height="110" viewBox="0 0 343 110" fill="none" xmlns="http://www.w3.org/2000/svg">
<path d="M3.47949 32.3897C5.7795 28.2025 8.96412 24.9589 13.0923 22.6589C17.2205 20.3589 21.8795 19.1794 27.0693 19.1794C33.4385 19.1794 38.9231 20.8896 43.4642 24.2512C48.0052 27.6127 51.0719 32.2127 52.6052 38.0512H38.2155C37.1539 35.8102 35.6206 34.0999 33.6744 32.9204C31.7283 31.7409 29.4872 31.1512 26.9513 31.1512C22.9411 31.1512 19.6385 32.5666 17.1616 35.3974C14.6846 38.2281 13.3872 41.9435 13.3872 46.6615C13.3872 51.3794 14.6257 55.0948 17.1616 57.9256C19.6385 60.7564 22.9411 62.1718 26.9513 62.1718C29.4283 62.1718 31.6693 61.582 33.6744 60.4025C35.6206 59.223 37.1539 57.5128 38.2155 55.2718H52.6052C51.0719 61.1102 48.0052 65.7102 43.4642 69.0128C38.9231 72.3743 33.4385 74.0256 27.0693 74.0256C21.8795 74.0256 17.1616 72.8461 13.0923 70.5461C8.96412 68.2461 5.7795 65.0025 3.47949 60.8153C1.17949 56.6871 0 51.9692 0 46.6025C0.0589745 41.2948 1.17949 36.5179 3.47949 32.3897Z" fill="#001729"/>
<path d="M72.2437 70.6051C67.9976 68.2461 64.695 64.9436 62.2181 60.7564C59.7412 56.5102 58.5027 51.7923 58.5027 46.5436C58.5027 41.2948 59.7412 36.5769 62.2181 32.3307C64.695 28.1435 68.0565 24.8409 72.2437 22.5409C76.4899 20.182 81.0899 19.0025 86.1617 19.0025C91.2335 19.0025 95.8925 20.182 100.08 22.5409C104.326 24.8999 107.628 28.1435 110.046 32.3307C112.464 36.5179 113.703 41.2359 113.703 46.5436C113.703 51.7923 112.464 56.5692 110.046 60.7564C107.628 64.9436 104.267 68.2461 100.08 70.6051C95.8925 72.9641 91.2335 74.1436 86.2207 74.1436C81.0899 74.1436 76.4309 72.9641 72.2437 70.6051ZM96.4822 57.8666C99.0771 54.9769 100.375 51.2025 100.375 46.5436C100.375 41.7666 99.0771 37.9922 96.4822 35.1615C93.8874 32.3307 90.4668 30.9153 86.1617 30.9153C81.7976 30.9153 78.3771 32.3307 75.7822 35.1615C73.1873 37.9922 71.8899 41.7666 71.8899 46.6025C71.8899 51.3794 73.1873 55.1538 75.7822 57.9846C78.3771 60.8154 81.8566 62.2307 86.1617 62.2307C90.4668 62.1718 93.8874 60.7564 96.4822 57.8666Z" fill="#001729"/>
<path d="M129.862 72.1974C126.736 70.9 124.259 69.0128 122.372 66.5359C120.485 64.0589 119.541 60.9923 119.423 57.5128H133.4C133.577 59.5179 134.285 61.0512 135.464 62.0538C136.644 63.1154 138.177 63.6461 140.064 63.6461C142.011 63.6461 143.544 63.1743 144.664 62.2897C145.785 61.4051 146.375 60.1666 146.375 58.5743C146.375 57.2179 145.903 56.1564 145.018 55.2718C144.134 54.3871 143.013 53.6794 141.716 53.1487C140.418 52.5589 138.531 51.9692 136.172 51.2025C132.693 50.141 129.862 49.0794 127.68 47.9589C125.498 46.8974 123.611 45.3051 122.018 43.182C120.426 41.0589 119.659 38.3461 119.659 34.9845C119.659 29.9717 121.487 26.0794 125.085 23.1896C128.741 20.3589 133.459 18.9435 139.298 18.9435C145.254 18.9435 150.031 20.3589 153.629 23.1896C157.285 26.0204 159.172 29.9717 159.467 35.0435H145.254C145.136 33.3333 144.487 31.9179 143.308 30.9153C142.129 29.9127 140.595 29.4409 138.767 29.4409C137.175 29.4409 135.877 29.8538 134.934 30.6794C133.99 31.505 133.459 32.7435 133.459 34.3358C133.459 36.0461 134.285 37.4025 135.936 38.4051C137.587 39.3486 140.123 40.4102 143.603 41.5307C147.082 42.7102 149.913 43.8307 152.095 44.8922C154.277 45.9538 156.164 47.5461 157.757 49.5512C159.349 51.6153 160.116 54.2102 160.116 57.4538C160.116 60.5205 159.349 63.2923 157.757 65.8282C156.223 68.3051 153.923 70.3102 150.975 71.7846C148.026 73.259 144.487 74.0256 140.477 74.0256C136.526 74.1436 132.987 73.4949 129.862 72.1974Z" fill="#001729"/>
<path d="M229.116 19.7691V73.6128H216.023V41.3538L203.993 73.6128H193.436L181.346 41.2358V73.6128H168.254V19.7691H183.646L198.744 57.041L213.723 19.7691H229.116Z" fill="#001729"/>
<path d="M312.447 72.1974C309.321 70.9 306.844 69.0128 304.957 66.5359C303.07 64.0589 302.126 60.9923 302.008 57.5128H315.985C316.162 59.5179 316.87 61.0512 318.049 62.0538C319.229 63.1154 320.762 63.6461 322.649 63.6461C324.596 63.6461 326.129 63.1743 327.249 62.2897C328.37 61.4051 328.96 60.1666 328.96 58.5743C328.96 57.2179 328.488 56.1564 327.603 55.2718C326.719 54.3871 325.598 53.6794 324.301 53.1487C323.003 52.5589 321.116 51.9692 318.757 51.2025C315.278 50.141 312.447 49.0794 310.265 47.9589C308.083 46.8974 306.195 45.3051 304.603 43.182C303.011 41.0589 302.244 38.3461 302.244 34.9845C302.244 29.9717 304.072 26.0794 307.67 23.1896C311.326 20.3589 316.044 18.9435 321.883 18.9435C327.839 18.9435 332.616 20.3589 336.213 23.1896C339.87 26.0204 341.757 29.9717 342.052 35.0435H327.839C327.721 33.3333 327.072 31.9179 325.893 30.9153C324.713 29.9127 323.18 29.4409 321.352 29.4409C319.76 29.4409 318.462 29.8538 317.519 30.6794C316.575 31.505 316.044 32.7435 316.044 34.3358C316.044 36.0461 316.87 37.4025 318.521 38.4051C320.172 39.3486 322.708 40.4102 326.188 41.5307C329.667 42.7102 332.498 43.8307 334.68 44.8922C336.862 45.9538 338.749 47.5461 340.342 49.5512C341.934 51.6153 342.701 54.2102 342.701 57.4538C342.701 60.5205 341.934 63.2923 340.342 65.8282C338.808 68.3051 336.508 70.3102 333.56 71.7846C330.611 73.259 327.072 74.0256 323.062 74.0256C319.111 74.1436 315.572 73.4949 312.447 72.1974Z" fill="#001729"/>
<path d="M168.962 90.5384C170.023 88.5923 171.557 87.0589 173.444 85.9384C175.331 84.8179 177.395 84.2871 179.695 84.2871C182.408 84.2871 184.767 84.9359 186.772 86.2923C188.777 87.5897 190.252 89.4769 191.195 91.8948H187.303C186.595 90.3615 185.652 89.241 184.354 88.4154C183.057 87.5897 181.523 87.1769 179.695 87.1769C177.985 87.1769 176.393 87.5897 175.036 88.4154C173.68 89.241 172.559 90.4205 171.793 91.8948C171.026 93.3692 170.613 95.1384 170.613 97.2025C170.613 99.2077 171.026 100.918 171.793 102.451C172.559 103.926 173.68 105.105 175.036 105.931C176.393 106.756 177.985 107.169 179.695 107.169C181.523 107.169 183.057 106.756 184.354 105.99C185.652 105.164 186.654 104.044 187.303 102.51H191.195C190.252 104.928 188.777 106.756 186.772 108.054C184.767 109.351 182.408 110 179.695 110C177.395 110 175.331 109.469 173.444 108.349C171.557 107.228 170.082 105.754 168.962 103.808C167.9 101.862 167.311 99.6795 167.311 97.2025C167.311 94.7256 167.9 92.5436 168.962 90.5384Z" fill="#001729"/>
<path d="M202.754 107.11H211.423V109.764H199.511V84.641H202.754V107.11Z" fill="#001729"/>
<path d="M221.685 84.641V109.764H218.441V84.641H221.685Z" fill="#001729"/>
<path d="M250.229 109.764H246.985L233.952 89.7718V109.764H230.708V84.582H233.952L246.985 104.574V84.582H250.229V109.764Z" fill="#001729"/>
<path d="M262.495 84.641V109.764H259.252V84.641H262.495Z" fill="#001729"/>
<path d="M271.99 90.5384C273.052 88.5923 274.585 87.0589 276.472 85.9384C278.36 84.8179 280.424 84.2871 282.724 84.2871C285.436 84.2871 287.795 84.9359 289.801 86.2923C291.806 87.5897 293.28 89.4769 294.224 91.8948H290.331C289.624 90.3615 288.68 89.241 287.383 88.4154C286.085 87.5897 284.552 87.1769 282.724 87.1769C281.013 87.1769 279.421 87.5897 278.065 88.4154C276.708 89.241 275.588 90.4205 274.821 91.8948C274.054 93.3692 273.642 95.1384 273.642 97.2025C273.642 99.2077 274.054 100.918 274.821 102.451C275.588 103.926 276.708 105.105 278.065 105.931C279.421 106.756 281.013 107.169 282.724 107.169C284.552 107.169 286.085 106.756 287.383 105.99C288.68 105.223 289.683 104.044 290.331 102.51H294.224C293.28 104.928 291.806 106.756 289.801 108.054C287.795 109.351 285.436 110 282.724 110C280.424 110 278.36 109.469 276.472 108.349C274.585 107.228 273.111 105.754 271.99 103.808C270.87 101.862 270.339 99.6795 270.339 97.2025C270.339 94.7256 270.87 92.5436 271.99 90.5384Z" fill="#001729"/>
<path d="M317.165 104.162H306.372L304.367 109.764H301.006L309.97 84.7589H313.685L322.59 109.764H319.17L317.165 104.162ZM316.28 101.508L311.798 88.8282L307.316 101.508H316.28Z" fill="#001729"/>
<path d="M333.265 107.11H341.934V109.764H330.021V84.641H333.265V107.11Z" fill="#001729"/>
<path d="M291.275 0.779336C286.321 1.19216 282.311 5.14344 281.898 10.1563C281.721 12.2794 282.193 14.2845 283.136 15.9947C283.962 17.5281 283.844 19.4742 282.782 20.8896L272.58 34.1589C271.518 35.5153 269.808 36.164 268.157 35.8102C267.154 35.6332 266.093 35.5743 264.972 35.6922C260.136 36.223 256.303 40.2332 255.949 45.0691C255.477 51.3794 260.667 56.5692 266.977 56.0974C271.99 55.6846 276 51.5563 276.354 46.6025C276.472 44.4204 275.941 42.4153 274.939 40.705C273.995 39.1127 274.113 37.1666 275.234 35.6922L285.2 22.6589C286.262 21.3024 288.09 20.6537 289.8 21.0076C290.862 21.2435 291.983 21.3614 293.044 21.1845C297.939 20.7127 301.89 16.7614 302.303 11.8076C302.834 5.49729 297.585 0.30754 291.275 0.779336Z" fill="#00A884"/>
<path d="M280.6 36.3999C280.129 36.9897 280.07 37.7563 280.483 38.464C281.898 40.941 282.724 43.8307 282.724 46.8974C282.724 56.5102 274.703 64.3538 264.795 64.3538C254.888 64.3538 246.867 56.5692 246.867 46.8974C246.867 37.2845 254.888 29.4409 264.795 29.4409C266.211 29.4409 267.626 29.6179 268.924 29.9127C269.631 30.0897 270.339 29.8537 270.811 29.264L275.765 22.9537C276.531 21.9512 276.118 20.5358 274.939 20.123C271.754 19.0024 268.393 18.3537 264.795 18.3537C248.577 18.3537 235.485 31.0922 235.485 46.8974C235.485 62.7025 248.577 75.441 264.795 75.441C281.013 75.441 294.106 62.7025 294.106 46.8974C294.106 40.6461 292.041 34.8076 288.503 30.0897C287.795 29.0871 286.321 29.0871 285.554 30.0897L280.6 36.3999Z" fill="#00A884"/>
<path d="M160.116 91.3641H0.0588379V95.8461H160.116V91.3641Z" fill="#00A884"/>
<path d="M160.116 100.446H0.0588379V104.928H160.116V100.446Z" fill="#001729"/>
</svg>
