<svg width="782" height="782" viewBox="0 0 782 782" fill="none" xmlns="http://www.w3.org/2000/svg">
<path d="M410.268 188.728H330.02V85.7072H389.608L410.268 105.335V188.728Z" fill="#EBEBEB"/>
<path d="M389.608 85.7072L410.268 105.335H389.608V85.7072Z" fill="#DBDBDB"/>
<path d="M337.851 105.649H382.472V103.005H337.851V105.649Z" fill="#DBDBDB"/>
<path d="M337.851 112.325H382.472V109.682H337.851V112.325Z" fill="#DBDBDB"/>
<path d="M337.851 119.001H382.472V116.358H337.851V119.001Z" fill="#DBDBDB"/>
<path d="M337.854 125.677L403.229 125.677V123.034L337.854 123.034V125.677Z" fill="#DBDBDB"/>
<path d="M337.854 132.354H403.229V129.71H337.854V132.354Z" fill="#DBDBDB"/>
<path d="M337.854 139.03H403.229V136.386H337.854V139.03Z" fill="#DBDBDB"/>
<path d="M337.854 145.706H403.229V143.063H337.854V145.706Z" fill="#DBDBDB"/>
<path d="M337.854 152.382H403.229V149.739H337.854V152.382Z" fill="#DBDBDB"/>
<path d="M337.854 159.058H403.229V156.415H337.854V159.058Z" fill="#DBDBDB"/>
<path d="M337.854 165.735H403.229V163.091H337.854V165.735Z" fill="#DBDBDB"/>
<path d="M337.854 172.411H403.229V169.768H337.854V172.411Z" fill="#DBDBDB"/>
<path d="M337.854 179.087H403.229V176.444H337.854V179.087Z" fill="#DBDBDB"/>
<path d="M415.688 198.104C422.863 195.113 426.255 186.871 423.264 179.696C420.272 172.52 412.03 169.128 404.855 172.12C397.68 175.111 394.288 183.353 397.279 190.528C400.271 197.704 408.513 201.096 415.688 198.104Z" fill="#C7C7C7"/>
<path d="M417.244 181.549H403.293V194.218H417.244V181.549Z" fill="white"/>
<path d="M415.852 185.459H414.429V179.797C414.429 177.498 412.568 175.637 410.268 175.637C407.969 175.637 406.108 177.498 406.108 179.797V185.459H404.685V179.797C404.685 176.716 407.187 174.214 410.268 174.214C413.35 174.214 415.852 176.716 415.852 179.797V185.459Z" fill="white"/>
<path d="M410.863 188.04L411.441 190.808H408.955L409.533 188.04C409.189 187.821 408.955 187.43 408.955 186.992C408.955 186.304 409.518 185.756 410.19 185.756C410.878 185.756 411.426 186.304 411.426 186.992C411.441 187.43 411.207 187.821 410.863 188.04Z" fill="#C7C7C7"/>
<path d="M514.712 230.659L514.916 310.814C514.931 315.302 511.303 318.931 506.83 318.947L379.692 319.275C375.219 319.291 371.575 315.662 371.559 311.173L371.356 231.018C371.34 226.843 374.719 223.464 378.879 223.449L507.127 223.12C511.318 223.12 514.697 226.498 514.712 230.659Z" fill="#EBEBEB"/>
<path d="M494.224 299.584C494.24 303.713 490.908 307.06 486.779 307.06C482.666 307.076 479.303 303.744 479.303 299.615C479.288 295.487 482.619 292.14 486.748 292.14C490.861 292.124 494.224 295.455 494.224 299.584Z" fill="#DBDBDB"/>
<path d="M503.42 299.553C503.436 303.666 500.105 307.029 495.976 307.029C491.862 307.044 488.5 303.713 488.5 299.584C488.484 295.455 491.816 292.108 495.944 292.108C500.058 292.093 503.405 295.44 503.42 299.553Z" fill="#00A884"/>
<path d="M403.809 255.761L390.046 255.792C386.417 255.808 383.461 252.868 383.461 249.239L383.446 243.781C383.43 240.152 386.371 237.196 389.999 237.196L403.762 237.165C407.391 237.149 410.347 240.09 410.347 243.718L410.362 249.176C410.378 252.805 407.438 255.761 403.809 255.761Z" fill="#00A884"/>
<path d="M498.181 247.128L486.013 247.159C483.198 247.159 480.914 244.891 480.899 242.076C480.899 239.261 483.166 236.977 485.982 236.962L498.15 236.93C500.965 236.93 503.248 239.198 503.264 242.013C503.28 244.829 500.996 247.112 498.181 247.128Z" fill="white"/>
<path d="M451.633 292.991L383.568 293.167L383.577 296.514L451.642 296.338L451.633 292.991Z" fill="#DBDBDB"/>
<path d="M431.786 300.477L383.599 300.602L383.608 303.949L431.795 303.824L431.786 300.477Z" fill="#DBDBDB"/>
<path d="M476.204 236.981L442.25 237.069L442.258 240.416L476.213 240.328L476.204 236.981Z" fill="#DBDBDB"/>
<path d="M386.589 275.17H386.12V280.253H386.589V275.17Z" fill="#C7C7C7"/>
<path d="M388.889 277.485H383.806V277.954H388.889V277.485Z" fill="#C7C7C7"/>
<path d="M387.989 275.741L384.384 279.346L384.716 279.678L388.321 276.072L387.989 275.741Z" fill="#C7C7C7"/>
<path d="M384.718 275.757L384.386 276.089L387.992 279.694L388.323 279.363L384.718 275.757Z" fill="#C7C7C7"/>
<path d="M392.705 275.17H392.235V280.253H392.705V275.17Z" fill="#C7C7C7"/>
<path d="M395.019 277.485H389.936V277.954H395.019V277.485Z" fill="#C7C7C7"/>
<path d="M394.108 275.754L390.513 279.348L390.845 279.68L394.439 276.085L394.108 275.754Z" fill="#C7C7C7"/>
<path d="M390.83 275.728L390.498 276.059L394.092 279.654L394.424 279.322L390.83 275.728Z" fill="#C7C7C7"/>
<path d="M398.836 275.17H398.366V280.253H398.836V275.17Z" fill="#C7C7C7"/>
<path d="M401.135 277.485H396.052V277.954H401.135V277.485Z" fill="#C7C7C7"/>
<path d="M396.959 279.674L396.63 279.346L400.228 275.749L400.572 276.077L396.959 279.674Z" fill="#C7C7C7"/>
<path d="M400.228 279.674L396.63 276.077L396.959 275.749L400.572 279.346L400.228 279.674Z" fill="#C7C7C7"/>
<path d="M404.951 275.17H404.482V280.253H404.951V275.17Z" fill="#C7C7C7"/>
<path d="M407.265 277.485H402.182V277.954H407.265V277.485Z" fill="#C7C7C7"/>
<path d="M403.09 279.674L402.761 279.346L406.358 275.749L406.687 276.077L403.09 279.674Z" fill="#C7C7C7"/>
<path d="M406.358 279.674L402.761 276.077L403.09 275.749L406.687 279.346L406.358 279.674Z" fill="#C7C7C7"/>
<path d="M418.323 275.17H417.854V280.253H418.323V275.17Z" fill="#C7C7C7"/>
<path d="M420.622 277.485H415.539V277.954H420.622V277.485Z" fill="#C7C7C7"/>
<path d="M416.462 279.674L416.118 279.346L419.715 275.749L420.059 276.077L416.462 279.674Z" fill="#C7C7C7"/>
<path d="M419.715 279.674L416.118 276.077L416.462 275.749L420.059 279.346L419.715 279.674Z" fill="#C7C7C7"/>
<path d="M424.438 275.17H423.969V280.253H424.438V275.17Z" fill="#C7C7C7"/>
<path d="M426.753 277.485H421.67V277.954H426.753V277.485Z" fill="#C7C7C7"/>
<path d="M422.577 279.674L422.249 279.346L425.846 275.749L426.174 276.077L422.577 279.674Z" fill="#C7C7C7"/>
<path d="M425.846 279.674L422.249 276.077L422.577 275.749L426.174 279.346L425.846 279.674Z" fill="#C7C7C7"/>
<path d="M430.569 275.17H430.1V280.253H430.569V275.17Z" fill="#C7C7C7"/>
<path d="M432.868 277.485H427.785V277.954H432.868V277.485Z" fill="#C7C7C7"/>
<path d="M428.708 279.674L428.364 279.346L431.977 275.749L432.305 276.077L428.708 279.674Z" fill="#C7C7C7"/>
<path d="M431.977 279.674L428.364 276.077L428.708 275.749L432.305 279.346L431.977 279.674Z" fill="#C7C7C7"/>
<path d="M436.7 275.17H436.231V280.253H436.7V275.17Z" fill="#C7C7C7"/>
<path d="M438.999 277.485H433.916V277.954H438.999V277.485Z" fill="#C7C7C7"/>
<path d="M434.823 279.674L434.495 279.346L438.092 275.749L438.42 276.077L434.823 279.674Z" fill="#C7C7C7"/>
<path d="M438.092 279.674L434.495 276.077L434.823 275.749L438.42 279.346L438.092 279.674Z" fill="#C7C7C7"/>
<path d="M450.057 275.17H449.587V280.253H450.057V275.17Z" fill="#C7C7C7"/>
<path d="M452.371 277.485H447.288V277.954H452.371V277.485Z" fill="#C7C7C7"/>
<path d="M448.196 279.674L447.867 279.346L451.464 275.749L451.793 276.077L448.196 279.674Z" fill="#C7C7C7"/>
<path d="M451.464 279.674L447.867 276.077L448.196 275.749L451.793 279.346L451.464 279.674Z" fill="#C7C7C7"/>
<path d="M456.187 275.17H455.718V280.253H456.187V275.17Z" fill="#C7C7C7"/>
<path d="M458.487 277.485H453.404V277.954H458.487V277.485Z" fill="#C7C7C7"/>
<path d="M454.311 279.674L453.982 279.346L457.579 275.749L457.923 276.077L454.311 279.674Z" fill="#C7C7C7"/>
<path d="M457.579 279.674L453.982 276.077L454.311 275.749L457.923 279.346L457.579 279.674Z" fill="#C7C7C7"/>
<path d="M462.303 275.17H461.833V280.253H462.303V275.17Z" fill="#C7C7C7"/>
<path d="M464.617 277.485H459.534V277.954H464.617V277.485Z" fill="#C7C7C7"/>
<path d="M460.442 279.674L460.113 279.346L463.71 275.749L464.039 276.077L460.442 279.674Z" fill="#C7C7C7"/>
<path d="M463.71 279.674L460.113 276.077L460.442 275.749L464.039 279.346L463.71 279.674Z" fill="#C7C7C7"/>
<path d="M468.434 275.17H467.964V280.253H468.434V275.17Z" fill="#C7C7C7"/>
<path d="M470.733 277.485H465.65V277.954H470.733V277.485Z" fill="#C7C7C7"/>
<path d="M466.557 279.674L466.228 279.346L469.825 275.749L470.17 276.077L466.557 279.674Z" fill="#C7C7C7"/>
<path d="M469.825 279.674L466.228 276.077L466.557 275.749L470.17 279.346L469.825 279.674Z" fill="#C7C7C7"/>
<path d="M481.79 275.17H481.321V280.253H481.79V275.17Z" fill="#C7C7C7"/>
<path d="M484.105 277.485H479.022V277.954H484.105V277.485Z" fill="#C7C7C7"/>
<path d="M479.929 279.674L479.601 279.346L483.198 275.749L483.526 276.077L479.929 279.674Z" fill="#C7C7C7"/>
<path d="M483.198 279.674L479.601 276.077L479.929 275.749L483.526 279.346L483.198 279.674Z" fill="#C7C7C7"/>
<path d="M487.921 275.17H487.452V280.253H487.921V275.17Z" fill="#C7C7C7"/>
<path d="M490.22 277.485H485.137V277.954H490.22V277.485Z" fill="#C7C7C7"/>
<path d="M486.06 279.674L485.716 279.346L489.329 275.749L489.657 276.077L486.06 279.674Z" fill="#C7C7C7"/>
<path d="M489.329 279.674L485.716 276.077L486.06 275.749L489.657 279.346L489.329 279.674Z" fill="#C7C7C7"/>
<path d="M494.052 275.17H493.583V280.253H494.052V275.17Z" fill="#C7C7C7"/>
<path d="M496.351 277.485H491.268V277.954H496.351V277.485Z" fill="#C7C7C7"/>
<path d="M492.175 279.674L491.847 279.346L495.444 275.749L495.772 276.077L492.175 279.674Z" fill="#C7C7C7"/>
<path d="M495.444 279.674L491.847 276.077L492.175 275.749L495.772 279.346L495.444 279.674Z" fill="#C7C7C7"/>
<path d="M500.167 275.17H499.698V280.253H500.167V275.17Z" fill="#C7C7C7"/>
<path d="M502.466 277.485H497.383V277.954H502.466V277.485Z" fill="#C7C7C7"/>
<path d="M498.306 279.674L497.962 279.346L501.575 275.749L501.903 276.077L498.306 279.674Z" fill="#C7C7C7"/>
<path d="M501.575 279.674L497.962 276.077L498.306 275.749L501.903 279.346L501.575 279.674Z" fill="#C7C7C7"/>
<path d="M528.786 321.149C530.034 313.477 524.826 306.244 517.153 304.996C509.481 303.747 502.248 308.955 501 316.628C499.751 324.301 504.959 331.533 512.632 332.782C520.305 334.03 527.537 328.822 528.786 321.149Z" fill="#C7C7C7"/>
<path d="M521.891 315.334H507.94V328.002H521.891V315.334Z" fill="white"/>
<path d="M520.499 319.244H519.076V313.582C519.076 311.283 517.215 309.422 514.916 309.422C512.617 309.422 510.755 311.283 510.755 313.582V319.244H509.332V313.582C509.332 310.501 511.835 307.998 514.916 307.998C517.997 307.998 520.499 310.501 520.499 313.582V319.244Z" fill="white"/>
<path d="M515.51 321.824L516.089 324.593H513.602L514.181 321.824C513.837 321.605 513.602 321.214 513.602 320.776C513.602 320.088 514.165 319.541 514.837 319.541C515.526 319.541 516.073 320.088 516.073 320.776C516.089 321.214 515.854 321.605 515.51 321.824Z" fill="#C7C7C7"/>
<path d="M182.733 183.842L277.679 199.736L289.208 130.86L194.263 114.966L182.733 183.842Z" fill="#EBEBEB"/>
<path d="M187.328 180.552L274.391 195.126L284.598 134.148L197.535 119.574L187.328 180.552Z" fill="white"/>
<path d="M204.821 138.617C204.149 142.606 206.839 146.375 210.827 147.032C214.815 147.704 218.584 145.014 219.241 141.026C219.914 137.038 217.224 133.268 213.236 132.612C209.247 131.955 205.478 134.629 204.821 138.617Z" fill="#DBDBDB"/>
<path d="M228.188 173.901L276.609 182.018L257.888 145.139L228.188 173.901Z" fill="#DBDBDB"/>
<path d="M209.216 170.742L249.192 177.436L232.77 152.725L209.216 170.742Z" fill="#EBEBEB"/>
<path d="M276.607 182.004L189.544 167.431L187.344 180.573L274.407 195.147L276.607 182.004Z" fill="#EBEBEB"/>
<path d="M155.454 205.619H251.718V135.787H155.454V205.619Z" fill="#EBEBEB"/>
<path d="M159.442 201.6H247.714V139.775H159.442V201.6Z" fill="white"/>
<path d="M169.756 157.354C169.756 161.389 173.025 164.674 177.076 164.674C181.111 164.674 184.396 161.405 184.396 157.354C184.396 153.319 181.127 150.035 177.076 150.035C173.041 150.05 169.756 153.319 169.756 157.354Z" fill="#DBDBDB"/>
<path d="M198.644 188.306H247.738L223.183 155.024L198.644 188.306Z" fill="#DBDBDB"/>
<path d="M179.391 188.321H219.93L199.66 166.644L179.391 188.321Z" fill="#EBEBEB"/>
<path d="M247.722 188.29H159.45V201.615H247.722V188.29Z" fill="#EBEBEB"/>
<path d="M304.589 467.026H166.582V658.006H304.589V467.026Z" fill="#EBEBEB"/>
<path d="M311.283 459.941H159.903V467.026H311.283V459.941Z" fill="#DBDBDB"/>
<path d="M358.875 459.941H311.267V467.026H358.875V459.941Z" fill="#EBEBEB"/>
<path d="M351.353 467.026H304.589V658.006H351.353V467.026Z" fill="#DBDBDB"/>
<path d="M289.747 555.439H181.424V494.193H289.762V555.439H289.747ZM181.815 555.048H289.371V494.584H181.815V555.048Z" fill="#C7C7C7"/>
<path d="M241.56 512.1H220.477V524.221H241.56V512.1Z" fill="#C7C7C7"/>
<path d="M247.988 523.502H226.514V512.82H247.988V523.502ZM226.905 523.111H247.597V513.211H226.905V523.111Z" fill="#C7C7C7"/>
<path d="M289.747 632.325H181.424V571.079H289.762V632.325H289.747ZM181.815 631.934H289.371V571.47H181.815V631.934Z" fill="#C7C7C7"/>
<path d="M241.56 588.987H220.477V601.108H241.56V588.987Z" fill="#C7C7C7"/>
<path d="M247.988 600.388H226.514V589.706H247.988V600.388ZM226.905 599.997H247.597V590.097H226.905V599.997Z" fill="#C7C7C7"/>
<path d="M80.6085 658.069L158.214 657.678L235.804 657.552L391 657.287L546.196 657.537L623.786 657.678L701.391 658.069L623.786 658.444L546.196 658.585L391 658.851L235.804 658.585L158.214 658.444L80.6085 658.069Z" fill="#001729"/>
<path d="M161.561 726.697C199.809 726.697 230.815 720.745 230.815 713.403C230.815 706.061 199.809 700.109 161.561 700.109C123.313 700.109 92.3073 706.061 92.3073 713.403C92.3073 720.745 123.313 726.697 161.561 726.697Z" fill="#EBEBEB"/>
<path d="M419.105 738.896C568.555 738.896 689.708 727.013 689.708 712.355C689.708 697.697 568.555 685.814 419.105 685.814C269.655 685.814 148.502 697.697 148.502 712.355C148.502 727.013 269.655 738.896 419.105 738.896Z" fill="#EBEBEB"/>
<path d="M493.645 480.852L489.094 508.19L458.205 674.96H453.232L475.691 508.19L479.006 480.852H493.645Z" fill="#C7C7C7"/>
<path d="M479.006 480.852H493.645L489.094 508.19H475.691L479.006 480.852Z" fill="#A6A6A6"/>
<path d="M590.629 674.96H585.655L554.766 508.19L550.215 480.852H564.854L568.17 508.19L590.629 674.96Z" fill="#C7C7C7"/>
<path d="M564.854 480.852L568.17 508.19H554.766L550.215 480.852H564.854Z" fill="#A6A6A6"/>
<path d="M683.265 674.96H678.275L647.402 508.19L642.835 480.852H657.49L660.806 508.19L683.265 674.96Z" fill="#C7C7C7"/>
<path d="M660.806 508.19H647.402L642.835 480.852H657.49L660.806 508.19Z" fill="#A6A6A6"/>
<path d="M675.366 493.692H449.071V469.857H533.778L577.898 222.714H698.013L675.366 493.692Z" fill="#C7C7C7"/>
<path d="M674.397 469.857H449.071V493.692H675.241L674.397 469.857Z" fill="#DBDBDB"/>
<path d="M675.366 493.692H663.026L686.268 222.714H698.013L675.366 493.692Z" fill="#DBDBDB"/>
<path d="M678.166 188.118C674.694 184.286 660.399 173.573 648.075 167.708C642.084 164.861 624.036 158.496 621.502 162.922C618.969 167.348 624.067 169.678 624.067 169.678C624.067 169.678 616.044 168.13 613.886 172.822C611.727 177.514 619.798 180.877 619.798 180.877C619.798 180.877 611.43 179.891 609.632 184.708C607.817 189.541 616.497 191.559 616.497 191.559C616.497 191.559 608.896 190.292 609.084 194.906C609.303 200.442 623.582 201.193 630.042 204.681C631.512 205.478 658.616 222.839 658.616 222.839L678.166 188.118Z" fill="#EB9481"/>
<path d="M616.591 191.653C627.086 192.231 631.59 194.296 640.02 200.286C640.192 200.395 640.395 200.176 640.239 200.051C632.513 193.436 627.242 190.026 616.591 191.152C616.075 191.199 616.091 191.621 616.591 191.653Z" fill="#001729"/>
<path d="M619.391 180.689C630.245 182.237 635.14 184.427 644.431 190.057C644.556 190.135 644.712 189.917 644.587 189.838C635.922 183.551 630.589 180.282 619.547 180.157C619.047 180.142 618.89 180.611 619.391 180.689Z" fill="#001729"/>
<path d="M624.943 169.835C635.344 172.087 640.818 174.261 649.138 180.892C649.341 181.049 649.576 180.783 649.404 180.595C641.568 173.025 634.765 170.257 625.053 169.522C624.38 169.475 624.286 169.694 624.943 169.835Z" fill="#001729"/>
<path d="M663.167 228.766C663.167 228.766 650.092 227.093 644.524 225.107C638.941 223.105 620.892 208.012 623.942 203.93C627.868 198.659 640.004 205.322 645.525 209.357C645.525 209.357 654.596 197.158 664.34 200.051C674.068 202.929 663.167 228.766 663.167 228.766Z" fill="#EB9481"/>
<path d="M625.475 202.82C632.529 200.599 639.426 206.37 645.072 209.889C645.494 210.155 645.869 209.904 646.01 209.529C650.155 204.665 657.412 199.019 664.121 199.676C664.325 199.692 664.372 199.426 664.184 199.379C657.083 197.705 649.498 202.663 645.306 208.278C639.567 204.571 632.403 199.097 625.459 202.757C625.412 202.773 625.444 202.835 625.475 202.82Z" fill="#001729"/>
<path d="M552.608 174.886C557.347 172.806 575.521 167.27 589.174 166.91C595.806 166.738 614.871 168.255 615.403 173.338C615.919 178.421 610.304 178.468 610.304 178.468C610.304 178.468 618.265 180.314 618.327 185.475C618.39 190.636 609.647 190.417 609.647 190.417C609.647 190.417 617.686 192.904 617.373 198.065C617.061 203.211 608.318 201.537 608.318 201.537C608.318 201.537 615.778 203.476 613.745 207.605C611.289 212.579 597.949 207.449 590.629 208.012C588.971 208.137 557.144 212.986 557.144 212.986L552.608 174.886Z" fill="#EB9481"/>
<path d="M608.193 201.584C598.371 197.846 593.429 197.893 583.278 199.942C583.075 199.989 582.981 199.692 583.184 199.629C592.944 196.72 599.137 195.75 608.412 201.115C608.85 201.381 608.662 201.772 608.193 201.584Z" fill="#001729"/>
<path d="M610.085 190.433C599.544 187.43 594.179 187.445 583.388 188.806C583.231 188.822 583.184 188.571 583.341 188.54C593.804 186.319 600.013 185.49 610.148 189.87C610.617 190.073 610.57 190.573 610.085 190.433Z" fill="#001729"/>
<path d="M609.428 178.265C599.012 176.091 593.131 175.872 582.825 178.531C582.574 178.593 582.465 178.249 582.7 178.155C592.944 174.417 600.279 174.652 609.444 177.936C610.085 178.155 610.085 178.39 609.428 178.265Z" fill="#001729"/>
<path d="M550.559 216.567C550.559 216.567 563.181 220.352 569.093 220.79C575.005 221.228 597.636 214.768 596.51 209.811C595.071 203.398 581.261 204.556 574.582 206.01C574.582 206.01 571.251 191.168 561.179 189.854C551.091 188.54 550.559 216.567 550.559 216.567Z" fill="#EB9481"/>
<path d="M595.524 208.184C589.988 203.289 581.339 205.76 574.754 206.683C574.254 206.745 574.019 206.37 574.035 205.979C572.221 199.848 567.888 191.731 561.492 189.604C561.304 189.541 561.367 189.26 561.57 189.307C568.749 190.652 573.644 198.284 575.208 205.119C581.949 204.071 590.739 201.975 595.587 208.137C595.603 208.168 595.571 208.215 595.524 208.184Z" fill="#001729"/>
<path d="M588.58 270.9C552.796 261.251 496.445 228.891 501.622 213.298C506.642 198.174 527.772 182.347 554.845 173.917C558.786 172.697 557.91 180.955 559.787 195.375C560.678 202.194 572.659 220.571 566.872 220.54C563.587 220.524 560.678 221.509 558.113 222.495C556.002 223.308 581.386 240.246 595.571 250.881C614.636 265.145 603.86 275.014 588.58 270.9Z" fill="#EB9481"/>
<path d="M536.921 259.921L576.584 235.085C576.584 235.085 600.404 249.567 606.285 257.575C612.165 265.583 607.536 274.279 589.065 274.294C567.873 274.326 536.921 259.921 536.921 259.921Z" fill="#00A884"/>
<g opacity="0.1">
<path d="M586.735 241.622H566.137L569.796 239.339H583.278C584.357 240.043 585.515 240.809 586.735 241.622Z" fill="black"/>
<path d="M597.198 249.13H554.156L557.801 246.846H594.179C595.196 247.612 596.212 248.379 597.198 249.13Z" fill="black"/>
<path d="M605.503 256.621H542.192L545.836 254.338H603.329C604.158 255.135 604.893 255.902 605.503 256.621Z" fill="black"/>
<path d="M608.678 264.128H546.931C544.757 263.284 542.849 262.502 541.3 261.845H608.38C608.599 262.627 608.693 263.378 608.678 264.128Z" fill="black"/>
<path d="M606.425 269.352C605.612 270.197 604.564 270.963 603.282 271.62H570.078C567.294 270.932 564.542 270.165 561.867 269.352H606.425Z" fill="black"/>
</g>
<path d="M547.337 262.971C563.321 253.227 579.134 242.217 581.777 240.058C581.902 239.965 581.745 239.792 581.62 239.855C578.445 241.372 556.987 254.916 547.181 262.783C547.087 262.862 547.212 263.034 547.337 262.971Z" fill="#001729"/>
<path d="M589.065 274.31C581.98 274.31 573.816 272.715 566.074 270.572C576.443 263.612 588.768 255.401 597.792 249.599C601.436 252.461 604.595 255.292 606.285 257.591C612.165 265.598 607.536 274.294 589.065 274.31Z" fill="#001729"/>
<path d="M457.83 706.74C462.225 707.163 582.043 678.62 585.827 674.741C586.297 674.303 583.935 663.417 580.479 648.575L580.416 648.278C578.258 638.863 543.349 562.712 543.349 562.712L465.697 584.357L500.98 655.003C500.98 655.003 486.357 665.56 473.829 675.57C473.814 675.585 473.798 675.601 473.798 675.617C466.056 681.763 459.394 687.3 457.97 689.083C454.295 693.775 453.451 706.349 457.83 706.74Z" fill="#EB9481"/>
<path d="M457.845 706.725C462.24 707.147 582.058 678.604 585.843 674.725C586.297 674.287 583.935 663.402 580.479 648.544L580.4 648.262C579.603 644.759 574.238 631.95 567.826 617.295C555.048 620.736 509.238 633.107 492.597 638.253L500.949 655.003C500.949 655.003 486.341 665.56 473.798 675.57C473.798 675.585 473.783 675.585 473.783 675.601C466.041 681.748 459.362 687.284 457.955 689.067C454.295 693.775 453.435 706.365 457.845 706.725Z" fill="#EBEBEB"/>
<path d="M457.439 707.303C461.959 707.694 581.871 678.823 585.749 674.835C587.235 673.333 584.576 654.409 578.007 634.358L500.73 653.064C500.73 653.064 461.255 684.313 457.486 689.145C453.716 693.978 452.919 706.912 457.439 707.303Z" fill="#00A884"/>
<path d="M458.002 702.095C477.974 696.762 559.067 677.134 579.227 673.396C579.384 673.365 579.415 673.474 579.259 673.521C559.568 679.245 478.318 698.201 458.08 702.424C457.658 702.517 457.579 702.205 458.002 702.095Z" fill="#001729"/>
<path d="M464.148 682.983C468.872 681.638 474.064 682.78 477.348 685.001C480.508 687.128 483.558 690.443 484.418 694.651C484.449 694.776 484.23 694.823 484.168 694.713C481.133 687.128 472.312 681.935 464.195 683.249C464.054 683.249 463.992 683.03 464.148 682.983Z" fill="#001729"/>
<path d="M494.912 656.598C502.936 654.55 512.945 655.144 519.53 660.524C519.78 660.727 519.483 661.087 519.217 661.025C511.037 659.023 503.452 657.897 495.022 657.631C494.412 657.615 494.334 656.755 494.912 656.598Z" fill="#001729"/>
<path d="M489.282 660.524C497.305 658.475 507.315 659.07 513.899 664.45C514.149 664.653 513.852 665.013 513.586 664.95C505.407 662.948 497.821 661.822 489.391 661.556C488.797 661.525 488.703 660.665 489.282 660.524Z" fill="#001729"/>
<path d="M483.651 664.434C491.675 662.385 501.684 662.98 508.269 668.36C508.519 668.563 508.222 668.923 507.956 668.86C499.776 666.858 492.191 665.732 483.761 665.466C483.166 665.435 483.088 664.59 483.651 664.434Z" fill="#001729"/>
<path d="M478.037 668.36C486.06 666.311 496.07 666.905 502.654 672.285C502.904 672.489 502.607 672.848 502.341 672.786C494.161 670.784 486.576 669.658 478.146 669.392C477.536 669.361 477.458 668.5 478.037 668.36Z" fill="#001729"/>
<path d="M569.515 655.535C578.539 653.392 581.902 667.421 572.846 669.58C563.822 671.722 560.475 657.678 569.515 655.535Z" fill="#001729"/>
<path d="M484.527 648.872C490.22 653.424 497.68 655.363 504.359 657.943C505.047 658.209 505.61 657.568 505.641 656.943C505.782 656.927 505.891 656.817 505.844 656.645C503.733 649.826 499.01 642.538 493.583 637.83C490.22 634.921 484.308 632.857 481.039 637.22C477.974 641.349 481.211 646.213 484.527 648.872ZM482.557 642.288C481.243 633.342 490.768 638.159 493.145 640.395C494.678 641.834 496.069 643.476 497.383 645.119C500.152 648.544 502.388 652.282 504.781 655.942C501.575 654.471 498.275 653.283 495.022 651.938C491.159 650.342 483.276 647.23 482.557 642.288Z" fill="#001729"/>
<path d="M533.183 644.649C531.291 639.551 525.019 639.848 520.984 641.694C514.447 644.665 507.862 650.327 503.905 656.27C503.811 656.411 503.89 656.552 504.015 656.598C503.874 657.208 504.234 657.975 504.969 657.928C512.101 657.334 519.811 657.599 526.552 654.831C530.493 653.205 534.982 649.467 533.183 644.649ZM515.604 654.815C512.101 655.191 508.597 655.394 505.109 655.895C508.456 653.064 511.647 650.092 515.275 647.605C517.011 646.417 518.81 645.228 520.687 644.274C523.612 642.804 534.106 640.865 530.321 649.076C528.225 653.596 519.78 654.362 515.604 654.815Z" fill="#001729"/>
<path d="M494.099 645.807L576.569 623.739C576.569 623.739 504.109 473.454 509.958 465.181C512.883 461.052 590.175 457.564 614.136 435.965C645.275 407.922 622.613 367.149 622.613 367.149H536.186C536.186 367.149 537.766 385.182 534.481 387.997C532.307 389.874 429.678 401.588 419.418 436.653C406.812 479.632 494.099 645.807 494.099 645.807Z" fill="#001729"/>
<path d="M492.66 633.717C494.803 632.622 497.164 631.934 499.432 631.168C501.825 630.339 504.218 629.51 506.626 628.712C511.365 627.164 516.12 625.678 520.906 624.302C530.556 621.518 540.206 618.797 549.934 616.263C555.001 614.949 565.855 612.071 566.528 612.181C566.856 612.228 566.934 612.775 566.637 612.869C557.253 616.279 547.728 619.219 538.188 622.175C528.679 625.131 519.139 628.055 509.489 630.542C506.814 631.23 504.124 631.84 501.45 632.497C498.65 633.185 495.804 634.092 492.91 634.374C492.629 634.39 492.347 633.858 492.66 633.717Z" fill="#455A64"/>
<path d="M494.959 458.44C496.648 456.907 499.245 456.641 501.418 456.219C513.821 453.763 526.224 451.292 538.626 448.837C550.231 446.538 561.914 444.442 573.456 441.861C583.012 439.719 592.709 436.919 600.873 431.461C609.037 425.987 614.558 417.963 617.186 408.72C619.813 399.477 619.735 389.608 618.531 380.161C618.234 377.847 617.749 375.548 617.248 373.264C617.217 373.092 617.483 373.03 617.53 373.202C621.221 390.812 622.112 411.363 609.272 425.877C603.016 432.946 594.242 437.247 585.264 440.141C575.13 443.394 564.479 445.114 554.047 447.179C541.645 449.634 529.242 452.09 516.84 454.545C510.865 455.718 504.797 456.688 498.885 458.111C497.743 458.377 496.476 458.752 495.679 459.644C494.584 460.864 494.944 462.553 495.288 463.992C495.976 466.917 496.852 469.794 497.79 472.656C505.282 495.694 557.863 604.861 559.286 607.364C559.443 607.63 559.021 607.849 558.864 607.583C546.821 587.532 507.628 503.264 499.432 481.493C497.336 475.925 495.381 470.295 494.021 464.524C493.505 462.412 493.192 460.066 494.959 458.44Z" fill="#455A64"/>
<path d="M246.783 709.743C250.897 711.385 373.905 717.657 378.613 714.998C379.176 714.717 379.974 703.597 380.834 688.379L381.46 674.021C381.663 669.173 444.989 598.59 444.989 598.59L356.701 593.257L302.712 672.223C302.712 672.223 285.727 678.244 270.885 684.328C270.869 684.344 270.853 684.344 270.853 684.359C261.704 688.082 253.743 691.523 251.882 692.836C247.034 696.308 242.67 708.148 246.783 709.743Z" fill="#EB9481"/>
<path d="M397.584 652.829C388.388 663.762 381.522 672.426 381.46 674.021L380.818 688.379C379.974 703.612 379.176 714.717 378.613 714.998C373.89 717.657 250.881 711.385 246.784 709.743C242.686 708.132 247.034 696.293 251.882 692.836C253.743 691.523 261.704 688.097 270.838 684.359C270.838 684.344 270.869 684.344 270.885 684.328C285.727 678.229 302.712 672.223 302.712 672.223L318.305 649.42L397.584 652.829Z" fill="#EBEBEB"/>
<path d="M246.236 710.181C250.475 711.823 373.655 717.813 378.488 715.076C380.333 714.044 383.102 695.151 382.429 674.053L303.009 670.283C303.009 670.283 256.355 689.177 251.366 692.758C246.424 696.34 242.013 708.539 246.236 710.181Z" fill="#00A884"/>
<path d="M248.254 705.348C268.93 705.849 352.26 709.806 372.67 711.855C372.842 711.87 372.826 711.98 372.67 711.98C352.166 711.933 268.867 707.303 248.254 705.677C247.8 705.646 247.816 705.333 248.254 705.348Z" fill="#001729"/>
<path d="M259.514 688.723C264.425 688.754 269.102 691.319 271.62 694.369C274.044 697.294 276.046 701.345 275.702 705.614C275.686 705.739 275.467 705.724 275.452 705.599C274.67 697.466 267.663 690.005 259.499 688.973C259.342 688.958 259.358 688.723 259.514 688.723Z" fill="#001729"/>
<path d="M296.44 672.051C304.714 672.332 314.145 675.726 318.962 682.733C319.15 682.999 318.759 683.265 318.524 683.124C311.236 678.917 304.276 675.695 296.253 673.067C295.69 672.88 295.862 672.035 296.44 672.051Z" fill="#001729"/>
<path d="M289.95 674.225C298.223 674.506 307.654 677.9 312.472 684.907C312.659 685.173 312.268 685.439 312.034 685.298C304.745 681.091 297.786 677.869 289.762 675.241C289.184 675.054 289.356 674.209 289.95 674.225Z" fill="#001729"/>
<path d="M283.444 676.414C291.717 676.696 301.148 680.09 305.965 687.096C306.153 687.362 305.762 687.628 305.527 687.487C298.239 683.28 291.279 680.058 283.256 677.431C282.693 677.228 282.849 676.383 283.444 676.414Z" fill="#001729"/>
<path d="M276.937 678.588C285.211 678.87 294.642 682.264 299.459 689.27C299.647 689.536 299.256 689.802 299.021 689.661C291.733 685.454 284.773 682.232 276.75 679.605C276.187 679.402 276.359 678.557 276.937 678.588Z" fill="#001729"/>
<path d="M368.353 691.992C377.628 692.477 376.893 706.881 367.618 706.396C358.344 705.911 359.063 691.507 368.353 691.992Z" fill="#001729"/>
<path d="M288.652 661.713C292.828 667.687 299.459 671.644 305.136 675.992C305.731 676.446 306.45 675.976 306.653 675.398C306.794 675.413 306.919 675.351 306.919 675.179C306.81 668.031 304.323 659.711 300.429 653.674C298.02 649.951 292.921 646.307 288.574 649.56C284.476 652.657 286.212 658.225 288.652 661.713ZM288.605 654.847C289.872 645.901 297.645 653.189 299.303 656.02C300.366 657.834 301.242 659.805 302.055 661.744C303.76 665.81 304.839 670.033 306.122 674.209C303.463 671.894 300.616 669.83 297.879 667.625C294.611 664.981 287.917 659.773 288.605 654.847Z" fill="#001729"/>
<path d="M336.541 671.331C336.15 665.904 330.051 664.434 325.672 665.06C318.555 666.076 310.657 669.658 305.183 674.256C305.043 674.366 305.089 674.522 305.183 674.6C304.87 675.132 304.996 675.992 305.731 676.133C312.753 677.572 320.073 679.98 327.314 679.23C331.552 678.792 336.901 676.461 336.541 671.331ZM316.819 676.148C313.347 675.523 309.938 674.725 306.45 674.24C310.454 672.457 314.348 670.518 318.54 669.142C320.526 668.485 322.591 667.844 324.655 667.468C327.877 666.874 338.481 667.969 332.553 674.788C329.269 678.526 320.948 676.899 316.819 676.148Z" fill="#001729"/>
<path d="M298.943 655.707L397.569 667.765C397.569 667.765 495.115 551.06 502.998 543.287C527.428 519.201 615.027 477.646 641.146 438.968C664.606 404.231 640.849 367.118 640.849 367.118H544.538C544.538 367.118 547.994 382.304 554.36 397.162C554.36 397.162 474.377 457.392 431.727 500.449C404.263 528.178 298.943 655.707 298.943 655.707Z" fill="#001729"/>
<path d="M537.25 391.063C540.049 391.469 542.817 392.517 545.476 393.44C548.276 394.409 551.028 395.52 553.719 396.74C559.052 399.148 564.15 401.932 569.202 404.904C569.359 404.998 569.218 405.217 569.061 405.139C563.775 402.589 558.332 400.321 552.874 398.147C550.246 397.1 547.619 396.067 545.007 395.035C542.364 393.987 539.564 393.111 537.046 391.798C536.702 391.626 536.874 391.016 537.25 391.063Z" fill="#455A64"/>
<path d="M542.317 367.149C543.553 371.513 544.647 375.907 546.039 380.224C546.681 382.21 547.306 384.212 548.119 386.136C548.808 387.747 549.824 389.592 551.732 389.905C553.922 390.265 554.501 388.372 554.266 386.574C554.016 384.572 553.437 382.57 552.984 380.599C552.452 378.332 549.887 367.321 549.887 367.258C549.856 367.086 549.856 367.055 549.981 366.93C550.043 366.883 550.121 366.883 550.184 366.914C550.606 367.133 553.265 375.595 553.859 377.69C554.454 379.786 555.032 381.898 555.627 383.993C556.065 385.573 556.581 387.215 556.19 388.857C555.783 390.656 554.376 391.594 552.827 391.766C552.905 391.907 552.999 392.048 553.077 392.189C553.281 392.611 553.437 393.08 553.609 393.518C553.797 393.972 553.953 394.41 554.094 394.879C554.157 395.098 554.203 395.332 554.235 395.551C554.266 395.801 554.219 396.052 554.266 396.302C554.329 396.693 553.797 396.943 553.593 396.568C553.468 396.349 553.296 396.177 553.171 395.974C553.03 395.755 552.921 395.489 552.843 395.254C552.686 394.816 552.546 394.378 552.42 393.94C552.295 393.502 552.139 393.064 552.045 392.611C551.983 392.345 551.967 392.079 551.936 391.798C551.044 391.735 550.137 391.454 549.371 390.906C548.026 389.952 547.212 388.466 546.634 386.965C545.914 385.151 545.351 383.274 544.773 381.413C543.365 376.815 542.145 372.123 541.551 367.337C541.473 366.836 542.176 366.633 542.317 367.149Z" fill="#455A64"/>
<path d="M599.857 376.205C600.326 378.379 600.639 380.568 601.202 382.711C601.749 384.807 602.39 386.902 603.157 388.951C603.876 390.891 604.752 392.861 606.003 394.535C607.207 396.161 608.787 397.538 610.398 398.757C613.573 401.119 617.123 402.965 620.877 404.2C622.769 404.81 624.709 405.326 626.664 405.702C627.68 405.905 628.712 406.046 629.745 406.14C630.605 406.218 631.449 406.233 632.231 406.64C632.56 406.812 632.529 407.328 632.216 407.5C630.918 408.188 629.057 407.876 627.665 407.782C626.022 407.657 624.38 407.438 622.769 407.078C619.516 406.343 616.357 405.076 613.448 403.465C610.586 401.885 607.708 399.884 605.565 397.397C603.344 394.816 602.046 391.751 601.186 388.498C600.154 384.588 599.387 380.334 599.481 376.283C599.45 376.001 599.81 375.954 599.857 376.205Z" fill="#455A64"/>
<path d="M320.62 641.193C323.263 641.037 325.953 641.334 328.596 641.506C331.38 641.694 334.18 641.866 336.964 642.085C342.453 642.522 347.927 643.039 353.386 643.664C364.396 644.915 375.391 646.213 386.371 647.731C392.095 648.513 404.372 650.17 405.013 650.53C405.326 650.702 405.186 651.234 404.841 651.218C393.847 650.655 382.883 649.592 371.919 648.544C360.971 647.512 350.023 646.432 339.138 644.915C336.119 644.493 333.116 643.993 330.114 643.539C326.97 643.07 323.686 642.788 320.604 641.897C320.323 641.803 320.26 641.209 320.62 641.193Z" fill="#455A64"/>
<path d="M532.964 520.859C527.85 524.143 522.908 527.678 517.95 531.181C513.352 534.419 508.519 537.484 504.343 541.253C502.169 543.224 500.245 545.445 498.337 547.65C496.382 549.918 494.412 552.186 492.457 554.438C488.531 558.974 484.652 563.525 480.774 568.107C478.584 570.688 476.41 573.3 474.252 575.896C472 578.602 469.904 581.448 467.636 584.154C467.495 584.326 467.73 584.561 467.886 584.389C471.906 579.869 476.144 575.536 480.148 571.001C484.152 566.465 488.171 561.93 492.113 557.331C495.929 552.905 499.604 548.307 503.671 544.1C507.643 539.987 512.507 536.827 517.152 533.527C522.642 529.617 528.163 525.77 533.465 521.625C533.903 521.281 533.48 520.53 532.964 520.859Z" fill="#455A64"/>
<path d="M552.827 397.897C536.374 409.44 519.357 422.343 503.905 435.167C488.422 448.008 473.126 461.052 458.174 474.486C453.982 478.256 449.822 482.056 445.709 485.904C441.548 489.798 437.482 494.646 433.322 498.525C433.103 498.728 433.447 499.057 433.666 498.853C441.189 492.113 448.962 484.777 456.579 478.146C464.148 471.562 471.749 465.024 479.366 458.487C494.678 445.38 510.192 432.524 525.864 419.84C534.575 412.787 544.71 405.655 553.234 398.382C553.5 398.147 553.109 397.678 552.827 397.897Z" fill="#455A64"/>
<path d="M637.94 378.519C637.002 375.751 636.001 372.998 634.968 370.246C634.906 370.089 634.656 370.152 634.718 370.324C638.597 381.772 642.57 393.502 642.976 405.702C643.179 411.535 642.476 417.416 640.474 422.937C638.55 428.255 635.422 433.025 631.684 437.247C624.021 445.912 614.277 452.715 605.065 459.613C595.055 467.12 584.874 474.377 574.567 481.446C564.26 488.515 553.703 495.256 543.052 501.778C532.48 508.253 521.594 514.181 510.99 520.593C505.86 523.69 501.012 527.146 496.633 531.244C492.191 535.404 488.218 540.018 484.215 544.585C475.644 554.391 467.167 564.26 458.737 574.176C441.877 594.023 425.314 614.12 409.111 634.499C407.125 637.002 405.139 639.488 403.168 641.991C403.074 642.116 403.246 642.288 403.34 642.163C420.028 621.737 436.872 601.436 453.92 581.323C462.397 571.329 470.905 561.351 479.476 551.451C487.671 541.973 495.569 531.932 506.017 524.8C511.068 521.344 516.449 518.435 521.766 515.401C527.318 512.241 532.824 509.019 538.282 505.735C549.136 499.198 559.834 492.394 570.375 485.341C580.838 478.334 591.161 471.155 601.28 463.663C606.347 459.925 611.352 456.125 616.326 452.262C620.595 448.946 624.834 445.568 628.697 441.783C632.513 438.076 636.001 433.947 638.613 429.287C641.35 424.407 642.961 418.996 643.539 413.428C644.822 401.588 641.709 389.655 637.94 378.519Z" fill="#455A64"/>
<path d="M528.976 384.103C530.696 387.387 651.046 415.195 651.813 414.648C653.893 413.162 660.806 302.947 629.072 253.681C623.473 245.001 609.897 243.39 602.922 245.204C599.434 246.111 585.092 258.326 578.523 270.541C571.986 282.74 527.912 382.007 528.976 384.103Z" fill="#00A884"/>
<g opacity="0.1">
<path d="M624.615 249.13H596.916C598.011 248.222 599.028 247.456 599.919 246.846H620.486C621.956 247.456 623.348 248.207 624.615 249.13Z" fill="black"/>
<path d="M630.871 256.621H588.94C589.675 255.823 590.426 255.073 591.161 254.338H629.479C629.963 255.088 630.417 255.839 630.871 256.621Z" fill="black"/>
<path d="M634.843 264.128H582.637C583.2 263.346 583.794 262.596 584.389 261.845H633.717C634.108 262.596 634.468 263.362 634.843 264.128Z" fill="black"/>
<path d="M638.081 271.62H577.976C578.179 271.213 578.367 270.854 578.523 270.541C578.742 270.15 578.961 269.743 579.196 269.352H637.158C637.471 270.103 637.783 270.854 638.081 271.62Z" fill="black"/>
<path d="M640.802 279.127H574.332C574.723 278.314 575.083 277.563 575.411 276.844H640.02C640.286 277.594 640.552 278.361 640.802 279.127Z" fill="black"/>
<path d="M643.117 286.634H570.86C571.22 285.852 571.564 285.086 571.908 284.351H642.444C642.679 285.102 642.898 285.868 643.117 286.634Z" fill="black"/>
<path d="M645.087 294.126H567.435C567.779 293.344 568.123 292.593 568.467 291.842H644.524C644.712 292.609 644.9 293.359 645.087 294.126Z" fill="black"/>
<path d="M646.792 301.633H564.025C564.369 300.867 564.729 300.1 565.058 299.35H646.292C646.464 300.1 646.636 300.867 646.792 301.633Z" fill="black"/>
<path d="M648.231 309.14H560.663C561.007 308.374 561.335 307.608 561.679 306.857H647.824C647.965 307.608 648.106 308.374 648.231 309.14Z" fill="black"/>
<path d="M649.498 316.632H557.316C557.66 315.865 557.988 315.099 558.332 314.348H649.122C649.248 315.099 649.373 315.865 649.498 316.632Z" fill="black"/>
<path d="M650.546 324.139H553.984C554.313 323.388 554.657 322.622 554.985 321.856H650.249C650.358 322.622 650.452 323.373 650.546 324.139Z" fill="black"/>
<path d="M651.453 331.631H550.684C551.013 330.864 551.341 330.113 551.685 329.347H651.187C651.281 330.113 651.359 330.864 651.453 331.631Z" fill="black"/>
<path d="M652.188 339.138H547.4C547.713 338.387 548.057 337.621 548.385 336.854H651.969C652.047 337.621 652.11 338.371 652.188 339.138Z" fill="black"/>
<path d="M652.782 346.645H544.131C544.444 345.894 544.788 345.128 545.116 344.362H652.61C652.673 345.128 652.735 345.879 652.782 346.645Z" fill="black"/>
<path d="M653.251 354.137H540.894C541.206 353.386 541.535 352.619 541.863 351.853H653.126C653.173 352.619 653.205 353.386 653.251 354.137Z" fill="black"/>
<path d="M653.58 361.644H537.688C538 360.893 538.329 360.142 538.657 359.36H653.502C653.533 360.127 653.564 360.893 653.58 361.644Z" fill="black"/>
<path d="M653.814 369.135H534.544C534.857 368.4 535.169 367.634 535.498 366.852H653.768C653.783 367.618 653.799 368.385 653.814 369.135Z" fill="black"/>
<path d="M653.908 376.643H531.51C531.776 375.923 532.088 375.157 532.401 374.359H653.893C653.908 375.125 653.908 375.892 653.908 376.643Z" fill="black"/>
<path d="M653.908 381.866C653.908 382.633 653.908 383.399 653.893 384.15H529.007C528.992 384.134 528.992 384.118 528.976 384.103C528.898 383.931 529.085 383.149 529.539 381.866H653.908Z" fill="black"/>
<path d="M653.814 389.358C653.799 390.14 653.768 390.891 653.752 391.641H553.718C550.637 390.844 547.76 390.077 545.116 389.358H653.814Z" fill="black"/>
<path d="M653.564 396.865C653.533 397.647 653.502 398.413 653.47 399.148H583.841C580.697 398.382 577.569 397.631 574.504 396.865H653.564Z" fill="black"/>
<path d="M653.158 404.357C653.095 405.154 653.048 405.921 652.985 406.64H615.418C612.259 405.905 608.975 405.139 605.643 404.357H653.158Z" fill="black"/>
<path d="M652.438 411.864C652.313 412.912 652.172 413.678 652.031 414.147H648.841C646.495 413.678 642.851 412.88 638.268 411.864H652.438Z" fill="black"/>
</g>
<path d="M623.645 279.018C645.275 277.266 681.122 269.508 700.625 258.623C712.324 252.101 714.091 243.311 714.701 237.196C716.265 221.322 689.833 195.594 675.945 185.991C674.115 184.724 671.441 194.045 663.042 204.509C655.926 213.377 642.507 223.37 644.524 225.091C647.48 227.593 661.259 237.087 660.602 238.228C659.476 240.183 646.698 245.595 627.555 254.885C601.89 267.319 608.318 280.269 623.645 279.018Z" fill="#EB9481"/>
<path d="M680.543 272.902L643.445 244.375C643.445 244.375 618.343 256.512 611.727 263.925C605.111 271.338 608.881 280.425 627.273 282.224C648.356 284.273 680.543 272.902 680.543 272.902Z" fill="#00A884"/>
<path d="M671.206 273.794C657.193 261.376 642.038 249.489 639.191 247.597C639.066 247.519 638.941 247.706 639.035 247.8C641.412 250.381 660.649 266.928 671.05 273.997C671.175 274.075 671.316 273.888 671.206 273.794Z" fill="#001729"/>
<path d="M648.732 279.33C645.948 279.972 643.304 280.738 640.974 282.458C639.832 283.303 638.847 284.257 637.971 285.367C637.533 285.915 637.127 286.447 636.783 287.072C636.485 287.635 636.094 288.245 635.891 288.84C635.844 288.98 636.032 289.058 636.126 288.965C636.579 288.511 636.955 287.979 637.408 287.526C637.877 287.072 638.315 286.587 638.784 286.134C639.754 285.211 640.802 284.351 641.866 283.553C643.961 282.005 646.292 280.394 648.825 279.674C649.076 279.612 648.966 279.268 648.732 279.33Z" fill="#001729"/>
<g opacity="0.1">
<path d="M649.623 249.13H634.171C635.766 248.285 637.236 247.503 638.519 246.846H646.651L649.623 249.13Z" fill="black"/>
<path d="M659.367 256.621H621.221C622.409 255.855 623.661 255.088 624.912 254.338H656.395L659.367 256.621Z" fill="black"/>
<path d="M669.126 264.128H611.555C611.602 264.066 611.665 263.988 611.727 263.925C612.322 263.268 613.057 262.564 613.917 261.845H666.17L669.126 264.128Z" fill="black"/>
<path d="M678.87 271.62H608.74C608.646 270.869 608.693 270.118 608.834 269.352H675.929L678.87 271.62Z" fill="black"/>
<path d="M667.609 276.844C664.825 277.594 661.713 278.392 658.413 279.127H615.027C613.667 278.439 612.525 277.673 611.602 276.844H667.609Z" fill="black"/>
</g>
<path d="M599.7 265.552C605.894 268.148 618.609 260.14 624.317 252.883C624.708 252.383 626.085 230.111 626.82 225.717C626.976 224.809 598.199 227.812 598.199 227.812C598.199 227.812 599.372 237.462 598.042 245.094C597.917 245.736 593.71 263.034 599.7 265.552Z" fill="#EB9481"/>
<path d="M597.542 246.862C597.526 246.94 597.479 247.049 597.464 247.143L597.604 247.175C598.418 247.44 599.293 247.628 600.263 247.785C615.278 249.943 623.395 232.395 625.975 225.544C621.221 225.404 598.183 227.812 598.183 227.812C598.183 227.812 599.356 237.462 598.027 245.094C597.995 245.298 597.948 245.517 597.902 245.704C597.823 246.111 597.698 246.502 597.542 246.862Z" fill="#001729"/>
<path d="M594.414 176.529C594.414 176.529 585.03 180.314 583.216 189.791C581.401 199.269 583.466 209.248 584.279 209.748C585.108 210.233 594.414 176.529 594.414 176.529Z" fill="#001729"/>
<path d="M630.589 190.699C633.592 200.599 628.306 229.157 621.268 235.507C611.055 244.719 594.351 245.579 586.531 233.302C578.946 221.4 586.484 184.302 594.351 178.531C605.94 170.038 626.147 176.091 630.589 190.699Z" fill="#EB9481"/>
<path d="M584.498 201.584C583.826 204.149 583.591 206.917 583.403 209.56C583.2 212.329 583.184 215.097 583.2 217.865C583.2 218.022 583.45 218.006 583.45 217.85C583.466 215.128 583.638 212.407 583.872 209.701C584.107 207.011 584.529 204.305 584.686 201.615C584.701 201.49 584.529 201.49 584.498 201.584Z" fill="#001729"/>
<path d="M602.171 207.949C602.202 207.887 602.312 208.075 602.281 208.153C601.874 210.061 601.733 212.329 603.36 213.283C603.407 213.314 603.391 213.408 603.329 213.392C601.264 212.688 601.483 209.701 602.171 207.949Z" fill="#001729"/>
<path d="M604.267 206.245C607.411 206.573 606.535 212.813 603.626 212.516C600.748 212.235 601.624 205.979 604.267 206.245Z" fill="#001729"/>
<path d="M591.442 206.745C591.442 206.667 591.27 206.808 591.27 206.902C591.067 208.841 590.488 211.046 588.658 211.437C588.596 211.453 588.596 211.547 588.658 211.547C590.832 211.531 591.552 208.622 591.442 206.745Z" fill="#001729"/>
<path d="M589.988 204.477C586.907 203.805 585.781 210.014 588.643 210.64C591.458 211.249 592.568 205.04 589.988 204.477Z" fill="#001729"/>
<path d="M607.129 203.727C606.3 203.398 605.612 202.945 604.83 202.538C603.954 202.069 603.204 201.787 602.719 200.88C602.453 200.395 602.703 199.613 603.157 199.316C604.204 198.612 605.424 198.925 606.504 199.441C607.677 200.004 608.443 200.739 608.99 201.912C609.522 203.038 608.208 204.165 607.129 203.727Z" fill="#001729"/>
<path d="M588.017 200.99C588.909 200.974 589.722 200.802 590.598 200.692C591.583 200.567 592.381 200.567 593.163 199.895C593.585 199.535 593.632 198.706 593.319 198.268C592.584 197.236 591.333 197.095 590.144 197.189C588.846 197.299 587.876 197.721 586.938 198.612C586.015 199.488 586.844 201.021 588.017 200.99Z" fill="#001729"/>
<path d="M601.984 226.217C601.452 226.608 600.904 227.171 600.201 227.124C599.513 227.093 598.777 226.671 598.183 226.342C598.121 226.311 598.058 226.373 598.089 226.436C598.496 227.249 599.481 227.859 600.404 227.828C601.295 227.797 601.843 227.093 602.171 226.326C602.203 226.233 602.046 226.17 601.984 226.217Z" fill="#001729"/>
<path d="M600.748 220.133C599.434 221.666 597.698 222.354 595.931 222.448C595.133 222.495 594.32 222.401 593.538 222.229C593.382 222.197 593.225 222.166 593.084 222.119C592.944 222.088 592.819 222.041 592.662 221.994C592.443 221.932 592.349 221.728 592.334 221.509V221.494C592.349 221.415 592.349 221.369 592.381 221.29C592.381 221.29 592.381 221.29 592.381 221.275L592.412 221.103C592.584 219.601 593.038 217.365 593.038 217.365C592.459 217.568 589.503 218.428 589.659 217.646C590.942 211.249 592.381 204.133 595.008 198.034C595.086 197.83 595.399 197.924 595.352 198.128C594.351 204.321 592.287 210.311 591.192 216.52C592.13 216.301 593.663 215.879 594.445 216.004C594.648 216.098 593.476 220.336 593.46 221.009C593.46 221.009 593.46 221.04 593.46 221.087C595.915 221.76 597.917 221.259 600.592 219.914C600.748 219.851 600.889 220.008 600.748 220.133Z" fill="#001729"/>
<path d="M594.539 221.603C594.539 221.603 595.618 223.574 597.338 224.465C597.98 224.794 598.684 224.997 599.466 224.903C601.076 224.716 601.311 223.292 601.186 222.041C601.092 221.009 600.748 220.086 600.748 220.086C600.748 220.086 598.183 221.885 594.539 221.603Z" fill="#001729"/>
<path d="M597.323 224.465C597.964 224.794 598.668 224.997 599.45 224.903C601.061 224.716 601.295 223.292 601.17 222.041C599.497 221.979 597.698 222.87 597.323 224.465Z" fill="#FF98B9"/>
<path d="M628.274 213.861C625.006 214.331 622.879 204.368 622.425 200.599C622.034 197.267 622.566 187.007 622.535 186.304C622.488 185.584 607.52 193.107 599.997 189.572C592.474 186.038 588.33 178.155 588.736 174.84C589.143 171.524 600.232 164.674 608.756 165.565C617.279 166.457 627.054 179 627.054 179C627.054 179 623.895 173.745 624.083 173.385C624.271 173.025 629.4 176.059 629.791 180.11C629.791 180.11 629.479 175.059 629.901 175.027C630.323 174.996 633.92 179.844 632.466 182.879C632.466 182.879 636.72 187.899 636.438 192.638C636.157 197.392 632.122 213.314 628.274 213.861Z" fill="#001729"/>
<path d="M594.648 187.07C596.869 188.54 599.075 190.135 601.671 190.902C604.47 191.731 607.551 191.465 610.382 190.871C613.276 190.261 615.981 189.135 618.515 187.633C620.736 186.319 622.785 184.63 625.115 183.52C625.694 183.238 626.194 184.098 625.788 184.521C621.846 188.806 615.575 191.934 609.85 192.81C603.845 193.733 598.652 191.606 594.601 187.148C594.586 187.101 594.617 187.039 594.648 187.07Z" fill="#001729"/>
<path d="M603.36 217.24C598.903 216.035 596.244 211.437 597.448 206.98C598.652 202.522 603.25 199.864 607.708 201.068C612.165 202.272 614.824 206.87 613.62 211.328C612.603 215.097 609.162 217.584 605.424 217.521C604.736 217.521 604.048 217.427 603.36 217.24ZM598.527 207.261C597.495 211.124 599.794 215.113 603.657 216.145C607.52 217.193 611.508 214.878 612.541 211.031C613.573 207.167 611.274 203.179 607.411 202.147C606.816 201.991 606.222 201.912 605.628 201.897C602.39 201.85 599.403 204.008 598.527 207.261Z" fill="#00A884"/>
<path d="M585.843 214.894C582.434 214.44 580.15 210.358 580.744 205.775C581.026 203.586 581.917 201.615 583.262 200.208C584.639 198.753 586.328 198.065 588.017 198.284C589.706 198.503 591.161 199.598 592.115 201.365C593.037 203.07 593.397 205.212 593.116 207.402C592.553 211.734 589.597 214.972 586.39 214.941C586.203 214.925 586.015 214.909 585.843 214.894ZM584.076 200.974C582.903 202.21 582.121 203.977 581.855 205.932C581.339 209.904 583.184 213.423 585.984 213.783C588.783 214.159 591.473 211.218 592.005 207.261C592.255 205.306 591.958 203.414 591.145 201.912C590.363 200.474 589.206 199.582 587.876 199.41C587.736 199.394 587.595 199.379 587.454 199.379C586.265 199.347 585.077 199.91 584.076 200.974Z" fill="#00A884"/>
<path d="M597.604 207.981L598.433 207.23C597.307 206.01 594.586 204.211 592.271 206.104L592.991 206.964C595.055 205.244 597.495 207.871 597.604 207.981Z" fill="#00A884"/>
<path d="M634.311 214.956L635.359 214.581C635.187 214.096 633.561 209.764 631.137 209.044C628.869 208.372 613.807 207.824 613.166 207.793L613.119 208.919C617.436 209.076 629.056 209.592 630.808 210.123C632.419 210.577 633.889 213.768 634.311 214.956Z" fill="#00A884"/>
<path d="M624.427 213.971C624.427 213.971 631.09 204.869 635.234 207.277C639.379 209.67 634.218 222.948 629.26 224.684C624.302 226.405 622.613 221.854 622.613 221.854L624.427 213.971Z" fill="#EB9481"/>
<path d="M633.67 211.046C633.748 211.046 633.764 211.156 633.686 211.171C630.198 212.485 628.321 215.644 626.976 218.944C628.024 217.693 629.447 217.021 631.121 218.287C631.215 218.35 631.121 218.491 631.027 218.475C629.619 218.147 628.603 218.366 627.617 219.476C626.929 220.258 626.444 221.259 625.928 222.182C625.756 222.495 625.209 222.307 625.334 221.963C625.35 221.932 625.35 221.916 625.365 221.885C625.381 217.459 628.931 211.39 633.67 211.046Z" fill="#001729"/>
<path d="M635.954 207.386C635 206.573 633.811 206.62 632.654 206.917C632.497 206.964 632.482 207.074 632.638 207.027C633.264 206.839 634.014 206.823 634.656 207.027C635.203 207.199 636.751 207.84 636.736 211.077C636.736 213.032 635.656 216.395 634.656 218.428C634.609 218.506 634.749 218.585 634.796 218.506C635.438 217.333 636.298 215.285 636.611 214.002C637.064 212.219 637.643 208.81 635.954 207.386Z" fill="#001729"/>
<path d="M626.648 255.041C625.553 256.261 624.552 257.575 623.379 258.748C622.19 259.937 620.955 261.063 619.657 262.126C617.123 264.191 614.402 265.974 611.493 267.46C608.427 269.024 605.033 270.259 601.546 269.681C598.23 269.133 595.853 266.897 594.695 263.784C593.256 259.874 594.226 255.714 595.196 251.632C595.227 251.476 594.992 251.429 594.961 251.585C593.882 255.792 593.069 259.249 593.804 263.206C594.382 266.318 596.244 269.086 599.231 270.337C606.159 273.215 613.541 268.226 618.671 263.941C620.173 262.689 621.596 261.344 622.925 259.921C624.302 258.451 625.741 256.903 626.835 255.198C626.929 255.057 626.742 254.948 626.648 255.041Z" fill="#001729"/>
<path d="M683.89 406.953H123.134V426.894H683.89V406.953Z" fill="#37474F"/>
<path d="M683.89 419.105H123.134V426.894H683.89V419.105Z" fill="#455A64"/>
<path d="M143.247 706.693H135.192L158.652 426.894H179.219L143.247 706.693Z" fill="#455A64"/>
<path d="M179.219 426.894L176.81 445.615H157.088L158.652 426.894H179.219Z" fill="#001729"/>
<path d="M663.777 706.693H671.832L648.372 426.894H627.805L663.777 706.693Z" fill="#455A64"/>
<path d="M627.805 426.894L630.214 445.615H649.936L648.372 426.894H627.805Z" fill="#001729"/>
<path d="M469.716 406.937H556.346V400.196L469.716 397.397V406.937Z" fill="#455A64"/>
<path d="M401.62 406.812C401.62 406.812 453.888 406.812 458.768 406.812C463.648 406.812 456.594 392.924 438.796 387.59C420.998 382.273 396.02 401.604 401.62 406.812Z" fill="#37474F"/>
<path d="M424.047 406.812C423.015 403.809 421.873 400.994 420.309 398.413C419.559 397.1 418.636 395.927 417.651 394.785C416.681 393.612 415.492 392.673 414.288 391.61C415.79 392.095 417.291 392.814 418.495 393.909C419.746 394.957 420.81 396.208 421.639 397.616C422.468 399.023 423.109 400.509 423.516 402.057C423.954 403.621 424.188 405.217 424.047 406.812Z" fill="#001729"/>
<path d="M417.275 393.596C414.272 395.536 411.254 397.303 408.454 399.32C407.031 400.29 405.702 401.385 404.482 402.574C403.293 403.778 402.183 405.092 401.62 406.812C401.526 404.982 402.449 403.199 403.559 401.776C404.685 400.321 406.061 399.102 407.532 398.054C409.017 397.021 410.566 396.114 412.192 395.364C413.85 394.613 415.524 393.987 417.275 393.596Z" fill="#001729"/>
<path d="M360.612 379.927H499.542L477.458 276.5H338.512L360.612 379.927Z" fill="#455A64"/>
<path d="M355.482 379.927H494.412L472.312 276.5H333.382L355.482 379.927Z" fill="#37474F"/>
<path d="M430.413 342.844H433.666L428.724 319.65H425.471L430.413 342.844Z" fill="#001729"/>
<path d="M423.985 342.844H427.238L422.296 319.65H419.027L423.985 342.844Z" fill="#001729"/>
<path d="M417.557 342.844H420.81L415.868 319.65H412.599L417.557 342.844Z" fill="#001729"/>
<path d="M411.129 342.844H414.382L409.44 319.65H406.171L411.129 342.844Z" fill="#001729"/>
<path d="M404.685 342.844H407.954L403.012 319.65H399.743L404.685 342.844Z" fill="#001729"/>
<path d="M398.257 342.844H401.526L396.568 319.65H393.315L398.257 342.844Z" fill="#001729"/>
<path d="M391.829 342.844H395.098L390.14 319.65H386.887L391.829 342.844Z" fill="#001729"/>
<path d="M394.769 406.953H463.1V401.635L394.769 399.43V406.953Z" fill="#455A64"/>
<path d="M376.189 406.937H412.88L434.98 348.975H398.288L376.189 406.937Z" fill="#455A64"/>
<path d="M370.152 406.937H406.843L428.943 348.975H392.251L370.152 406.937Z" fill="#001729"/>
<path d="M363.474 193.404C363.474 193.404 354.966 261.579 340.968 276.906C324.171 295.314 311.972 292.624 305.199 302.102C305.184 302.102 305.184 302.118 305.184 302.118C298.396 292.609 286.213 295.314 269.4 276.906C255.402 261.563 246.909 193.404 246.909 193.404C283.788 175.496 305.184 155.446 305.184 155.446C305.184 155.446 305.184 155.446 305.199 155.462C305.841 156.072 327.158 175.794 363.474 193.404Z" fill="#00A884"/>
<path opacity="0.2" d="M305.183 155.461V302.118C305.168 302.118 305.168 302.133 305.168 302.133C298.38 292.624 286.196 295.33 269.383 276.922C255.386 261.579 246.893 193.42 246.893 193.42C283.772 175.512 305.168 155.446 305.183 155.461C305.168 155.446 305.168 155.446 305.183 155.461Z" fill="black"/>
<path opacity="0.1" d="M363.474 193.404C363.474 193.404 354.965 261.579 340.968 276.906C324.17 295.314 311.971 292.624 305.199 302.102V155.462C305.84 156.072 327.158 175.794 363.474 193.404Z" fill="black"/>
<path d="M354.418 198.894C354.418 198.894 347.224 256.48 335.4 269.446C321.199 285.008 310.892 282.724 305.168 290.748C299.443 282.724 289.137 285.023 274.936 269.446C263.112 256.48 255.933 198.894 255.933 198.894C287.088 183.77 305.168 166.816 305.168 166.816C305.168 166.816 323.279 183.77 354.418 198.894Z" fill="#00A884"/>
<path d="M319.948 220.618H290.404V247.425H319.948V220.618Z" fill="white"/>
<path d="M316.992 228.876H313.989V216.911C313.989 212.047 310.032 208.106 305.168 208.106C300.304 208.106 296.362 212.063 296.362 216.911V228.876H293.359V216.911C293.359 210.389 298.661 205.087 305.183 205.087C311.705 205.087 317.007 210.389 317.007 216.911V228.876H316.992Z" fill="white"/>
<path d="M306.435 234.35L307.67 240.215H302.415L303.651 234.35C302.916 233.881 302.415 233.067 302.415 232.129C302.415 230.659 303.588 229.501 305.043 229.501C306.497 229.501 307.67 230.659 307.67 232.129C307.67 233.067 307.17 233.881 306.435 234.35Z" fill="#37474F"/>
<path d="M208.685 381.444H123.134V309.078L165.894 281.927L208.685 309.078V381.444Z" fill="#00A884"/>
<path opacity="0.2" d="M208.685 381.444H123.134V309.078L165.894 281.927L208.685 309.078V381.444Z" fill="black"/>
<path d="M203.852 369.933H127.967V272.511H184.317L203.852 291.076V369.933Z" fill="#EBEBEB"/>
<path d="M184.318 272.511L203.852 291.076H184.318V272.511Z" fill="#DBDBDB"/>
<path d="M135.361 291.362H177.558V288.86H135.361V291.362Z" fill="#DBDBDB"/>
<path d="M135.361 297.672H177.558V295.17H135.361V297.672Z" fill="#DBDBDB"/>
<path d="M135.361 303.983H177.558V301.48H135.361V303.983Z" fill="#DBDBDB"/>
<path d="M135.362 310.309H197.187V307.806H135.362V310.309Z" fill="#DBDBDB"/>
<path d="M135.362 316.619H197.187V314.116H135.362V316.619Z" fill="#DBDBDB"/>
<path d="M135.362 322.929H197.187V320.427H135.362V322.929Z" fill="#DBDBDB"/>
<path d="M135.362 329.239H197.187V326.737H135.362V329.239Z" fill="#DBDBDB"/>
<path d="M135.362 335.565H197.187V333.063H135.362V335.565Z" fill="#DBDBDB"/>
<path d="M135.362 341.876H197.187V339.373H135.362V341.876Z" fill="#DBDBDB"/>
<path d="M135.362 348.186H197.187V345.683H135.362V348.186Z" fill="#DBDBDB"/>
<path d="M135.362 354.496H197.187V351.994H135.362V354.496Z" fill="#DBDBDB"/>
<path d="M135.362 360.822H197.187V358.32H135.362V360.822Z" fill="#DBDBDB"/>
<path d="M208.685 327.204V381.46H123.134V327.204C126.809 329.285 130.422 331.474 134.051 333.601C137.679 335.775 141.292 337.949 144.889 340.154C148.893 342.594 152.912 345.081 156.901 347.583C156.932 347.552 156.994 347.536 157.026 347.505C156.994 347.536 156.963 347.568 156.916 347.599C159.903 349.46 162.906 351.337 165.894 353.214C168.881 351.337 171.868 349.445 174.855 347.599C174.824 347.568 174.793 347.536 174.746 347.505C174.777 347.536 174.84 347.552 174.871 347.568C178.859 345.081 182.863 342.594 186.882 340.139C190.48 337.949 194.092 335.76 197.705 333.601C201.396 331.459 205.009 329.285 208.685 327.204Z" fill="#00A884"/>
<path d="M208.685 327.204C205.228 329.629 201.709 331.959 198.221 334.352C194.718 336.682 191.199 339.028 187.664 341.343C183.973 343.752 180.282 346.144 176.576 348.522C176.466 348.6 176.357 348.678 176.247 348.756C172.978 350.852 169.678 352.948 166.394 355.044L165.909 355.341L165.44 355.044C162.156 352.948 158.871 350.852 155.602 348.756C155.493 348.694 155.368 348.616 155.258 348.537C151.552 346.16 147.845 343.767 144.154 341.343C140.635 339.044 137.116 336.698 133.613 334.368C130.125 331.975 126.606 329.66 123.149 327.22C126.825 329.3 130.438 331.49 134.066 333.617C137.695 335.791 141.307 337.965 144.905 340.17C148.909 342.61 152.928 345.097 156.916 347.599C156.932 347.599 156.932 347.599 156.947 347.615C159.935 349.476 162.938 351.353 165.925 353.229C168.912 351.353 171.899 349.46 174.887 347.615C174.902 347.583 174.902 347.583 174.918 347.583C178.906 345.097 182.91 342.61 186.929 340.154C190.527 337.965 194.139 335.775 197.752 333.617C201.396 331.459 205.009 329.285 208.685 327.204Z" fill="white"/>
<path d="M157.041 347.49C157.01 347.521 156.979 347.552 156.932 347.583C156.478 347.974 156.04 348.35 155.587 348.725C153.444 350.539 151.239 352.275 149.002 353.949C146.281 356.029 143.497 358.015 140.698 360.002C137.882 361.941 135.052 363.865 132.174 365.726C129.28 367.571 126.371 369.386 123.353 371.043C125.949 368.776 128.639 366.649 131.376 364.584C134.113 362.504 136.897 360.518 139.681 358.531C142.512 356.576 145.327 354.653 148.22 352.807C150.519 351.337 152.865 349.882 155.243 348.522C155.79 348.193 156.353 347.896 156.916 347.583C156.948 347.552 156.994 347.521 157.041 347.49Z" fill="white"/>
<path d="M208.466 371.043C205.447 369.386 202.522 367.571 199.645 365.726C196.751 363.88 193.92 361.957 191.105 360.002C188.306 358.031 185.522 356.029 182.8 353.949C180.58 352.26 178.374 350.539 176.247 348.741C175.778 348.35 175.34 347.974 174.887 347.583C174.855 347.552 174.824 347.521 174.777 347.49C174.808 347.521 174.871 347.536 174.902 347.552C175.465 347.881 176.013 348.178 176.576 348.506C178.969 349.867 181.283 351.321 183.598 352.791C186.491 354.637 189.307 356.561 192.122 358.516C194.921 360.486 197.705 362.488 200.427 364.568C203.179 366.649 205.869 368.776 208.466 371.043Z" fill="white"/>
<path d="M208.466 395.317C216.24 395.317 222.542 389.015 222.542 381.241C222.542 373.467 216.24 367.165 208.466 367.165C200.692 367.165 194.39 373.467 194.39 381.241C194.39 389.015 200.692 395.317 208.466 395.317Z" fill="#37474F"/>
<path d="M215.441 377.69H201.49V390.359H215.441V377.69Z" fill="white"/>
<path d="M214.049 381.6H212.626V375.939C212.626 373.64 210.765 371.778 208.466 371.778C206.167 371.778 204.305 373.64 204.305 375.939V381.6H202.882V375.939C202.882 372.858 205.385 370.355 208.466 370.355C211.547 370.355 214.049 372.858 214.049 375.939V381.6Z" fill="white"/>
<path d="M209.06 384.181L209.639 386.949H207.152L207.731 384.181C207.386 383.962 207.152 383.571 207.152 383.133C207.152 382.445 207.715 381.898 208.387 381.898C209.076 381.898 209.623 382.445 209.623 383.133C209.654 383.571 209.42 383.946 209.06 384.181Z" fill="#37474F"/>
<path d="M272.386 238.87H128.78V260.641H272.386V238.87Z" fill="white"/>
<path d="M273.153 261.423H127.998V238.088H273.168V261.423H273.153ZM129.562 259.859H271.604V239.652H129.562V259.859Z" fill="#EBEBEB"/>
<path d="M124.948 263.831C132.722 263.831 139.024 257.529 139.024 249.755C139.024 241.981 132.722 235.679 124.948 235.679C117.174 235.679 110.872 241.981 110.872 249.755C110.872 257.529 117.174 263.831 124.948 263.831Z" fill="#37474F"/>
<path d="M131.923 246.189H117.973V258.858H131.923V246.189Z" fill="white"/>
<path d="M130.531 250.099H129.108V244.438C129.108 242.138 127.247 240.277 124.948 240.277C122.649 240.277 120.788 242.138 120.788 244.438V250.099H119.365V244.438C119.365 241.356 121.867 238.854 124.948 238.854C128.029 238.854 130.531 241.356 130.531 244.438V250.099Z" fill="white"/>
<path d="M125.542 252.68L126.121 255.448H123.634L124.213 252.68C123.869 252.461 123.634 252.07 123.634 251.632C123.634 250.944 124.197 250.396 124.87 250.396C125.558 250.396 126.105 250.944 126.105 251.632C126.121 252.086 125.886 252.461 125.542 252.68Z" fill="#37474F"/>
<path d="M153.679 245.126H152.115V255.088H153.679V245.126Z" fill="#37474F"/>
<path d="M157.87 249.317H147.907V250.881H157.87V249.317Z" fill="#37474F"/>
<path d="M155.853 246.028L148.809 253.073L149.915 254.178L156.959 247.134L155.853 246.028Z" fill="#37474F"/>
<path d="M149.926 246.028L148.82 247.134L155.864 254.178L156.97 253.073L149.926 246.028Z" fill="#37474F"/>
<path d="M170.585 245.126H169.021V255.088H170.585V245.126Z" fill="#37474F"/>
<path d="M174.793 249.317H164.83V250.881H174.793V249.317Z" fill="#37474F"/>
<path d="M172.774 246.024L165.729 253.069L166.835 254.174L173.88 247.13L172.774 246.024Z" fill="#37474F"/>
<path d="M166.835 246.035L165.729 247.141L172.774 254.186L173.88 253.08L166.835 246.035Z" fill="#37474F"/>
<path d="M187.508 245.126H185.944V255.088H187.508V245.126Z" fill="#37474F"/>
<path d="M191.7 249.317H181.737V250.881H191.7V249.317Z" fill="#37474F"/>
<path d="M189.684 246.031L182.639 253.076L183.745 254.182L190.79 247.137L189.684 246.031Z" fill="#37474F"/>
<path d="M183.756 246.031L182.65 247.137L189.695 254.182L190.801 253.076L183.756 246.031Z" fill="#37474F"/>
<path d="M204.43 245.126H202.866V255.088H204.43V245.126Z" fill="#37474F"/>
<path d="M208.622 249.317H198.659V250.881H208.622V249.317Z" fill="#37474F"/>
<path d="M206.604 246.027L199.56 253.072L200.666 254.178L207.71 247.133L206.604 246.027Z" fill="#37474F"/>
<path d="M200.677 246.027L199.571 247.133L206.615 254.178L207.721 253.072L200.677 246.027Z" fill="#37474F"/>
<path d="M221.337 245.126H219.773V255.088H221.337V245.126Z" fill="#37474F"/>
<path d="M225.544 249.317H215.582V250.881H225.544V249.317Z" fill="#37474F"/>
<path d="M223.525 246.023L216.481 253.068L217.586 254.174L224.631 247.129L223.525 246.023Z" fill="#37474F"/>
<path d="M217.586 246.035L216.481 247.14L223.525 254.185L224.631 253.079L217.586 246.035Z" fill="#37474F"/>
<path d="M238.26 245.126H236.696V255.088H238.26V245.126Z" fill="#37474F"/>
<path d="M242.451 249.317H232.489V250.881H242.451V249.317Z" fill="#37474F"/>
<path d="M240.435 246.031L233.39 253.075L234.496 254.181L241.541 247.137L240.435 246.031Z" fill="#37474F"/>
<path d="M234.507 246.031L233.401 247.137L240.446 254.181L241.552 253.075L234.507 246.031Z" fill="#37474F"/>
<path d="M151.004 584.795C151.004 584.795 116.33 576.928 97.3277 559.427C78.3251 541.926 67.7056 510.552 67.7056 510.552C67.7056 510.552 88.1158 514.29 106.587 520.765C109.683 524.081 115.595 530.931 118.348 537.39C118.348 537.39 118.927 530.556 118.442 525.504C123.384 527.787 127.685 530.305 130.782 532.996C146.547 546.79 151.004 584.795 151.004 584.795Z" fill="#00A884"/>
<path d="M89.3669 525.801C84.6437 522.532 79.8265 519.373 75.1189 516.073C74.8374 515.87 75.1033 515.432 75.4004 515.604C84.3309 520.937 93.1362 526.646 101.66 532.62C104.632 534.7 107.541 536.874 110.434 539.08C110.231 538.735 110.027 538.391 109.824 538.047C108.776 536.311 107.681 534.591 106.587 532.886C104.381 529.461 101.973 526.083 99.2201 523.064C99.1107 522.955 99.2983 522.783 99.3922 522.908C102.082 526.02 104.788 529.101 107.243 532.401C108.416 533.965 109.496 535.592 110.543 537.265C111.075 538.125 111.607 539.001 112.107 539.877C112.28 540.174 112.452 540.471 112.624 540.769C117.112 544.288 121.476 547.963 125.636 551.842C128.201 554.235 130.688 556.721 133.081 559.286C131.736 555.095 130.563 550.841 129.014 546.712C128.967 546.571 129.186 546.508 129.249 546.649C130.766 550.982 132.408 555.329 133.581 559.787C136.24 562.649 138.774 565.636 141.167 568.717C141.12 568.53 141.088 568.342 141.041 568.154C140.65 566.512 140.244 564.886 139.806 563.275C138.961 560.131 138.039 557.019 136.991 553.953C134.817 547.65 132.002 541.488 127.685 536.358C127.591 536.249 127.763 536.077 127.857 536.202C134.629 544.225 138.602 553.828 141.135 563.931C141.511 565.402 141.855 566.887 142.199 568.373C142.371 569.155 142.59 569.969 142.715 570.766C143.763 572.189 144.795 573.613 145.78 575.083C151.802 584.045 156.494 593.835 160.451 603.845C164.908 615.137 168.365 626.789 171.571 638.487C171.633 638.722 171.289 638.8 171.211 638.581C164.423 618.296 157.51 597.714 145.906 579.587C143.45 575.755 140.807 572.064 137.992 568.514C132.283 568.201 126.528 566.95 121.132 565.151C115.157 563.165 109.527 560.397 104.241 556.987C101.191 555.017 98.4069 552.718 95.576 550.45C95.4509 550.34 95.5917 550.153 95.7168 550.262C100.409 554.235 106.039 557.331 111.607 559.881C117.206 562.43 123.087 564.432 129.093 565.746C131.657 566.309 134.254 566.715 136.85 567.075C133.644 563.134 130.234 559.349 126.621 555.752C125.448 554.579 124.244 553.468 123.04 552.342C119.052 549.433 114.641 547.134 110.231 545.007C104.553 542.254 98.9543 539.361 93.3395 536.499C90.1646 534.888 87.0209 533.23 83.8147 531.666C83.674 531.604 83.7991 531.4 83.9399 531.463C89.6328 534.215 95.4196 536.78 101.175 539.424C106.587 541.91 112.061 544.397 117.253 547.306C117.472 547.431 117.691 547.572 117.91 547.697C113.218 543.615 108.354 539.705 103.38 535.952C98.7666 532.464 94.1059 529.07 89.3669 525.801Z" fill="#001729"/>
<path d="M91.3376 543.662C94.1528 544.898 97.0305 545.992 99.8145 547.29C102.692 548.636 105.398 550.2 108.135 551.81C108.26 551.889 108.151 552.045 108.025 551.998C105.257 550.669 102.458 549.433 99.7206 548.057C96.9211 546.649 94.1528 545.132 91.275 543.881C91.1343 543.834 91.1968 543.599 91.3376 543.662Z" fill="#001729"/>
<path d="M263.628 410.081C263.628 410.081 253.9 421.232 253.258 438.874C253.149 441.986 253.634 446.319 253.994 451.417C241.059 458.315 231.362 470.748 231.362 470.748C238.713 466.338 248.785 464.555 254.228 465.274C254.04 468.621 253.649 472.109 252.899 475.628C250.49 475.487 245.861 475.816 238.197 478.537C238.197 478.537 245.72 478.349 251.46 481.165C245.282 500.824 226.905 521.031 176.185 529.602C176.185 529.602 166.394 495.162 185.162 458.221C200.38 428.333 263.628 410.081 263.628 410.081Z" fill="#00A884"/>
<path d="M158.636 613.745C159.512 605.346 160.623 596.963 161.921 588.627C164.517 571.923 167.88 555.329 172.149 538.97C174.167 531.259 176.576 523.705 179.469 516.339C179.281 515.01 179.313 513.618 179.281 512.273C179.25 510.646 179.234 509.019 179.25 507.393C179.281 504.14 179.438 500.902 179.719 497.665C180.267 491.268 181.236 484.871 182.832 478.647C183.754 475.034 184.833 471.468 185.897 467.902C185.944 467.761 186.163 467.824 186.116 467.964C184.317 474.142 183.285 480.586 182.378 486.951C181.471 493.254 180.908 499.62 180.673 505.985C180.611 507.721 180.579 509.473 180.579 511.225C180.579 511.96 180.611 512.71 180.642 513.461C183.144 507.424 185.96 501.512 189.181 495.772C194.296 486.685 200.176 478.052 206.542 469.794C206.479 468.856 206.761 467.855 206.964 466.963C207.199 465.837 207.449 464.696 207.699 463.57C208.215 461.255 208.794 458.94 209.435 456.657C210.702 452.059 212.36 447.617 213.799 443.081C213.846 442.94 214.065 443.003 214.018 443.144C212.673 447.632 211.781 452.293 210.765 456.86C210.248 459.128 209.764 461.38 209.263 463.648C209.013 464.774 208.778 465.916 208.544 467.042C208.528 467.12 208.512 467.214 208.497 467.292C210.546 464.711 212.641 462.146 214.784 459.644C224.465 448.289 235.085 437.81 245.783 427.394C247.096 426.112 248.441 424.876 249.771 423.609C249.88 423.5 250.037 423.672 249.927 423.781C239.714 434.432 229.658 445.224 220.133 456.5C217.865 459.175 215.644 461.896 213.455 464.649C214.612 463.867 215.769 463.1 216.911 462.35C219.867 460.41 222.854 458.533 225.935 456.813C229.016 455.093 232.113 453.404 235.272 451.84C238.526 450.229 241.998 448.915 245.141 447.085C245.282 447.007 245.392 447.241 245.251 447.288C242.013 448.618 238.995 450.635 235.992 452.418C232.911 454.248 229.83 456.094 226.796 458.017C223.808 459.91 220.821 461.771 217.849 463.695C215.378 465.29 212.954 467.042 210.389 468.527C204.54 476.113 199.035 483.964 194.139 492.175C191.043 497.352 188.259 502.67 185.741 508.112C186.351 507.846 186.96 507.596 187.555 507.33C189.103 506.642 190.652 505.954 192.2 505.266C195.187 503.936 198.174 502.654 201.177 501.34C206.87 498.869 212.641 496.586 218.225 493.88C221.353 492.363 224.434 490.752 227.327 488.828C227.452 488.75 227.562 488.953 227.437 489.031C217.036 496.195 205.369 501.246 193.858 506.345L188.869 508.55C187.492 509.16 186.132 509.833 184.708 510.364C181.314 517.966 178.437 525.801 176.122 533.871C171.508 549.981 167.989 566.45 165.08 582.95C162.171 599.512 160.2 616.2 158.683 632.951C158.496 635.047 158.308 637.127 158.073 639.222C157.98 640.051 156.744 640.051 156.76 639.191C156.885 630.714 157.745 622.19 158.636 613.745Z" fill="#001729"/>
<path d="M189.494 473.657C190.417 468.496 191.793 463.46 193.185 458.408C193.232 458.268 193.451 458.33 193.404 458.471C192.122 463.429 191.199 468.481 190.276 473.501C189.322 478.631 188.493 483.777 187.758 488.938C187.743 489.032 187.617 489.032 187.617 488.938C187.977 483.808 188.587 478.709 189.494 473.657Z" fill="#001729"/>
<path d="M211.359 487.64C214.8 485.2 218.663 483.354 222.385 481.431C224.231 480.476 226.107 479.569 227.984 478.662C229.908 477.724 231.926 476.942 233.834 475.988C233.974 475.925 234.084 476.129 233.943 476.191C232.082 477.13 230.33 478.256 228.5 479.241C226.624 480.258 224.747 481.305 222.87 482.322C219.163 484.308 215.519 486.529 211.625 488.14C211.296 488.281 211.062 487.843 211.359 487.64Z" fill="#001729"/>
<path opacity="0.1" d="M150.379 524.738C150.379 524.738 118.301 517.074 103.568 495.553C89.5076 475.002 84.9564 439.969 84.5967 436.888C85.1754 439.719 91.7911 470.342 113.64 484.59C130.344 495.522 146.5 504.499 150.379 524.738Z" fill="#001729"/>
<path d="M120.756 469.309C126.402 474.752 130.641 481.133 132.58 488.797C132.596 488.859 132.502 488.891 132.486 488.828C130.078 481.712 126.105 474.69 120.6 469.481C120.49 469.372 120.647 469.2 120.756 469.309Z" fill="#001729"/>
<path d="M150.379 524.738C150.379 524.738 118.301 517.074 103.568 495.553C89.5077 475.002 84.9564 439.969 84.5967 436.888C84.5654 436.747 84.5654 436.669 84.5654 436.669C84.5654 436.669 99.9552 458.534 116.127 464.117C132.283 469.685 155.008 488.985 150.379 524.738Z" fill="#00A884"/>
<path d="M90.2428 448.727C93.2144 454.561 96.3424 460.348 100.159 465.681C103.881 470.873 108.37 475.3 113.359 479.257C117.722 482.713 122.32 485.857 126.731 489.25C126.7 489.204 126.668 489.141 126.637 489.094C125.808 487.859 124.917 486.67 124.01 485.497C122.18 483.151 120.162 480.93 118.145 478.74C114.156 474.408 110.09 470.17 106.508 465.493C104.538 462.897 102.786 460.144 101.363 457.204C101.3 457.063 101.519 457.001 101.582 457.126C106.79 467.964 117.175 474.909 124.588 484.058C125.652 485.356 126.637 486.701 127.56 488.109C128.201 489.094 128.983 490.205 129.405 491.362C133.44 494.662 137.163 498.275 140.353 502.419C140.087 500.308 139.634 498.212 139.071 496.195C138.273 493.317 137.225 490.627 135.677 488.077C135.599 487.952 135.802 487.812 135.88 487.952C137.382 490.486 138.742 493.207 139.618 496.023C140.322 498.306 140.666 500.605 140.791 502.951L140.807 502.967C142.402 505.109 143.825 507.377 145.139 509.708C144.998 509.019 144.873 508.331 144.733 507.659C144.091 504.468 143.387 501.278 142.559 498.118C140.869 491.722 138.602 485.528 134.848 480.039C134.754 479.913 134.958 479.788 135.051 479.913C138.758 485.325 141.573 491.362 143.606 497.602C144.623 500.746 145.452 503.952 146.171 507.174C146.531 508.754 146.844 510.333 147.141 511.928C147.297 512.742 147.47 513.586 147.61 514.431C150.895 521.359 153.194 528.788 155.008 536.186C158.277 549.48 160.326 563.149 161.843 576.756C163.454 591.036 164.283 605.456 164.048 619.829C164.017 621.627 163.907 623.442 163.813 625.24C163.782 625.709 163.094 625.772 163.078 625.287C162.765 618.171 162.578 611.039 162.155 603.939C161.733 596.822 161.108 589.722 160.357 582.621C158.855 568.702 156.697 554.813 153.679 541.144C151.082 529.414 147.704 517.606 141.292 507.33C138.086 502.185 134.238 497.618 129.718 493.567C125.214 489.532 120.303 485.997 115.564 482.259C110.841 478.537 106.305 474.486 102.567 469.763C98.532 464.664 95.3571 458.956 92.3698 453.2C91.6191 451.746 90.8371 450.307 90.0707 448.852C89.9612 448.727 90.1646 448.602 90.2428 448.727Z" fill="#001729"/>
<path d="M95.7793 453.435C97.8438 457.783 100.315 461.912 102.927 465.931C102.989 466.025 102.849 466.119 102.786 466.025C99.9864 462.084 97.6717 457.845 95.5603 453.513C95.4821 453.372 95.7011 453.294 95.7793 453.435Z" fill="#001729"/>
<path d="M268.101 510.552C268.101 510.552 268.617 556.143 241.357 569.312C214.096 582.496 199.488 571.517 180.955 575.927C180.955 575.927 180.97 575.927 180.986 575.896C181.706 574.801 194.921 555.799 215.957 550.575C237.572 545.163 261.548 529.539 268.101 510.552Z" fill="#00A884"/>
<path opacity="0.1" d="M268.101 510.552C268.101 510.552 268.617 556.143 241.357 569.312C214.096 582.496 199.488 571.517 180.955 575.927C180.955 575.927 180.97 575.927 180.986 575.896C181.752 575.521 195.281 568.764 211.985 566.747C229.173 564.667 262.001 553.468 268.101 510.552Z" fill="black"/>
<path d="M179.156 576.725C182.409 573.8 186.053 571.282 189.995 569.39C190.573 569.108 191.183 568.889 191.778 568.623C192.059 568.264 192.372 567.92 192.685 567.576C193.498 566.715 194.358 565.902 195.25 565.136C196.97 563.666 198.784 562.321 200.739 561.179C205.259 558.52 210.202 556.659 214.815 554.203C214.956 554.125 215.066 554.344 214.925 554.407C212.641 555.595 210.436 556.893 208.215 558.192C206.057 559.458 203.852 560.647 201.74 562.008C199.848 563.228 198.034 564.573 196.345 566.059C195.86 566.481 195.406 566.934 194.937 567.404C197.94 566.371 201.037 565.589 204.149 564.964C209.138 563.963 214.19 563.243 219.163 562.18C221.619 561.664 224.027 561.007 226.389 560.225C228.657 558.411 230.909 556.596 233.052 554.626C235.632 552.248 238.009 549.652 240.105 546.806C240.199 546.681 240.402 546.806 240.309 546.931C236.946 551.279 233.333 555.642 229.126 559.255C230.299 558.802 231.472 558.332 232.614 557.816C241.873 553.609 250.115 546.931 255.839 538.485C255.917 538.36 256.121 538.485 256.042 538.61C251.053 545.836 244.719 552.014 237.243 556.643C233.505 558.958 229.548 560.866 225.372 562.258C220.571 563.869 215.582 564.823 210.624 565.746C205.76 566.653 200.88 567.591 196.173 569.187C191.825 570.657 187.727 572.799 184.052 575.568C177.029 580.823 171.602 588.017 167.723 595.821C162.562 606.175 160.091 617.749 158.73 629.15C158.668 629.635 157.917 629.635 157.948 629.135C159.262 609.976 164.392 590.035 179.156 576.725Z" fill="#001729"/>
<path d="M210.796 561.851C212.157 559.677 214.205 558.051 216.395 556.768C218.976 555.283 221.275 553.672 223.058 551.247C223.152 551.122 223.355 551.247 223.261 551.373C221.619 553.484 219.648 555.22 217.38 556.643C215.003 558.129 212.595 559.599 210.968 561.945C210.89 562.07 210.718 561.961 210.796 561.851Z" fill="#001729"/>
<path d="M196.329 610.367L195.093 635.438L191.293 712.042H134.097L130.297 635.438L129.061 610.367H196.329Z" fill="#37474F"/>
<path d="M196.329 610.367L195.093 635.438H130.297L129.061 610.367H196.329Z" fill="#001729"/>
<path d="M200.333 599.904H125.042V623.817H200.333V599.904Z" fill="#37474F"/>
</svg>
