<svg width="959" height="715" viewBox="0 0 959 715" fill="none" xmlns="http://www.w3.org/2000/svg">
<path d="M959 628.049H0V628.529H959V628.049Z" fill="#E6E6E6"/>
<path d="M239.405 657.068H175.881V657.548H239.405V657.068Z" fill="#E6E6E6"/>
<path d="M155.78 657.068H118.974V657.548H155.78V657.068Z" fill="#E6E6E6"/>
<path d="M403.835 664.126H367.029V664.606H403.835V664.126Z" fill="#E6E6E6"/>
<path d="M595.75 674.829H512.912V675.309H595.75V674.829Z" fill="#E6E6E6"/>
<path d="M495.841 674.829H483.7V675.309H495.841V674.829Z" fill="#E6E6E6"/>
<path d="M869.525 664.126H689.847V664.606H869.525V664.126Z" fill="#E6E6E6"/>
<path d="M454.585 542.506H84.2385C78.1968 542.506 73.2867 537.596 73.2867 531.554V10.9518C73.2867 4.91008 78.1968 0 84.2385 0H454.604C460.646 0 465.556 4.91008 465.556 10.9518V531.554C465.537 537.596 460.627 542.506 454.585 542.506ZM84.2385 0.4795C78.4653 0.4795 73.7662 5.1786 73.7662 10.9518V531.554C73.7662 537.328 78.4653 542.027 84.2385 542.027H454.604C460.378 542.027 465.077 537.328 465.077 531.554V10.9518C465.077 5.1786 460.378 0.4795 454.604 0.4795H84.2385Z" fill="#E6E6E6"/>
<path d="M869.449 542.506H499.083C493.041 542.506 488.131 537.596 488.131 531.554V10.9518C488.131 4.91008 493.041 0 499.083 0H869.449C875.49 0 880.4 4.91008 880.4 10.9518V531.554C880.4 537.596 875.49 542.506 869.449 542.506ZM499.083 0.4795C493.31 0.4795 488.61 5.1786 488.61 10.9518V531.554C488.61 537.328 493.31 542.027 499.083 542.027H869.449C875.222 542.027 879.921 537.328 879.921 531.554V10.9518C879.921 5.1786 875.222 0.4795 869.449 0.4795H499.083Z" fill="#E6E6E6"/>
<path d="M512.873 464.214H470.696V631.521H512.873V464.214Z" fill="#E0E0E0"/>
<path d="M504.856 631.521H512.873V608.735H496.455L504.856 631.521Z" fill="#FAFAFA"/>
<path d="M328.055 464.214H285.878V631.521H328.055V464.214Z" fill="#E0E0E0"/>
<path d="M512.873 464.214H321.073V617.539H512.873V464.214Z" fill="#FAFAFA"/>
<path d="M505.911 471.751V512.317H328.016V471.751H505.911ZM506.659 471.003H327.288V513.046H506.659V471.003Z" fill="#E0E0E0"/>
<path d="M329.09 631.521H321.073V608.735H337.472L329.09 631.521Z" fill="#FAFAFA"/>
<path d="M412.734 492.025C412.734 494.365 414.633 496.263 416.973 496.263C419.313 496.263 421.212 494.365 421.212 492.025C421.212 489.685 419.313 487.786 416.973 487.786C414.633 487.786 412.734 489.685 412.734 492.025Z" fill="#E6E6E6"/>
<path d="M505.911 520.584V561.149H328.016V520.584H505.911ZM506.659 519.855H327.288V561.897H506.659V519.855Z" fill="#E0E0E0"/>
<path d="M412.734 540.876C412.734 543.216 414.633 545.115 416.973 545.115C419.313 545.115 421.212 543.216 421.212 540.876C421.212 538.536 419.313 536.637 416.973 536.637C414.633 536.637 412.734 538.536 412.734 540.876Z" fill="#E6E6E6"/>
<path d="M505.911 569.435V610.001H328.016V569.435H505.911ZM506.659 568.687H327.288V610.73H506.659V568.687Z" fill="#E0E0E0"/>
<path d="M412.734 589.727C412.734 592.067 414.633 593.966 416.973 593.966C419.313 593.966 421.212 592.067 421.212 589.727C421.212 587.388 419.313 585.489 416.973 585.489C414.633 585.469 412.734 587.388 412.734 589.727Z" fill="#E6E6E6"/>
<path d="M302.296 367.048H260.119V631.54H302.296V367.048Z" fill="#E0E0E0"/>
<path d="M294.279 631.521H302.296V608.735H285.878L294.279 631.521Z" fill="#FAFAFA"/>
<path d="M144.675 367.048H102.498V631.54H144.675V367.048Z" fill="#E0E0E0"/>
<path d="M302.296 367.048H137.674V617.558H302.296V367.048Z" fill="#FAFAFA"/>
<path d="M295.199 374.125V430.84H144.771V374.125H295.199ZM296.082 373.262H143.888V431.723H296.082V373.262Z" fill="#E0E0E0"/>
<path d="M295.199 437.745V588.193H223.543V437.745H295.199ZM296.082 436.863H222.68V589.056H296.082V436.863Z" fill="#E0E0E0"/>
<path d="M216.427 437.745V588.193H144.771V437.745H216.427ZM217.29 436.863H143.888V589.056H217.29V436.863Z" fill="#E0E0E0"/>
<path d="M145.691 631.521H137.674V608.735H154.092L145.691 631.521Z" fill="#FAFAFA"/>
<path d="M215.737 402.492C215.737 404.832 217.636 406.731 219.975 406.731C222.315 406.731 224.214 404.832 224.214 402.492C224.214 400.152 222.315 398.253 219.975 398.253C217.636 398.253 215.737 400.152 215.737 402.492Z" fill="#E6E6E6"/>
<path d="M230.927 509.382C230.927 511.722 232.826 513.621 235.166 513.621C237.506 513.621 239.405 511.722 239.405 509.382C239.405 507.043 237.506 505.144 235.166 505.144C232.826 505.125 230.927 507.023 230.927 509.382Z" fill="#E6E6E6"/>
<path d="M200.565 509.382C200.565 511.722 202.464 513.621 204.804 513.621C207.144 513.621 209.043 511.722 209.043 509.382C209.043 507.043 207.144 505.144 204.804 505.144C202.464 505.125 200.565 507.023 200.565 509.382Z" fill="#E6E6E6"/>
<path d="M195.77 293.301H177.99C177.99 293.301 181.078 309.738 181.078 319.424C181.078 329.11 167.537 367.048 186.89 367.048C206.223 367.048 192.701 329.11 192.701 319.424C192.682 309.738 195.77 293.301 195.77 293.301Z" fill="#E0E0E0"/>
<path d="M128.122 332.198V343.763C128.122 356.575 138.595 367.048 151.407 367.048H162.972C175.785 367.048 186.257 356.575 186.257 343.763V332.198H128.122Z" fill="#F5F5F5"/>
<path d="M375.295 439.817C375.295 453.223 390.313 464.194 408.668 464.194H425.24C443.595 464.194 458.613 453.223 458.613 439.817H375.295Z" fill="#E0E0E0"/>
<path d="M814.402 420.196C804.352 428.405 790.485 443.423 777.768 464.559C769.31 478.637 764.208 493.386 761.964 512.873C762.021 490.816 762.079 467.129 762.156 444.765C764.707 439.011 770.537 425.739 774.719 415.266C788.682 380.301 793.879 371.708 806.423 341.538C823.167 301.318 840.314 253.579 835.404 257.396C825.392 265.164 787.032 336.993 782.889 347.292C768.619 382.66 764.649 408.438 762.194 433.315C762.271 412.313 762.347 393.017 762.424 378.134C762.674 329.589 763.498 313.919 763.901 309.086C765.455 306.631 767.277 303.773 768.351 302.219C777.365 289.196 780.837 278.091 789.334 258.662C801.36 231.119 811.736 182.229 808.706 184.703C796.085 194.965 786.15 217.041 773.069 245.178C759.988 273.296 763.728 289.484 761.139 313.497C760.602 318.215 760.18 335.995 759.873 360.661C756.478 334.384 750.13 317.084 738.526 301.356C724.256 282.004 710.446 268.942 700.319 262.114C690.192 255.286 717.812 302.814 731.027 323.567C742.784 342.037 753.621 358.34 759.739 374.394C759.413 407.805 759.259 450.116 759.259 489.512C756.229 471.579 751.281 452.284 744.683 437.342C736.742 419.39 724.544 391.847 714.839 382.488C712.499 380.244 725.004 433.813 733.021 448.064C741.038 462.315 746.927 475.741 751.971 483.816C753.141 485.695 757.054 492.964 759.279 497.146C759.298 545.23 759.547 587.656 759.969 602.099H762.041C761.906 598.378 761.868 573.904 761.926 541.528C766.931 523.959 778.363 503.897 787.819 485.599C798.099 465.595 824.452 411.986 814.402 420.196Z" fill="#E0E0E0"/>
<path d="M791.06 631.521H730.95L726.404 572.6H795.606L791.06 631.521Z" fill="#F0F0F0"/>
<path d="M800.075 579.466H721.935L719.691 559.577H802.319L800.075 579.466Z" fill="#F5F5F5"/>
<path d="M238.331 39.4148H130.827V157.468H238.331V39.4148Z" fill="#E0E0E0"/>
<path d="M249.973 39.4148H138.921V157.468H249.973V39.4148Z" fill="#F5F5F5"/>
<path d="M240.678 148.166L240.678 48.7178L148.23 48.7178V148.166H240.678Z" fill="white"/>
<path d="M218.256 124.038V72.8079L170.632 72.8079V124.038H218.256Z" fill="#F5F5F5"/>
<path d="M786.476 53.167H686.606V162.838H786.476V53.167Z" fill="#E0E0E0"/>
<path d="M797.293 53.167H694.143V162.838H797.293V53.167Z" fill="#F5F5F5"/>
<path d="M788.66 154.212V61.822L702.792 61.822V154.212H788.66Z" fill="white"/>
<path d="M745.718 134.797C760.517 134.797 772.513 122.801 772.513 108.003C772.513 93.2045 760.517 81.2083 745.718 81.2083C730.92 81.2083 718.924 93.2045 718.924 108.003C718.924 122.801 730.92 134.797 745.718 134.797Z" fill="#F5F5F5"/>
<path d="M350.016 109.805H270.265V197.381H350.016V109.805Z" fill="#E0E0E0"/>
<path d="M358.647 109.805H276.269V197.381H358.647V109.805Z" fill="#F5F5F5"/>
<path d="M351.751 190.472V116.705L283.182 116.705V190.472H351.751Z" fill="white"/>
<path d="M317.467 134.931L298.709 167.422H336.225L317.467 134.931Z" fill="#F5F5F5"/>
<path d="M479.5 714.666C684.884 714.666 851.381 704.945 851.381 692.954C851.381 680.963 684.884 671.242 479.5 671.242C274.116 671.242 107.619 680.963 107.619 692.954C107.619 704.945 274.116 714.666 479.5 714.666Z" fill="#F5F5F5"/>
<path d="M669.861 208.065L650.835 200.354C650.835 200.354 625.728 246.137 618.536 248.458C608.754 251.603 588.519 260.349 576.493 261.98C574.863 263.878 572.197 269.843 572.446 272.03C588.577 277.4 624.021 270.265 631.616 264.626C648.898 251.776 669.861 208.065 669.861 208.065Z" fill="#E58A7B"/>
<path d="M675.711 197.688C679.26 210.807 660.041 237.161 660.041 237.161L634.8 223.006C634.8 223.006 639.499 212.169 645.273 201.141C654.556 183.303 671.664 182.709 675.711 197.688Z" fill="#00A884"/>
<path opacity="0.2" d="M675.711 197.688C679.26 210.807 660.041 237.161 660.041 237.161L634.8 223.006C634.8 223.006 639.499 212.169 645.273 201.141C654.556 183.303 671.664 182.709 675.711 197.688Z" fill="black"/>
<path opacity="0.2" d="M644.851 228.625L654.767 234.188L656.493 203.749C650.739 208.18 646.673 221.529 644.851 228.625Z" fill="black"/>
<path d="M659.14 187.791C659.14 187.791 639.538 231.407 650.969 312.615C674.234 312.615 716.891 312.615 728.207 312.615C729.434 300.761 725.368 242.915 740.079 187.062C740.079 187.062 726.999 184.396 714.416 183.802C704.577 183.322 690.307 183.015 681.58 183.802C670.091 184.838 659.14 187.791 659.14 187.791Z" fill="#00A884"/>
<path opacity="0.2" d="M659.14 187.791C659.14 187.791 639.538 231.407 650.969 312.615C674.234 312.615 716.891 312.615 728.207 312.615C729.434 300.761 725.368 242.915 740.079 187.062C740.079 187.062 726.999 184.396 714.416 183.802C704.577 183.322 690.307 183.015 681.58 183.802C670.091 184.838 659.14 187.791 659.14 187.791Z" fill="black"/>
<path d="M641.226 694.68C641.111 696.733 670.398 698.401 706.629 698.401C742.861 698.401 772.359 696.733 772.474 694.68C772.589 692.628 743.321 690.959 707.071 690.959C670.84 690.959 641.36 692.628 641.226 694.68Z" fill="#E8ECF1"/>
<path d="M694.587 642.93L680.843 648.226L692.627 678.812L706.371 673.516L694.587 642.93Z" fill="#E58A7B"/>
<path d="M753.87 679.931H739.427L734.134 646.5H748.576L753.87 679.931Z" fill="#E58A7B"/>
<path d="M738.507 678.262H754.733C755.327 678.262 755.807 678.665 755.903 679.24L757.993 692.072C758.204 693.395 757.092 694.661 755.73 694.642C750.072 694.546 747.348 694.22 740.214 694.22C735.821 694.22 726.749 694.68 720.688 694.68C714.762 694.68 714.186 688.696 716.699 688.14C727.977 685.704 732.35 682.348 736.109 679.145C736.78 678.569 737.643 678.262 738.507 678.262Z" fill="#263238"/>
<path d="M690.422 673.218L705.805 668.749C706.38 668.576 706.975 668.826 707.224 669.344L712.92 680.852C713.515 682.041 712.805 683.537 711.482 683.901C705.92 685.416 702.161 686.375 695.179 688.408C690.365 689.809 685.455 692.091 680.698 693.606C677.399 694.661 669.65 694.699 665.642 694.699C659.715 694.699 658.392 688.447 660.923 688.159C667.349 687.43 668.212 687.775 671.76 685.992C677.629 683.038 682.175 680.602 687.258 675.289C688.178 674.35 689.214 673.563 690.422 673.218Z" fill="#263238"/>
<path d="M578.91 261.845L563.029 255.151L556.488 272.759C556.488 272.759 565.656 274.427 576.129 272.759L578.91 261.845Z" fill="#E58A7B"/>
<path d="M551.214 254.729L550.792 266.429L556.488 272.759L563.029 255.151L551.214 254.729Z" fill="#E58A7B"/>
<path d="M694.632 642.894L680.89 648.198L686.975 663.962L700.717 658.658L694.632 642.894Z" fill="#CF6F64"/>
<path d="M748.576 646.5H734.134L736.876 663.743H751.319L748.576 646.5Z" fill="#CF6F64"/>
<path opacity="0.2" d="M648.514 290.654C648.783 294.125 649.128 297.674 649.531 301.318L706.956 282.675C715.932 279.99 723.719 274.351 729.051 266.659C729.262 261.538 729.569 256.149 729.991 250.529C730.182 247.786 730.432 244.986 730.681 242.147C730.95 239.194 731.276 236.182 731.621 233.133L648.514 290.654Z" fill="black"/>
<path d="M667.272 227.743L665.316 227.513C666.447 217.942 673.601 210.385 681.139 210.558L681.082 212.534C674.58 212.342 668.289 219.151 667.272 227.743Z" fill="white"/>
<path d="M677.495 245.446C677.38 245.446 677.284 245.446 677.169 245.446L677.226 243.471C683.824 243.72 690.02 236.835 691.036 228.261L692.992 228.491C691.88 237.928 684.956 245.446 677.495 245.446Z" fill="white"/>
<path d="M713.342 146.823C710.657 157.391 707.454 176.744 714.436 183.802C714.436 183.802 709.564 194.523 689.924 194.523C671.99 194.523 681.6 183.802 681.6 183.802C693.549 180.982 693.76 172.255 692.187 164.046L713.342 146.823Z" fill="#E58A7B"/>
<path d="M704.711 153.843L692.187 164.027C692.57 165.965 692.839 167.94 692.858 169.858C696.522 173.502 703.867 164.277 704.615 159.558C704.999 157.199 705.037 154.936 704.711 153.843Z" fill="#CF6F64"/>
<path d="M670.648 146.689C672.489 149.968 675.73 152.021 678.78 152.711C683.383 153.728 685.704 149.508 684.438 145.231C683.287 141.395 679.528 136.235 674.887 137.118C670.341 137.981 668.557 142.929 670.648 146.689Z" fill="#CF6F64"/>
<path d="M678.262 112.874C671.089 116.154 668.557 144.655 677.572 148.875C686.586 153.075 691.842 106.641 678.262 112.874Z" fill="#263238"/>
<path d="M715.529 130.923C713.803 145.231 713.534 153.651 705.881 160.978C694.373 172.025 677.092 165.466 674.522 151.196C672.201 138.345 675.404 117.113 689.732 111.417C703.848 105.816 717.236 116.614 715.529 130.923Z" fill="#E58A7B"/>
<path d="M691.957 120.278C702.563 117.554 710.37 115.713 707.589 124.574C703.868 136.37 699.418 147.801 705.402 148.338C709.027 148.664 725.157 141.817 723.105 134.912C721.321 128.89 728.821 127.259 730.202 124.19C735.169 113.124 720.957 114.562 723.489 107.868C725.944 101.347 712.038 90.3378 704.328 95.7274C691.842 104.435 670.418 104.32 681.676 90.0309C689.751 79.8079 675.347 81.8986 675.347 81.8986C675.347 81.8986 684.055 87.058 669.401 95.0369C653.885 103.514 668.097 126.396 691.957 120.278Z" fill="#263238"/>
<path d="M721.072 146.689C718.847 149.968 715.376 152.021 712.23 152.711C707.512 153.728 705.69 149.508 707.454 145.231C709.046 141.395 713.419 136.235 717.946 137.118C722.395 137.981 723.604 142.929 721.072 146.689Z" fill="#E58A7B"/>
<path d="M650.969 312.615C650.969 312.615 638.003 428.654 636.987 472.691C635.932 518.493 680.928 661.403 680.928 661.403L703.963 651.736C703.963 651.736 677.15 521.178 680.871 476.182C684.937 427.139 701.738 312.615 701.738 312.615H650.969Z" fill="#00A884"/>
<path opacity="0.2" d="M683.192 344.473C672.873 365.916 679.816 408.304 685.416 433.449C687.545 415.707 690.077 396.451 692.475 378.632C692.245 351.243 690.116 330.088 683.192 344.473Z" fill="black"/>
<path d="M702.928 644.218C703.043 644.179 705.651 651.564 705.651 651.564L679.106 662.707L674.925 654.92L702.928 644.218Z" fill="#00A884"/>
<path d="M678.377 312.615C678.377 312.615 688.293 422.976 694.872 464.309C702.065 509.593 730.355 660.406 730.355 660.406H756.804C756.804 660.406 740.962 513.257 737.97 468.414C734.728 419.754 728.245 312.615 728.245 312.615H678.377Z" fill="#00A884"/>
<path d="M757.188 653.52C757.303 653.52 758.07 660.904 758.07 660.904H728.993L726.922 652.427L757.188 653.52Z" fill="#00A884"/>
<path opacity="0.2" d="M747.061 644.774C746.927 644.774 746.831 644.678 746.812 644.563C746.658 643.221 732.369 510.361 729.684 470.102C726.768 426.391 720.899 329.493 720.842 328.515C720.842 328.381 720.938 328.266 721.072 328.247H721.091C721.225 328.247 721.321 328.343 721.34 328.477C721.398 329.455 727.267 426.352 730.183 470.064C732.868 510.322 747.157 643.182 747.31 644.506C747.329 644.64 747.233 644.755 747.099 644.774C747.08 644.774 747.061 644.774 747.061 644.774Z" fill="black"/>
<path d="M693.587 134.912C693.51 136.082 692.839 137.022 692.091 137.022C691.324 137.022 690.768 136.082 690.844 134.912C690.921 133.742 691.592 132.802 692.34 132.802C693.107 132.802 693.664 133.761 693.587 134.912Z" fill="#263238"/>
<path d="M680.43 134.912C680.353 136.082 679.682 137.022 678.934 137.022C678.186 137.022 677.61 136.082 677.687 134.912C677.764 133.742 678.435 132.802 679.183 132.802C679.931 132.802 680.506 133.761 680.43 134.912Z" fill="#263238"/>
<path d="M684.572 135.507C684.572 135.507 681.523 142.22 678.416 145.461C680.372 147.379 683.92 146.497 683.92 146.497L684.572 135.507Z" fill="#DF5753"/>
<path d="M684.918 151.388C684.726 151.388 684.592 151.234 684.592 151.043C684.611 150.851 684.764 150.697 684.956 150.697C690.077 150.697 692.666 147.13 692.686 147.091C692.801 146.938 693.012 146.88 693.165 146.996C693.318 147.091 693.357 147.302 693.242 147.475C693.127 147.629 690.403 151.388 684.918 151.388Z" fill="#263238"/>
<path d="M695.927 131.383C695.735 131.46 695.505 131.441 695.332 131.325C692.82 129.733 690.461 130.808 690.442 130.808C690.115 130.98 689.694 130.827 689.54 130.482C689.406 130.136 689.559 129.733 689.924 129.561C690.039 129.503 692.992 128.161 696.1 130.136C696.406 130.328 696.483 130.75 696.272 131.076C696.196 131.23 696.08 131.325 695.927 131.383Z" fill="#263238"/>
<path d="M675.347 127.547C675.251 127.528 675.155 127.47 675.078 127.394C674.81 127.144 674.81 126.703 675.078 126.435C677.764 123.615 680.851 124.037 680.986 124.056C681.35 124.095 681.6 124.459 681.523 124.843C681.446 125.207 681.082 125.476 680.717 125.418C680.621 125.399 678.186 125.092 676.057 127.355C675.865 127.547 675.577 127.624 675.347 127.547Z" fill="#263238"/>
<path d="M747.502 205.936L727.555 200.623C727.555 200.623 707.991 248.784 701.086 251.929C691.688 256.206 667.867 271.013 657.759 278.148C657.203 280.527 657.644 286.894 658.91 288.621C676.114 285.494 709.219 272.759 716.123 266.295C731.851 251.546 747.502 205.936 747.502 205.936Z" fill="#E58A7B"/>
<path d="M733.577 680.794C732.484 680.794 731.468 680.602 730.835 680.065C730.336 679.624 730.144 679.029 730.24 678.262C730.317 677.687 730.624 677.418 730.873 677.303C732.503 676.479 737.011 679.336 737.509 679.682C737.624 679.758 737.682 679.893 737.644 680.027C737.605 680.161 737.509 680.276 737.375 680.295C736.378 680.506 734.92 680.794 733.577 680.794ZM731.602 677.802C731.429 677.802 731.276 677.821 731.161 677.879C731.065 677.936 730.95 678.013 730.931 678.281C730.873 678.819 730.988 679.24 731.314 679.528C732.062 680.199 733.942 680.276 736.416 679.797C734.843 678.838 732.714 677.802 731.602 677.802Z" fill="#00A884"/>
<path d="M737.298 680.276C737.241 680.276 737.183 680.257 737.145 680.238C735.706 679.432 733.002 676.268 733.385 674.656C733.462 674.369 733.692 673.851 734.536 673.755C735.073 673.697 735.553 673.832 735.975 674.196C737.567 675.558 737.682 679.739 737.682 679.912C737.682 680.046 737.624 680.161 737.509 680.219C737.432 680.257 737.375 680.276 737.298 680.276ZM734.728 674.426C734.671 674.426 734.632 674.426 734.575 674.445C734.134 674.503 734.076 674.714 734.057 674.791C733.827 675.75 735.514 678.128 736.934 679.26C736.838 678.032 736.512 675.615 735.495 674.733C735.265 674.522 735.016 674.426 734.728 674.426Z" fill="#00A884"/>
<path d="M682.654 678.397C681.235 678.742 679.892 678.838 679.029 678.378C678.473 678.09 678.166 677.591 678.09 676.92C678.051 676.517 678.185 676.172 678.473 675.903C680.027 674.522 686.279 675.999 686.989 676.172C687.123 676.21 687.219 676.325 687.238 676.479C687.238 676.632 687.162 676.766 687.027 676.824C685.857 677.342 684.208 678.013 682.654 678.397ZM679.528 676.114C679.26 676.172 679.068 676.268 678.914 676.383C678.799 676.498 678.742 676.613 678.761 676.786C678.818 677.246 679.01 677.553 679.375 677.764C680.391 678.32 682.75 677.879 685.8 676.613C683.671 676.172 680.871 675.788 679.528 676.114Z" fill="#00A884"/>
<path d="M686.97 676.843C686.932 676.862 686.874 676.862 686.836 676.843C684.975 676.498 681.005 674.292 680.967 672.643C680.967 672.259 681.139 671.722 682.041 671.415C682.693 671.166 683.383 671.223 684.016 671.53C686.107 672.566 687.181 676.248 687.238 676.402C687.277 676.517 687.238 676.651 687.162 676.728C687.104 676.785 687.027 676.824 686.97 676.843ZM682.424 671.99C682.367 672.01 682.29 672.029 682.232 672.048C681.638 672.259 681.638 672.508 681.638 672.585C681.657 673.582 684.419 675.405 686.356 676.018C685.973 674.963 685.033 672.815 683.671 672.144C683.268 671.933 682.846 671.895 682.424 671.99Z" fill="#00A884"/>
<path d="M659.37 276.998L639.365 286.204L637.044 291.843L644.429 296.811C644.429 296.811 658.219 295.314 662.151 286.453L659.37 276.998Z" fill="#E58A7B"/>
<path d="M660.214 288.947C658.967 281.524 656.512 278.129 656.493 278.091L659.638 275.732C659.754 275.885 662.669 279.817 664.088 288.295L660.214 288.947Z" fill="#263238"/>
<path d="M663.628 279.721C664.28 281.332 663.225 283.269 661.307 284.037C659.37 284.823 657.279 284.152 656.627 282.541C655.975 280.929 657.03 278.992 658.948 278.225C660.885 277.458 662.976 278.11 663.628 279.721Z" fill="#263238"/>
<path d="M625.843 293.646L628.509 296.331L646.462 288.659L639.365 286.204L625.843 293.646Z" fill="#E58A7B"/>
<path opacity="0.2" d="M702.928 644.218C703.043 644.179 705.651 651.564 705.651 651.564L679.106 662.707L674.925 654.92L702.928 644.218Z" fill="black"/>
<path opacity="0.2" d="M757.188 653.52C757.303 653.52 758.07 660.904 758.07 660.904H728.993L726.922 652.427L757.188 653.52Z" fill="black"/>
<path d="M752.7 200.412C757.974 217.424 737.433 240.651 737.433 240.651L708.95 229.028C708.95 229.028 712.959 216.676 720.592 200.124C729.281 181.309 747.368 183.246 752.7 200.412Z" fill="#00A884"/>
<path opacity="0.2" d="M752.7 200.412C757.974 217.424 737.433 240.651 737.433 240.651L708.95 229.028C708.95 229.028 712.959 216.676 720.592 200.124C729.281 181.309 747.368 183.246 752.7 200.412Z" fill="black"/>
<path d="M469.68 29.9592H457.424V31.9348H469.68V29.9592Z" fill="#00A884"/>
<path d="M628.337 108.128L626.854 141.046L628.828 141.135L630.31 108.217L628.337 108.128Z" fill="#00A884"/>
<path d="M624.52 38.8203H398.196L377.136 510.111H603.46L624.52 38.8203Z" fill="#00A884"/>
<path opacity="0.56" d="M617.769 45.3032H391.445L370.385 516.575H596.709L617.769 45.3032Z" fill="#FAFAFA"/>
<path opacity="0.07" d="M611.017 51.7668H384.693L363.615 523.058H589.938L611.017 51.7668Z" fill="#00A884"/>
<path d="M585.259 257.319H392.078L390.467 293.377H583.647L585.259 257.319Z" fill="white"/>
<path d="M498.316 231.004H393.248L392.538 247.134H497.606L498.316 231.004Z" fill="#00A884"/>
<path d="M580.905 354.638H387.724L386.113 390.716H579.294L580.905 354.638Z" fill="white"/>
<path opacity="0.47" d="M545.479 439.395H415.573L413.636 482.607H543.542L545.479 439.395Z" fill="#00A884"/>
<path d="M536.791 489.32H406.885C406.827 489.32 406.769 489.301 406.712 489.243C406.674 489.205 406.654 489.128 406.654 489.071L408.592 445.839C408.592 445.724 408.707 445.628 408.822 445.628H538.728C538.785 445.628 538.843 445.647 538.901 445.705C538.939 445.743 538.958 445.82 538.958 445.878L537.021 489.109C537.002 489.224 536.906 489.32 536.791 489.32ZM407.115 488.86H536.561L538.479 446.088H409.033L407.115 488.86Z" fill="white"/>
<path d="M475.626 328.323H388.894L388.184 344.473H474.897L475.626 328.323Z" fill="#00A884"/>
<path d="M543.005 140.839C542.525 151.637 538.613 161.611 532.341 169.705C522.866 181.98 508.021 189.959 491.679 189.959C475.338 189.959 461.221 181.98 452.859 169.705C447.316 161.611 444.286 151.637 444.765 140.839C445.973 113.699 468.951 91.6997 496.072 91.6997C523.192 91.6997 544.213 113.699 543.005 140.839Z" fill="white"/>
<path d="M547.627 101.98C547.493 104.857 546.458 107.504 544.789 109.652C542.276 112.913 538.325 115.042 533.991 115.042C529.656 115.042 525.897 112.913 523.672 109.652C522.195 107.504 521.389 104.857 521.524 101.98C521.85 94.7684 527.949 88.9185 535.16 88.9185C542.353 88.9376 547.934 94.7684 547.627 101.98Z" fill="#00A884"/>
<path d="M412.888 275.348C412.754 278.532 410.049 281.121 406.846 281.121C403.662 281.121 401.188 278.532 401.322 275.348C401.457 272.164 404.161 269.575 407.364 269.575C410.548 269.575 413.022 272.145 412.888 275.348Z" fill="#263238"/>
<path d="M438.743 275.348C438.608 278.532 435.904 281.121 432.701 281.121C429.517 281.121 427.043 278.532 427.177 275.348C427.311 272.164 430.016 269.575 433.219 269.575C436.422 269.575 438.896 272.145 438.743 275.348Z" fill="#263238"/>
<path d="M464.616 275.348C464.482 278.532 461.778 281.121 458.575 281.121C455.391 281.121 452.917 278.532 453.051 275.348C453.185 272.164 455.889 269.575 459.093 269.575C462.296 269.575 464.751 272.145 464.616 275.348Z" fill="#263238"/>
<path d="M408.534 372.667C408.4 375.851 405.696 378.441 402.492 378.441C399.309 378.441 396.834 375.851 396.969 372.667C397.103 369.484 399.807 366.894 403.01 366.894C406.194 366.894 408.668 369.484 408.534 372.667Z" fill="#263238"/>
<path d="M434.389 372.667C434.254 375.851 431.55 378.441 428.347 378.441C425.163 378.441 422.689 375.851 422.823 372.667C422.957 369.484 425.662 366.894 428.865 366.894C432.068 366.894 434.542 369.484 434.389 372.667Z" fill="#263238"/>
<path d="M460.263 372.667C460.128 375.851 457.424 378.441 454.221 378.441C451.037 378.441 448.563 375.851 448.697 372.667C448.831 369.484 451.536 366.894 454.739 366.894C457.942 366.894 460.416 369.484 460.263 372.667Z" fill="#263238"/>
<path d="M486.136 372.667C486.002 375.851 483.298 378.441 480.095 378.441C476.911 378.441 474.437 375.851 474.571 372.667C474.705 369.484 477.409 366.894 480.612 366.894C483.796 366.894 486.271 369.484 486.136 372.667Z" fill="#263238"/>
<path d="M512.01 372.667C511.876 375.851 509.172 378.441 505.968 378.441C502.785 378.441 500.31 375.851 500.445 372.667C500.579 369.484 503.283 366.894 506.486 366.894C509.67 366.894 512.144 369.484 512.01 372.667Z" fill="#263238"/>
<path d="M514.484 124.421C513.986 135.392 504.703 144.291 493.732 144.291C482.761 144.291 474.264 135.392 474.743 124.421C475.242 113.45 484.525 104.55 495.496 104.55C506.467 104.531 514.964 113.431 514.484 124.421Z" fill="#00A884"/>
<path d="M532.322 169.705C522.847 181.98 508.002 189.959 491.66 189.959C475.319 189.959 461.202 181.98 452.84 169.705C462.161 160.422 476.911 154.399 493.252 154.399C509.613 154.399 523.825 160.422 532.322 169.705Z" fill="#00A884"/>
<path opacity="0.1" d="M514.484 124.421C513.986 135.392 504.703 144.291 493.732 144.291C482.761 144.291 474.264 135.392 474.743 124.421C475.242 113.45 484.525 104.55 495.496 104.55C506.467 104.531 514.964 113.431 514.484 124.421Z" fill="white"/>
<path opacity="0.1" d="M532.322 169.705C522.847 181.98 508.002 189.959 491.66 189.959C475.319 189.959 461.202 181.98 452.84 169.705C462.161 160.422 476.911 154.399 493.252 154.399C509.613 154.399 523.825 160.422 532.322 169.705Z" fill="white"/>
<path d="M250.126 302.066C248.304 306.055 246.405 310.428 244.718 314.705C243.03 319.021 241.342 323.336 239.865 327.729C237.007 336.494 234.322 345.336 233.018 354.197L232.577 357.017C232.538 357.362 232.577 357.841 232.711 358.455C232.999 359.683 233.747 361.313 234.821 362.905C236.988 366.146 240.038 369.426 243.337 372.456C246.636 375.544 250.203 378.498 253.924 381.318C257.606 384.156 261.481 386.918 265.278 389.507L261.711 396.24C252.581 392.25 244.085 387.474 235.856 381.49C231.809 378.402 227.82 375.084 224.272 370.596C222.526 368.333 220.819 365.782 219.688 362.406C219.151 360.718 218.767 358.819 218.767 356.767C218.786 356.288 218.805 355.636 218.844 355.31L218.94 354.351L219.131 352.452C220.167 342.286 222.43 332.505 225.403 323.03C226.899 318.292 228.491 313.612 230.313 309.009C232.174 304.387 234.015 299.937 236.336 295.276L250.126 302.066Z" fill="#E58A7B"/>
<path d="M262.593 388.357L276.154 381.49L272.644 396.393C272.644 396.393 263.341 399.002 259.007 394.475L262.593 388.357Z" fill="#E58A7B"/>
<path d="M288.563 383.926L284.957 396.24L272.644 396.374L276.153 381.49L288.563 383.926Z" fill="#E58A7B"/>
<path d="M307.705 230.256C307.705 230.256 308.875 234.571 310.735 237.832C309.124 239.328 307.705 238.81 307.705 238.81V230.256Z" fill="#DF5753"/>
<path d="M307.302 230.371C308.096 230.371 308.74 229.384 308.74 228.165C308.74 226.947 308.096 225.96 307.302 225.96C306.507 225.96 305.863 226.947 305.863 228.165C305.863 229.384 306.507 230.371 307.302 230.371Z" fill="#263238"/>
<path d="M306.957 226.036L309.872 225.192C309.872 225.212 308.376 227.475 306.957 226.036Z" fill="#263238"/>
<path d="M270.246 244.334C271.991 253.272 273.737 269.632 267.503 275.578C267.503 275.578 269.939 284.631 286.53 284.631C304.77 284.631 295.257 275.578 295.257 275.578C285.302 273.2 285.552 265.816 287.297 258.872L270.246 244.334Z" fill="#E58A7B"/>
<path d="M265.394 224.003C266.314 238.906 266.372 245.235 273.909 252.888C285.226 264.396 303.351 260.004 306.899 245.14C310.102 231.752 308.069 209.618 293.473 203.692C279.107 197.842 264.492 209.1 265.394 224.003Z" fill="#E58A7B"/>
<path d="M266.87 207.144C259.39 209.868 249.417 207.835 253.329 230.908C257.472 255.343 251.104 263.38 251.104 263.38C251.104 263.38 279.472 269.422 308.434 263.015C308.434 263.015 299.592 247.556 302.066 236.278C305.23 221.893 302.718 216.561 302.718 216.561C302.718 216.561 277.381 203.308 266.87 207.144Z" fill="#263238"/>
<path d="M298.517 231.771C298.479 234.725 299.515 237.698 300.857 239.769C302.871 242.876 305.269 241.61 305.883 238.388C306.42 235.492 306.017 230.371 303.427 228.376C300.896 226.42 298.556 228.395 298.517 231.771Z" fill="#E58A7B"/>
<path d="M260.368 209.753C258.22 203.73 268.462 194.447 290.136 198.302C311.809 202.157 312.749 220.186 312.749 220.186L308.357 214.989L308.548 220.474L286.281 224.751L260.368 209.753Z" fill="#263238"/>
<path d="M262.21 276.595C261.903 274.754 263.149 273.008 264.991 272.72C271.742 271.608 287.067 269.345 294.796 270.419C300.531 271.205 302.046 274.562 302.296 277.304C302.468 279.338 300.8 281.045 298.767 280.949L265.413 279.433C263.802 279.357 262.478 278.168 262.21 276.595Z" fill="#00A884"/>
<path opacity="0.6" d="M262.21 276.595C261.903 274.754 263.149 273.008 264.991 272.72C271.742 271.608 287.067 269.345 294.796 270.419C300.531 271.205 302.046 274.562 302.296 277.304C302.468 279.338 300.8 281.045 298.767 280.949L265.413 279.433C263.802 279.357 262.478 278.168 262.21 276.595Z" fill="black"/>
<path d="M281.486 611.669L293.857 620.262L314.552 592.202L302.181 583.628L281.486 611.669Z" fill="#E58A7B"/>
<path d="M252.639 611.113L265.7 618.555L284.017 588.883L270.956 581.442L252.639 611.113Z" fill="#E58A7B"/>
<path d="M314.533 592.202L303.869 606.663L291.498 598.09L302.181 583.628L314.533 592.202Z" fill="#CF6F64"/>
<path d="M270.937 581.442L284.017 588.903L274.581 604.189L261.5 596.728L270.937 581.442Z" fill="#CF6F64"/>
<path d="M291.919 370.251C291.919 370.251 340.215 431.128 331.162 489.32C323.835 536.33 281.466 599.989 281.466 599.989L261.538 590.092C261.538 590.092 283.193 547.781 297.405 502.938C303.37 484.122 300.819 463.408 289.675 447.124C265.202 411.392 226.017 432.643 252.389 370.251H291.919Z" fill="#00A884"/>
<path opacity="0.6" d="M291.919 370.251C291.919 370.251 340.215 431.128 331.162 489.32C323.835 536.33 281.466 599.989 281.466 599.989L261.538 590.092C261.538 590.092 283.193 547.781 297.405 502.938C303.37 484.122 300.819 463.408 289.675 447.124C265.202 411.392 226.017 432.643 252.389 370.251H291.919Z" fill="black"/>
<path opacity="0.4" d="M315.607 409.359L308.587 402.377C308.587 402.933 322.186 486.865 326.002 510.457C328.304 503.226 330.088 496.091 331.143 489.301C335.592 460.819 326.271 431.665 315.607 409.359Z" fill="black"/>
<path d="M313.478 370.251C313.478 370.251 371.632 446.741 373.262 492.6C374.624 531.037 309.91 605.282 309.91 605.282L291.114 593.122C291.114 593.122 328.956 540.339 338.489 497.203C334.864 454.489 256.897 370.251 256.897 370.251H313.478Z" fill="#00A884"/>
<path opacity="0.6" d="M313.478 370.251C313.478 370.251 371.632 446.741 373.262 492.6C374.624 531.037 309.91 605.282 309.91 605.282L291.114 593.122C291.114 593.122 328.956 540.339 338.489 497.203C334.864 454.489 256.897 370.251 256.897 370.251H313.478Z" fill="black"/>
<path d="M241.534 278.992C235.3 280.469 229.354 303.063 229.354 303.063L253.636 319.27C253.636 319.27 261.73 301.395 258.911 293.569C255.976 285.437 249.397 277.132 241.534 278.992Z" fill="#00A884"/>
<path opacity="0.2" d="M246.29 293.531L244.602 313.229L253.636 319.289C253.636 319.289 257.875 309.93 259.141 301.759L246.29 293.531Z" fill="black"/>
<path d="M320.67 279.433C320.67 279.433 327.844 281.965 313.478 370.251C289.234 370.251 264.166 370.251 252.37 370.251C253.387 345.374 253.425 330.05 241.534 278.992C241.534 278.992 254.346 276.211 267.484 275.578C277.765 275.08 286.185 274.754 295.238 275.578C307.168 276.672 320.67 279.433 320.67 279.433Z" fill="#00A884"/>
<path d="M326.885 293.454C328.266 297.29 329.742 301.414 331.258 305.403C332.715 309.431 334.25 313.459 335.803 317.467L340.502 329.512L341.692 332.524L342.286 334.02L342.593 334.768C342.651 334.902 342.631 334.883 342.612 334.883C342.535 334.845 342.459 334.461 341.27 333.694C340.694 333.329 339.716 332.984 338.757 332.965C337.817 332.927 337.05 333.157 336.628 333.348C335.765 333.77 335.746 333.943 335.765 333.905C335.822 333.885 335.995 333.713 336.187 333.464C337.031 332.466 338.028 330.721 338.93 328.995C339.831 327.23 340.694 325.35 341.557 323.452C343.245 319.635 344.799 315.645 346.371 311.637C347.925 307.628 349.383 303.562 350.84 299.477L355.213 287.24L362.598 289.1C361.14 297.865 359.241 306.439 356.997 315.032C355.904 319.347 354.619 323.624 353.161 327.94C352.432 330.107 351.627 332.255 350.687 334.461C349.709 336.686 348.75 338.853 347.043 341.404C346.602 342.056 346.084 342.727 345.374 343.475C344.626 344.204 343.744 345.106 341.883 345.95C340.944 346.353 339.658 346.698 338.162 346.64C336.666 346.602 335.17 346.065 334.115 345.413C331.986 344.051 331.258 342.766 330.625 341.788C330.337 341.308 330.088 340.79 329.915 340.445L329.551 339.697L328.822 338.201L327.364 335.228C325.465 331.239 323.605 327.23 321.859 323.164C320.114 319.098 318.426 315.012 316.777 310.889C315.204 306.707 313.65 302.66 312.25 298.211L326.885 293.454Z" fill="#E58A7B"/>
<path d="M320.67 279.433C328.016 281.179 336.264 302.891 336.264 302.891L314.437 321.495C314.437 321.495 300.282 297.827 303.159 290.021C306.132 281.869 311.08 277.151 320.67 279.433Z" fill="#00A884"/>
<path d="M358.628 280.488L366.28 274.082L371.612 282.387L367.681 289.33C367.681 289.33 361.428 295.046 355.885 292.15C354.12 288.064 355.214 283.327 358.628 280.488Z" fill="#E58A7B"/>
<path d="M380.186 274.101L379.61 276.192L367.47 278.225L366.28 274.082L380.186 274.101Z" fill="#E58A7B"/>
<path d="M311.483 606.28L289.58 592.125L293.511 585.297L318.119 600.43L311.483 606.28Z" fill="#00A884"/>
<path d="M274.236 617.558C272.49 617.558 270.208 616.445 268.808 615.678C268.673 615.601 268.616 615.467 268.635 615.333C268.654 615.198 268.75 615.064 268.884 615.026C269.479 614.834 274.677 613.242 276.134 614.489C276.364 614.681 276.633 615.045 276.537 615.64C276.422 616.445 276.058 617.001 275.463 617.308C275.118 617.481 274.696 617.558 274.236 617.558ZM269.92 615.448C272.298 616.656 274.216 617.116 275.137 616.656C275.521 616.464 275.751 616.1 275.827 615.544C275.866 615.237 275.77 615.103 275.655 615.026C274.907 614.374 272.03 614.872 269.92 615.448Z" fill="#263238"/>
<path d="M268.999 615.716C268.903 615.716 268.808 615.678 268.75 615.601C268.654 615.505 268.635 615.371 268.654 615.256C268.712 615.083 269.901 610.921 271.876 609.962C272.394 609.713 272.931 609.694 273.449 609.905C274.274 610.25 274.351 610.864 274.331 611.19C274.197 612.916 270.687 615.294 269.076 615.697C269.057 615.716 269.019 615.716 268.999 615.716ZM272.72 610.48C272.548 610.48 272.375 610.519 272.183 610.614C271.013 611.171 270.016 613.434 269.556 614.796C271.243 614.086 273.545 612.206 273.622 611.152C273.641 610.979 273.603 610.768 273.181 610.576C273.027 610.519 272.855 610.48 272.72 610.48Z" fill="#263238"/>
<path d="M301.644 625.843C299.476 625.843 296.465 623.062 294.816 621.355C294.701 621.24 294.681 621.087 294.758 620.953C294.835 620.818 295.007 620.742 295.122 620.761C295.89 620.857 302.545 621.758 303.504 623.638C303.677 624.002 303.677 624.386 303.466 624.769C303.121 625.383 302.603 625.747 301.951 625.824C301.835 625.824 301.74 625.843 301.644 625.843ZM296.081 621.624C298.498 623.983 300.627 625.287 301.835 625.115C302.257 625.057 302.584 624.827 302.814 624.405C302.91 624.251 302.91 624.098 302.833 623.964C302.334 622.928 298.786 622.046 296.081 621.624Z" fill="#263238"/>
<path d="M296.292 621.547C295.794 621.547 295.353 621.509 295.007 621.451C294.892 621.432 294.777 621.336 294.739 621.221C294.701 621.106 294.72 620.972 294.796 620.876C294.912 620.742 297.501 617.615 299.956 617.404C300.723 617.347 301.375 617.558 301.931 618.018C302.679 618.67 302.641 619.246 302.449 619.61C301.855 620.895 298.537 621.547 296.292 621.547ZM295.794 620.838C297.942 620.953 301.356 620.243 301.816 619.303C301.855 619.226 301.97 618.996 301.471 618.555C301.049 618.21 300.57 618.056 300.033 618.095C298.402 618.267 296.619 619.974 295.794 620.838Z" fill="#263238"/>
<path d="M269.517 613.702L253.253 609.099C252.658 608.927 252.063 609.214 251.814 609.771L246.329 622.122C245.753 623.408 246.559 624.999 247.921 625.345C253.617 626.86 256.456 627.282 263.61 629.315C268.002 630.562 274.312 632.825 280.392 634.551C286.338 636.239 288.486 630.351 286.108 629.085C275.444 623.446 274.6 619.571 271.685 615.275C271.167 614.508 270.38 613.952 269.517 613.702Z" fill="#00A884"/>
<path d="M295.257 619.111L281.37 609.464C280.872 609.118 280.22 609.176 279.798 609.617L270.591 619.514C269.632 620.531 269.862 622.295 271.052 623.082C275.943 626.361 278.474 627.704 284.593 631.943C288.352 634.551 295.851 640.343 301.03 643.93C306.113 647.459 310.064 642.588 308.222 640.631C299.975 631.828 298.172 626.304 296.81 621.298C296.561 620.416 296.005 619.629 295.257 619.111Z" fill="#00A884"/>
<path d="M283.998 601.274L258.968 588.826L261.558 582.036L288.294 595.155L283.998 601.274Z" fill="#00A884"/>
<path d="M251.45 366.664L249.34 372.13C249.129 372.552 249.628 372.994 250.337 372.994H313.785C314.341 372.994 314.801 372.725 314.82 372.38L315.377 366.913C315.415 366.53 314.935 366.223 314.341 366.223H252.447C252.006 366.204 251.603 366.396 251.45 366.664Z" fill="#00A884"/>
<path opacity="0.4" d="M251.45 366.664L249.34 372.13C249.129 372.552 249.628 372.994 250.337 372.994H313.785C314.341 372.994 314.801 372.725 314.82 372.38L315.377 366.913C315.415 366.53 314.935 366.223 314.341 366.223H252.447C252.006 366.204 251.603 366.396 251.45 366.664Z" fill="white"/>
<path d="M261.442 373.588H259.793C259.467 373.588 259.218 373.415 259.237 373.204L260.023 366.089C260.042 365.878 260.33 365.705 260.656 365.705H262.306C262.632 365.705 262.881 365.878 262.862 366.089L262.075 373.204C262.056 373.415 261.769 373.588 261.442 373.588Z" fill="#00A884"/>
<path d="M300.57 373.588H298.92C298.594 373.588 298.345 373.415 298.364 373.204L299.15 366.089C299.17 365.878 299.457 365.705 299.783 365.705H301.433C301.759 365.705 302.008 365.878 301.989 366.089L301.203 373.204C301.203 373.415 300.915 373.588 300.57 373.588Z" fill="#00A884"/>
<path d="M259.985 698.401C288.363 698.401 311.368 696.735 311.368 694.68C311.368 692.625 288.363 690.959 259.985 690.959C231.607 690.959 208.602 692.625 208.602 694.68C208.602 696.735 231.607 698.401 259.985 698.401Z" fill="#F5F5F5"/>
<path d="M291.287 689.425C282.195 686.778 272.183 683.383 266.007 679.778C265.835 679.682 265.662 679.605 265.47 679.509V638.406H283.749C286.779 638.406 289.215 635.951 289.215 632.94C289.215 629.91 286.76 627.474 283.749 627.474H265.47V439.855H254.518V627.474H236.24C233.21 627.474 230.774 629.929 230.774 632.94C230.774 635.971 233.229 638.406 236.24 638.406H254.518V679.509C254.346 679.605 254.154 679.682 253.981 679.778C247.786 683.403 237.794 686.797 228.702 689.425C225.71 690.288 226.343 694.68 229.45 694.68H259.985H290.519C293.646 694.68 294.279 690.288 291.287 689.425Z" fill="#E0E0E0"/>
<path d="M294.106 460.895H225.902C220.436 460.895 215.967 456.427 215.967 450.96V430.687C215.967 425.221 220.436 420.752 225.902 420.752H294.106C299.572 420.752 304.041 425.221 304.041 430.687V450.96C304.041 456.427 299.572 460.895 294.106 460.895Z" fill="#00A884"/>
<path d="M225.269 460.896V464.386C225.269 467.263 228.395 469.622 232.231 469.622H287.777C291.613 469.622 294.739 467.263 294.739 464.386V460.896H225.269Z" fill="#00A884"/>
<path opacity="0.3" d="M225.269 460.896V464.386C225.269 467.263 228.395 469.622 232.231 469.622H287.777C291.613 469.622 294.739 467.263 294.739 464.386V460.896H225.269Z" fill="white"/>
</svg>
