<svg width="13" height="13" viewBox="0 0 13 13" fill="none" xmlns="http://www.w3.org/2000/svg">
<path d="M11.5158 6.94353H9.44836V5.90977H11.5158V6.94353ZM11.5158 7.53421H9.44836V8.56797H11.5158V7.53421ZM11.5158 2.66089H9.44836V3.69462H11.5158V2.66089ZM11.5158 4.28533H9.44836V5.31906H11.5158V4.28533ZM11.5158 9.15866H9.44836V10.1924H11.5158V9.15866ZM12.9439 11.1966C12.8848 11.5038 12.5156 11.5111 12.269 11.5215H7.67625V12.8506H6.75916L0 11.6692V1.33329L6.79905 0.150391H7.67625V1.32737H12.111C12.3606 1.33771 12.6352 1.31998 12.8523 1.46913C13.0044 1.68769 12.9897 1.96534 13 2.21638L12.9941 9.90443C12.9867 10.3342 13.0339 10.7728 12.9439 11.1966ZM5.41529 8.87956C5.00772 8.05259 4.59276 7.23148 4.18664 6.40448C4.58832 5.59965 4.9841 4.79187 5.3784 3.98407C5.04316 4.00032 4.70793 4.02099 4.3742 4.04463C4.12461 4.65156 3.83368 5.24228 3.63876 5.86991C3.45711 5.27772 3.21641 4.70768 2.99637 4.13027C2.67148 4.14799 2.34658 4.16719 2.0217 4.18638C2.3643 4.94252 2.72909 5.68824 3.06135 6.44879C2.67 7.18717 2.30377 7.93592 1.92423 8.67872C2.24763 8.692 2.57106 8.70531 2.89446 8.70972C3.12485 8.12198 3.41133 7.55638 3.61217 6.95681C3.79234 7.60069 4.09802 8.19582 4.34908 8.81162C4.70498 8.83675 5.05939 8.85889 5.41529 8.87956ZM12.2957 2.02874H7.67625V2.66089H8.85767V3.69462H7.67625V4.28533H8.85767V5.31906H7.67625V5.90977H8.85767V6.94353H7.67625V7.53421H8.85767V8.56797H7.67625V9.15866H8.85767V10.1924H7.67625V10.8753H12.2957V2.02874Z" fill="#343D56"/>
</svg>